<?xml version="1.0" encoding="UTF-8"?>
<svg id="_x32_" xmlns="http://www.w3.org/2000/svg" version="1.1" viewBox="0 0 30 30">
  <!-- Generator: Adobe Illustrator 29.0.1, SVG Export Plug-In . SVG Version: 2.1.0 Build 192)  -->
  <defs>
    <style>
      .st0 {
        fill: #4b4b4b;
      }
    </style>
  </defs>
  <path class="st0" d="M23.7,6.3c-1.6-1.6-3.7-2.8-6-3.3l.2-3-6,3.2-1.6.8-.3.2.5.3,2.2,1.2,4.7,2.6v-2.5c1.8.4,3.3,1.3,4.4,2.5,1.8,1.8,2.8,4.2,2.8,6.8s-.3,2.7-.8,3.8l2.4,1c.6-1.5,1-3.1,1-4.9,0-3.4-1.4-6.5-3.6-8.7Z"/>
  <path class="st0" d="M17.4,24.4l-4.8-2.6v2.5c-1.8-.4-3.3-1.3-4.4-2.5-1.8-1.8-2.8-4.2-2.8-6.8s.3-2.7.8-3.8l-2.4-1c-.6,1.5-1,3.1-1,4.9,0,3.4,1.4,6.5,3.6,8.7,1.6,1.6,3.7,2.8,6,3.3l-.2,3,6-3.2,1.6-.8.3-.2-.5-.3-2.2-1.2Z"/>
</svg>