<?xml version="1.0" encoding="UTF-8"?>
<svg id="_レイヤー_1" data-name=" レイヤー 1" xmlns="http://www.w3.org/2000/svg" version="1.1" viewBox="0 0 100 100">
  <defs>
    <style>
      .cls-1 {
        fill: #d69757;
        stroke-width: 0px;
      }
    </style>
  </defs>
  <path class="cls-1" d="M45.8,47c-2.1-1.4-4.1-2.8-6.1-4.1-5.1-3.5-10.3-7-15.4-10.5-1.8-1.2-2.8-3.8-2.2-6.1.6-2.2,2.5-4,4.7-4.3,2.4-.3,4.3.5,5.6,2.5,4.6,6.8,9.2,13.5,13.8,20.3.7,1.1.8.8-.2,1.9,0,0-.2.3-.3.4h.1Z"/>
  <path class="cls-1" d="M44,45.4c-1.4-1-2.8-1.9-4.2-2.8-3.8-2.6-7.6-5.2-11.3-7.8l-4-2.8c-1.7-1.2-2.6-3.7-2.1-5.8.5-2.1,2.4-3.8,4.5-4.1h1c1.9,0,3.3.8,4.4,2.4,1.9,2.8,3.8,5.6,5.7,8.3,2.7,4,5.4,8,8.1,12,0,.2.2.3.3.4,0,0,.2.3.2.3l-.4.4-.3.4s0,0,0,.2l-1.7-1.1h0Z"/>
  <path class="cls-1" d="M48.9,55.2c-.3,1.2-.5,2.5-.8,3.7-1.5,6.8-2.9,13.6-4.4,20.5,0,.4-.2.9-.3,1.3-.8,2.9-3.4,4.6-6.4,4.2-2.7-.3-4.9-2.9-4.9-5.7s.3-2.2.9-3.1c2.7-4.1,5.3-8.1,8-12.2,2-3,4-5.9,6-8.9.2-.4.4-.4.8-.2.3.2.7.3,1.1.5h0Z"/>
  <path class="cls-1" d="M37.9,84.7h-.8c-2.5-.3-4.6-2.7-4.7-5.4,0-1,.3-2,.9-2.9l1.7-2.6c2.1-3.2,4.2-6.4,6.3-9.6,1-1.6,2.1-3.2,3.2-4.7.9-1.4,1.9-2.8,2.8-4.2,0,0,0-.2.2-.2h.2c.2,0,.5.2.8.3h0l-.2.9c-.2.8-.3,1.7-.5,2.5-1.5,6.8-2.9,13.6-4.4,20.5,0,.4-.2.8-.3,1.3-.7,2.5-2.7,4-5.3,4h0Z"/>
  <path class="cls-1" d="M53.3,54.4l1.2-1.2c0,0,.3.2.4.3,6.9,4.7,13.8,9.5,20.8,14.1,2.6,1.8,3.2,5.7,1.3,8.1-2,2.6-5.9,3.3-8.8.7-.3-.3-.5-.6-.7-.9-4.7-7-9.5-14-14.2-21,0,0,0,0,0,0Z"/>
  <path class="cls-1" d="M72.4,77.8c-1.4,0-2.8-.5-3.9-1.6s-.4-.4-.5-.7l-14.3-21.1.9-.9s.2,0,.2.2c2,1.3,3.9,2.7,5.9,4,4.9,3.3,9.9,6.8,14.9,10.1,1.2.8,2,2.1,2.2,3.5.3,1.5,0,3-1,4.2-1.1,1.4-2.7,2.3-4.5,2.3h0Z"/>
  <path class="cls-1" d="M53.2,45.6c2.1-3,4-6,6.1-9,2.8-4.2,5.7-8.3,8.6-12.5,1.4-2,3.5-2.7,5.8-2.2s3.9,2.1,4.4,4.4c.5,2.2,0,4.3-2,5.7-3.7,2.6-7.4,5.1-11.1,7.6-3.3,2.2-6.6,4.4-9.8,6.6q-.7.5-1.3,0c-.2-.2-.4-.3-.6-.5h-.1Z"/>
  <path class="cls-1" d="M54.5,46.3s-.3-.2-.5-.4l-.4-.4,1.7-2.6c1.4-2.1,2.8-4.2,4.2-6.2,2.8-4.1,5.7-8.3,8.6-12.5,1-1.5,2.4-2.2,4.1-2.2s.9,0,1.4.2c2.2.5,3.7,2,4.1,4.1.4,1.6.3,3.9-1.9,5.5-3.8,2.7-7.7,5.3-11.1,7.6-2.4,1.7-4.9,3.3-7.4,4.9l-2.5,1.7c-.2,0-.4.3-.5.3h.2Z"/>
  <path class="cls-1" d="M67.9,79c0,2.7-1.7,5-4.1,5.7-2.5.7-5.3-.2-6.6-2.4-.6-1-.8-2.2-1-3.3-1.6-7.8-3.2-15.5-4.8-23.3,0-.4,0-.5.3-.6q1.1-.4,1.8.6c4.5,6.8,9,13.6,13.4,20.4.6.9,1.1,1.9,1,3h0Z"/>
  <path class="cls-1" d="M62.1,84.7c-2,0-3.7-1-4.6-2.6-.5-.9-.8-2.1-1-3.1-1-4.6-1.9-9.2-2.9-13.8-.7-3.2-1.3-6.3-2-9.5,0-.1,0-.2.2-.3.4-.2.7-.2.8-.2s.3,0,.6.7c4.5,6.8,9,13.6,13.4,20.4.5.8,1.1,1.8.9,2.8,0,2.6-1.6,4.8-3.9,5.5-.5.2-1.1.2-1.7.2h.2Z"/>
  <path class="cls-1" d="M48.9,44.8c-.5.2-1,.4-1.5.6,0,0-.2-.2-.2-.3-4.6-7-9.2-13.9-13.9-20.9-.9-1.4-1.3-2.8-1.1-4.5.4-2.4,2.6-4.5,5-4.7,2.3-.2,4.2.6,5.5,2.5.6.8.8,1.9,1,2.9,1.5,7.2,3,14.5,4.6,21.7.2.9.4,1.8.6,2.7Z"/>
  <path class="cls-1" d="M47.5,45h0c0,0-4-6.1-4-6.1-3.3-5-6.6-10-9.9-14.9-.9-1.4-1.3-2.8-1-4.3.4-2.3,2.5-4.3,4.8-4.5h.7c1.9,0,3.4.8,4.5,2.4.5.8.8,1.9,1,2.8,1.2,5.4,2.3,10.8,3.4,16.2l1.2,5.5.5,2.4-1.1.5h-.1Z"/>
  <path class="cls-1" d="M50.1,12.6c3.1-.2,5.5,2.5,5.7,4.8,0,1,0,2.1-.3,3.1-1.5,7.8-3,15.7-4.5,23.5,0,.2,0,.6-.3.6h-1.4s0-.3-.2-.4c-1.5-7.8-3.1-15.5-4.6-23.3-.3-1.3-.6-2.7-.2-4,.7-2.4,3-4.4,5.7-4.2h0Z"/>
  <path class="cls-1" d="M50.2,44.4h-.6v-.2l-.7-3.5c-1.3-6.6-2.6-13.2-3.9-19.8v-.3c-.3-1.2-.5-2.4-.2-3.6.7-2.3,2.8-4.1,5.1-4.1s.2,0,.3,0h.3c2.7,0,4.9,2.4,5.1,4.5,0,.9,0,1.9-.3,2.8v.2c-1.5,7.8-3,15.7-4.5,23.5,0,.2,0,.3,0,.4h-.5Z"/>
  <path class="cls-1" d="M15.1,61.9c-.2-2.1,1.6-5,4.5-5.6,6.5-1.3,12.9-2.6,19.4-3.9,1.8-.4,3.7-.7,5.5-1.1.4,0,.6,0,.7.4q.4,1-.5,1.6c-6.7,4.4-13.5,8.8-20.2,13.2-1,.6-1.9,1.2-3.2,1.3-3.3.2-6.3-2.7-6.1-5.9h0Z"/>
  <path class="cls-1" d="M20.8,67.6c-1.4,0-2.9-.6-3.9-1.7s-1.6-2.5-1.5-3.9c-.2-2.1,1.6-4.8,4.2-5.3,4.2-.8,8.5-1.7,12.7-2.6l6.7-1.4c.7,0,1.4-.3,2.1-.4,1.1-.2,2.3-.4,3.4-.7h.2s0,0,.2.3c.2.5,0,1-.4,1.3-6.7,4.4-13.5,8.8-20.2,13.2-1.1.7-1.9,1.1-3,1.2h-.5Z"/>
  <path class="cls-1" d="M45.8,53.2c.4.4.7.8,1.1,1.2-.2.3-.4.6-.6.9-4.5,6.7-9.1,13.3-13.6,20-.9,1.3-1.9,2.3-3.5,2.7-2.4.6-4.7-.2-6.2-2.2-1.4-1.8-1.5-4.5-.2-6.4.5-.7,1.1-1.3,1.8-1.8,6.8-4.6,13.6-9.2,20.4-13.8.2-.2.5-.3.7-.5h.1Z"/>
  <path class="cls-1" d="M27.7,77.8c-1.8,0-3.3-.8-4.5-2.3-1.3-1.8-1.4-4.3-.2-6.1s1-1.2,1.8-1.7c5.2-3.5,10.4-7.1,15.7-10.6l4.8-3.2.5-.4.8.8s-.3.5-.4.7l-3.6,5.4c-3.3,4.9-6.6,9.8-10,14.6-1,1.5-2,2.3-3.3,2.6-.5,0-.9.2-1.4.2h-.2Z"/>
  <path class="cls-1" d="M85,38c0,2.7-1.8,5-4.5,5.6-8.2,1.7-16.5,3.4-24.7,5.1-.3,0-.5,0-.6-.3q-.4-1.1.6-1.7c6.7-4.4,13.4-8.8,20-13.2,1.3-.9,2.7-1.4,4.3-1.1,2.6.4,5,2.8,4.9,5.8v-.2Z"/>
  <path class="cls-1" d="M55.5,48.3v-.2c-.3-.6-.1-1.1.4-1.4l6.4-4.2c4.6-3,9.1-6,13.7-9,1.2-.8,2.2-1.1,3.3-1.1s.5,0,.7,0c2.3.3,4.8,2.6,4.7,5.5,0,2.6-1.7,4.8-4.3,5.3-5.1,1.1-10.3,2.1-15.4,3.2l-9.3,1.9h-.2Z"/>
  <path class="cls-1" d="M54.8,52.7c.2-.5.4-.9.6-1.4,1.3.2,2.6.5,3.8.7,6,1.2,12,2.4,17.9,3.7,1.2.3,2.5.6,3.7.8,2.4.5,4.1,3.3,4.1,5.4,0,3-2.3,5.2-4.3,5.7-1.6.4-3,.3-4.4-.6-7.1-4.7-14.2-9.4-21.3-14.1,0,0-.2,0-.3-.2h.2Z"/>
  <path class="cls-1" d="M79.1,67.5c-1,0-1.8-.3-2.6-.8-5.1-3.4-10.2-6.8-15.3-10.2l-5.9-3.9h0l.4-1,1,.2c.9.2,1.8.3,2.6.5,6,1.2,12,2.4,17.9,3.7.6,0,1.2.3,1.9.4.6,0,1.2.3,1.9.4,2.2.5,3.9,3.1,3.9,5.1s-2.1,5-4.1,5.4c-.6,0-1.1.2-1.6.2h-.1Z"/>
  <path class="cls-1" d="M45.4,47.4c-.2.5-.4.9-.5,1.3-1.8-.4-3.7-.7-5.5-1.1-6.1-1.2-12.1-2.5-18.2-3.7-.8-.2-1.7-.4-2.5-.6-1.8-.5-3.5-2.8-3.6-4.7-.1-3,1.3-5.3,3.9-6.2,1.6-.6,3.2-.5,4.6.5,2.5,1.7,5.1,3.3,7.6,5,4.5,3,9.1,6.1,13.6,9.1.2,0,.3.2.5.4h0Z"/>
  <path class="cls-1" d="M43.1,48.1c-1.2-.2-2.5-.5-3.7-.7-6.1-1.2-12.1-2.5-18.2-3.7-.9-.2-1.7-.4-2.5-.6-1.7-.5-3.3-2.6-3.4-4.4-.1-2.9,1.2-5,3.7-5.9.6-.2,1.2-.3,1.8-.3.9,0,1.8.3,2.6.8,1,.6,1.9,1.2,2.9,1.9,1.6,1,3.2,2.1,4.8,3.1,3.3,2.2,6.6,4.4,9.9,6.6l3.7,2.5c0,0,.2.2.3.2h0l-.4.9-1.6-.3h0Z"/>
  <path class="cls-1" d="M67.9,20.9c0,.8-.2,1.7-.7,2.4-2.2,3.4-4.4,6.9-6.6,10.3-2.5,3.7-5,7.4-7.5,11.2,0,.2-.4.5-.5.5-.4,0-.8-.3-1.2-.5v-.4c1.7-8.3,3.3-16.6,5-24.8.5-2.5,2.3-4.3,4.7-4.6,4.3-.5,6.9,2.9,6.7,5.9h0Z"/>
  <path class="cls-1" d="M52.6,44.9c-.3,0-.6-.2-.9-.4h0c0,0,1.1-5.6,1.1-5.6,1.3-6.5,2.6-12.9,3.9-19.4.5-2.4,2.2-4.1,4.4-4.3h.8c2,0,3.3.9,4.1,1.7,1,1.1,1.6,2.5,1.5,3.9,0,.8,0,1.6-.6,2.3l-1.5,2.3c-1.7,2.7-3.4,5.3-5.1,7.9-1.9,2.9-3.9,5.8-5.8,8.7l-1.7,2.5c0,.2-.2.3-.3.4h0Z"/>
  <path class="cls-1" d="M44.8,50.7c-1.8.4-3.5.7-5.2,1-6.3,1.2-12.6,2.4-18.9,3.6-.8,0-1.5.3-2.3.4-1.6.2-2.9-.5-4-1.6-1.7-1.7-2.3-3.8-1.5-6,.8-2.3,2.5-3.7,4.9-4,1.1,0,2.2.2,3.2.4,7,1.3,14.1,2.7,21.1,4.1.7,0,1.3.3,2,.4.5,0,.7.2.6.7v.9h.1Z"/>
  <path class="cls-1" d="M18,55.5c-1.2,0-2.3-.5-3.4-1.5-1.7-1.6-2.2-3.6-1.4-5.7.7-2.3,2.4-3.6,4.7-3.8h.4c.7,0,1.5.2,2.2.3h.6c5,1.1,10.1,2.1,15.1,3l6.4,1.3c.5,0,1,.2,1.6.3.4,0,.4,0,.4.4v.6h0l-1.4.4c-1.2.2-2.4.5-3.5.7-6.3,1.2-12.6,2.4-18.9,3.6h-.5c-.6.2-1.2.3-1.7.4h-.6Z"/>
  <path class="cls-1" d="M87.4,50c.2,2.5-2.1,5.7-5.6,5.7s-2-.3-2.9-.5c-6.5-1.3-13-2.5-19.5-3.8-1.2-.2-2.4-.5-3.6-.7,0,0-.3-.3-.3-.4q0-1.2,1.1-1.4c5.8-1.1,11.6-2.3,17.4-3.4,2.4-.5,4.8-.9,7.1-1.3,3.5-.6,6.6,2.7,6.3,5.8Z"/>
  <path class="cls-1" d="M81.8,55.5c-.7,0-1.4-.2-2.1-.3-.3,0-.6,0-.8-.2-5.5-1.1-11-2.1-16.5-3.2l-3.5-.7c-1-.2-2-.4-3-.6,0,0,0,0,0-.2,0-.6.3-1,.8-1.1l7.2-1.4c3.4-.7,6.8-1.3,10.2-2h.5c2.2-.5,4.4-1,6.7-1.3h.8c1.4,0,2.8.6,3.8,1.8,1,1.1,1.5,2.5,1.4,3.8,0,1.3-.4,2.7-1.4,3.7-1,1.1-2.4,1.8-3.9,1.8h0Z"/>
  <path class="cls-1" d="M49.4,55.4h.2q1.2,0,1.4,1.1c1.2,5.8,2.4,11.6,3.5,17.5.5,2.6,1,5.2,1.4,7.8,0,.5,0,1,0,1.5-.7,2.7-3.2,4.4-6.1,4.3-2.5,0-4.7-2.1-5.3-4.8-.3-1.2,0-2.4.3-3.6l4.5-22.5c0-.4,0-.7.2-1.1v-.2Z"/>
  <path class="cls-1" d="M49.6,87.1c-2.4,0-4.5-2-5-4.6-.2-1,0-2,.2-3v-.4c1.2-5.4,2.2-10.7,3.3-16.1l1.3-6.4c0-.2,0-.5,0-.8v-.2h.6c.2,0,.4.3.5.8l1.3,6.3c.8,3.7,1.5,7.5,2.3,11.2.4,2.2.9,4.6,1.4,7.8,0,.4,0,.8,0,1.4-.6,2.5-2.8,4.1-5.6,4.1s-.2,0-.3,0h0Z"/>
  <path class="cls-1" d="M50.2,54.5c-2.4.2-4.5-1.8-4.7-4.4,0-2.3,1.8-4.4,4.2-4.6,2.2-.2,4.7,1.4,4.8,4.4,0,2.7-2.1,4.6-4.4,4.6h.1Z"/>
  <path class="cls-1" d="M49.9,54.2c-2.1,0-3.9-1.8-4.1-4.1,0-2.2,1.7-4.1,4-4.3h.3c2,0,4.1,1.5,4.2,4.1,0,1.2-.4,2.2-1.2,3s-1.9,1.3-3,1.3h-.3,0Z"/>
</svg>