<?xml version="1.0" encoding="UTF-8"?>
<svg id="_レイヤー_1" data-name="レイヤー 1" xmlns="http://www.w3.org/2000/svg" version="1.1" viewBox="0 0 500 154">
  <defs>
    <style>
      .cls-1 {
        fill: #777;
        stroke-width: 0px;
      }
    </style>
  </defs>
  <g>
    <path class="cls-1" d="M268.6,103.5c-3.3-2.2-6.5-4.3-9.6-6.5-8.1-5.5-16.2-11.1-24.3-16.6-2.8-1.9-4.4-6-3.5-9.6.9-3.5,4-6.4,7.5-6.8,3.7-.5,6.7.7,8.9,3.9,7.2,10.7,14.5,21.3,21.7,32,1.2,1.7,1.3,1.2-.3,3-.2.2-.3.4-.4.6Z"/>
    <path class="cls-1" d="M265.9,101.1c-2.2-1.5-4.4-3-6.6-4.5-6-4.1-11.9-8.2-17.9-12.2l-6.4-4.4c-2.7-1.9-4.1-5.8-3.3-9.1.9-3.4,3.8-6,7.1-6.5.5,0,1-.1,1.5-.1,2.9,0,5.2,1.2,6.9,3.8,3,4.4,5.9,8.8,8.9,13.1,4.3,6.3,8.5,12.6,12.8,18.9.2.3.3.5.5.7.2.2.3.5.3.5,0,0-.3.4-.6.7l-.5.6c0,0-.2.2-.2.3l-2.7-1.8Z"/>
    <path class="cls-1" d="M273.6,116.6c-.4,2-.8,3.9-1.2,5.9-2.3,10.8-4.6,21.5-6.9,32.3-.1.7-.3,1.4-.5,2-1.2,4.6-5.3,7.2-10.1,6.6-4.2-.5-7.7-4.6-7.8-9,0-1.8.5-3.4,1.5-4.9,4.2-6.4,8.4-12.8,12.6-19.2,3.1-4.7,6.3-9.4,9.4-14.1.4-.6.7-.7,1.2-.3.5.3,1.1.5,1.7.7Z"/>
    <path class="cls-1" d="M256.2,163c-.4,0-.8,0-1.3,0-4-.5-7.3-4.3-7.4-8.6,0-1.6.4-3.2,1.4-4.6l2.6-4c3.3-5.1,6.7-10.2,10-15.2,1.7-2.5,3.3-5,5-7.5,1.5-2.2,3-4.4,4.4-6.6,0-.1.2-.3.3-.3s.1,0,.3.1c.4.2.8.4,1.2.5,0,0,.1,0,.2,0l-.3,1.5c-.3,1.3-.5,2.7-.8,4-2.3,10.8-4.6,21.5-6.9,32.3-.1.7-.3,1.3-.5,2-1.1,3.9-4.3,6.4-8.4,6.4Z"/>
    <path class="cls-1" d="M280.5,115.3c.7-.7,1.3-1.3,1.9-1.9.2.1.4.3.7.4,10.9,7.4,21.8,14.9,32.8,22.3,4.2,2.8,5,8.9,2.1,12.8-3.2,4.1-9.2,5.3-13.9,1.1-.4-.4-.8-.9-1.1-1.4-7.5-11-14.9-22.1-22.4-33.1,0,0-.1-.2-.1-.2Z"/>
    <path class="cls-1" d="M310.6,152.2c-2.2,0-4.4-.9-6.2-2.5-.3-.3-.6-.7-.9-1.1l-22.5-33.2,1.4-1.4c.1,0,.2.2.4.2,3.1,2.1,6.2,4.2,9.3,6.4,7.7,5.2,15.6,10.7,23.5,15.9,1.8,1.2,3.1,3.3,3.5,5.6.4,2.4-.2,4.8-1.6,6.6-1.7,2.2-4.3,3.6-7,3.6Z"/>
    <path class="cls-1" d="M280.3,101.4c3.2-4.8,6.4-9.5,9.6-14.2,4.5-6.6,9-13.1,13.5-19.7,2.2-3.2,5.5-4.2,9.2-3.4,3.7.8,6.1,3.2,6.9,6.9.8,3.5,0,6.8-3.2,9.1-5.8,4.1-11.6,8-17.5,12-5.1,3.5-10.3,6.9-15.5,10.4-1.1.7-1.1.7-2.1-.2-.3-.3-.6-.5-.9-.8Z"/>
    <path class="cls-1" d="M282.3,102.5c-.1,0-.4-.3-.7-.6-.2-.2-.7-.6-.7-.6l2.7-4c2.2-3.3,4.4-6.6,6.6-9.8,4.4-6.5,9-13.1,13.5-19.7,1.6-2.3,3.8-3.5,6.5-3.5s1.5,0,2.3.3c3.5.8,5.8,3.1,6.5,6.5.6,2.6.5,6.1-3,8.6-6,4.2-12.2,8.4-17.5,12-3.9,2.6-7.7,5.2-11.6,7.8l-3.9,2.6c-.3.2-.7.4-.8.4Z"/>
    <path class="cls-1" d="M303.6,154c0,4.3-2.7,7.9-6.5,9-4,1.2-8.3-.3-10.4-3.9-.9-1.5-1.3-3.4-1.6-5.2-2.6-12.2-5.1-24.5-7.6-36.7-.1-.6,0-.8.5-1,1.8-.6,1.8-.7,2.8.9,7.1,10.7,14.1,21.4,21.2,32.1,1,1.5,1.8,3.1,1.6,4.7Z"/>
    <path class="cls-1" d="M294.4,163c-3.1,0-5.8-1.5-7.3-4-.8-1.4-1.2-3.2-1.6-5-1.5-7.3-3-14.6-4.5-21.8-1-5-2.1-10-3.1-15q0-.4.3-.5c.7-.2,1.1-.4,1.3-.4s.4.2,1,1.1c7.1,10.7,14.1,21.4,21.2,32.1.8,1.2,1.7,2.8,1.5,4.4,0,4.1-2.5,7.6-6.2,8.7-.8.3-1.7.4-2.6.4Z"/>
    <path class="cls-1" d="M273.5,100.1c-.8.3-1.5.6-2.3,1-.1-.1-.3-.3-.4-.5-7.3-11-14.6-22-21.9-33-1.5-2.2-2.1-4.4-1.7-7.1.6-3.8,4.1-7.1,7.9-7.5,3.7-.4,6.6.9,8.6,3.9.9,1.3,1.3,3,1.6,4.6,2.4,11.4,4.8,22.8,7.2,34.2.3,1.4.6,2.8.9,4.2Z"/>
    <path class="cls-1" d="M271.3,100.5c0,0,0-.1-.1-.2l-6.3-9.4c-5.2-7.9-10.4-15.7-15.6-23.5-1.5-2.2-2-4.4-1.6-6.7.6-3.6,3.9-6.7,7.5-7.1.4,0,.8,0,1.1,0,3,0,5.4,1.3,7.1,3.8.8,1.3,1.2,2.9,1.6,4.4,1.8,8.5,3.6,17,5.4,25.5l1.8,8.7.8,3.8-1.7.7Z"/>
    <path class="cls-1" d="M275.5,49.4c4.8-.3,8.7,4,9,7.5.1,1.6-.2,3.3-.5,4.9-2.3,12.4-4.7,24.7-7,37.1,0,.4-.2,1-.4,1-.7.1-1.4,0-2.2,0-.1,0-.2-.4-.3-.6-2.4-12.2-4.9-24.5-7.3-36.7-.4-2.1-.9-4.2-.3-6.4,1.2-3.8,4.8-7,8.9-6.7Z"/>
    <path class="cls-1" d="M275.6,99.5c-.3,0-.7,0-1,0,0,0,0-.2,0-.3l-1.1-5.5c-2.1-10.4-4.1-20.8-6.2-31.2v-.5c-.5-1.9-.8-3.7-.3-5.7,1.1-3.7,4.5-6.4,8-6.4s.3,0,.4,0c.2,0,.3,0,.5,0,4.3,0,7.8,3.8,8.1,7.1.1,1.4-.2,3-.4,4.4v.3c-2.4,12.4-4.7,24.7-7.1,37.1,0,.3-.1.5-.2.7-.2,0-.5,0-.7,0Z"/>
    <path class="cls-1" d="M220.3,127.2c-.3-3.3,2.5-7.9,7-8.8,10.2-2,20.4-4.1,30.5-6.2,2.9-.6,5.8-1.1,8.6-1.7.7-.1.9,0,1.1.6.6,1.6.6,1.6-.8,2.6-10.6,6.9-21.2,13.9-31.8,20.8-1.5,1-3.1,1.9-5,2-5.2.4-9.9-4.2-9.6-9.3Z"/>
    <path class="cls-1" d="M229.3,136c-2.3,0-4.5-1-6.2-2.8-1.6-1.7-2.5-3.9-2.4-6.1-.3-3.3,2.5-7.5,6.7-8.4,6.7-1.3,13.3-2.7,20-4.1l10.5-2.2c1.1-.2,2.2-.4,3.3-.7,1.8-.3,3.6-.7,5.3-1.1.1,0,.2,0,.3,0,.1,0,.2,0,.3.4q.5,1.3-.7,2.1c-10.6,6.9-21.2,13.9-31.8,20.8-1.7,1.1-3.1,1.8-4.8,1.9-.2,0-.4,0-.6,0Z"/>
    <path class="cls-1" d="M268.7,113.4c.6.6,1.1,1.2,1.7,1.8-.3.5-.6.9-.9,1.4-7.2,10.5-14.3,21-21.4,31.5-1.4,2.1-3.1,3.7-5.5,4.3-3.7.9-7.4-.4-9.7-3.5-2.2-2.9-2.4-7-.4-10.1.7-1.1,1.8-2.1,2.9-2.8,10.7-7.3,21.5-14.5,32.2-21.7.4-.3.7-.5,1.2-.8Z"/>
    <path class="cls-1" d="M240.2,152.2c-2.8,0-5.3-1.3-7-3.7-2.1-2.8-2.2-6.7-.4-9.6.6-1,1.6-1.9,2.8-2.7,8.2-5.6,16.5-11.1,24.7-16.7l7.5-5,.9-.6,1.2,1.3s-.5.8-.7,1.1l-5.8,8.4c-5.2,7.7-10.5,15.4-15.7,23.1-1.6,2.3-3.2,3.6-5.3,4.1-.7.2-1.5.3-2.2.3Z"/>
    <path class="cls-1" d="M330.5,89.3c0,4.3-2.8,7.9-7.1,8.8-13,2.7-26,5.3-39,8-.5.1-.8,0-.9-.6-.6-1.7-.6-1.7.9-2.8,10.5-7,21.1-13.9,31.6-20.9,2.1-1.4,4.2-2.2,6.8-1.8,4.1.6,7.9,4.4,7.7,9.2Z"/>
    <path class="cls-1" d="M284.1,105.7c0,0-.1,0-.2-.3q-.5-1.4.8-2.2l10-6.6c7.2-4.7,14.4-9.5,21.6-14.2,1.9-1.2,3.5-1.8,5.3-1.8s.8,0,1.2,0c3.7.6,7.5,4,7.4,8.7,0,4.2-2.7,7.5-6.8,8.3-8.1,1.7-16.2,3.3-24.3,5l-14.7,3c0,0-.1,0-.2,0Z"/>
    <path class="cls-1" d="M282.8,112.6c.3-.8.6-1.5.9-2.3,2,.4,4.1.8,6.1,1.2,9.4,1.9,18.9,3.8,28.3,5.8,2,.4,3.9.9,5.9,1.3,3.8.8,6.5,5.2,6.5,8.5,0,4.8-3.6,8.3-6.7,9-2.4.6-4.8.5-7-1-11.2-7.4-22.4-14.8-33.5-22.2-.1,0-.3-.2-.4-.3Z"/>
    <path class="cls-1" d="M321.2,136c-1.5,0-2.9-.4-4.1-1.2-8.1-5.4-16.1-10.7-24.2-16l-9.3-6.2s0,0-.1-.1l.7-1.6,1.5.3c1.4.3,2.8.5,4.2.8,9.4,1.9,18.9,3.8,28.3,5.8,1,.2,1.9.4,2.9.6,1,.2,2,.4,2.9.6,3.5.7,6.2,4.9,6.2,8.1,0,4.4-3.3,7.8-6.4,8.6-.9.2-1.7.3-2.5.3Z"/>
    <path class="cls-1" d="M268.1,104.2c-.3.8-.6,1.4-.8,2.1-2.9-.6-5.8-1.1-8.7-1.7-9.6-2-19.1-3.9-28.7-5.9-1.3-.3-2.7-.6-4-1-2.9-.8-5.5-4.4-5.7-7.4-.2-4.7,2-8.3,6.2-9.8,2.5-.9,5-.7,7.3.8,4,2.6,8.1,5.2,12.1,7.8,7.2,4.8,14.3,9.6,21.5,14.4.3.2.5.4.8.6Z"/>
    <path class="cls-1" d="M264.5,105.3c-1.9-.4-3.9-.8-5.8-1.2-9.6-2-19.1-3.9-28.7-5.9-1.4-.3-2.7-.6-3.9-1-2.7-.8-5.2-4.1-5.4-7-.2-4.6,1.9-8,5.9-9.3,1-.3,2-.5,2.9-.5,1.4,0,2.8.4,4.1,1.2,1.5,1,3,2,4.5,2.9,2.5,1.6,5,3.2,7.5,4.9,5.2,3.5,10.4,7,15.6,10.5l5.8,3.9c.2.1.3.2.5.4h0s-.6,1.4-.6,1.4l-2.5-.5Z"/>
    <path class="cls-1" d="M303.6,62.4c.1,1.3-.3,2.6-1,3.8-3.5,5.4-6.9,10.8-10.5,16.2-3.9,5.9-7.9,11.7-11.8,17.6-.2.3-.6.8-.8.8-.6-.1-1.2-.4-1.8-.7,0,0,0-.4,0-.6,2.6-13.1,5.3-26.1,7.9-39.2.8-3.9,3.7-6.7,7.4-7.2,6.9-.8,10.9,4.6,10.6,9.3Z"/>
    <path class="cls-1" d="M279.5,100.3c-.5-.1-.9-.3-1.4-.6,0,0,0-.1,0-.2l1.7-8.6c2.1-10.2,4.1-20.4,6.2-30.6.8-3.7,3.5-6.4,7-6.8.5,0,.9,0,1.3,0,3.2,0,5.3,1.5,6.4,2.7,1.6,1.7,2.5,4,2.4,6.2,0,1.2-.2,2.5-1,3.6l-2.4,3.7c-2.7,4.2-5.4,8.4-8.1,12.5-3,4.6-6.1,9.1-9.2,13.7l-2.6,3.9c-.2.3-.4.5-.4.6Z"/>
    <path class="cls-1" d="M267.1,109.4c-2.8.6-5.5,1.1-8.2,1.7-9.9,1.9-19.9,3.8-29.8,5.7-1.2.2-2.4.5-3.6.6-2.5.2-4.6-.8-6.3-2.5-2.8-2.7-3.6-5.9-2.4-9.5,1.2-3.6,3.9-5.9,7.7-6.2,1.7-.2,3.4.3,5.1.6,11.1,2.1,22.2,4.3,33.3,6.4,1,.2,2.1.4,3.1.6.7,0,1.1.4,1,1.2,0,.4,0,.8,0,1.4Z"/>
    <path class="cls-1" d="M224.9,117c-1.9,0-3.6-.8-5.3-2.4-2.6-2.5-3.4-5.6-2.3-9,1.2-3.6,3.7-5.6,7.4-5.9.2,0,.4,0,.6,0,1.1,0,2.3.2,3.5.5l.9.2c8,1.5,15.9,3.1,23.8,4.6l10.1,2c.8.2,1.6.3,2.5.4.6,0,.7.2.6.7,0,.3,0,.6,0,1h0c0,.1-2.2.6-2.2.6-1.9.4-3.7.8-5.6,1.1-9.9,1.9-19.9,3.8-29.8,5.7l-.8.2c-.9.2-1.8.4-2.7.5-.2,0-.5,0-.7,0Z"/>
    <path class="cls-1" d="M334.3,108.4c.4,4-3.4,9.1-8.8,9.1-1.5,0-3.1-.5-4.6-.8-10.2-2-20.5-4-30.7-5.9-1.9-.4-3.8-.7-5.7-1.1-.2,0-.5-.4-.5-.6-.2-1.9-.2-1.9,1.7-2.2,9.1-1.8,18.3-3.6,27.4-5.4,3.7-.7,7.5-1.5,11.3-2.1,5.5-.9,10.4,4.2,10,9.1Z"/>
    <path class="cls-1" d="M325.5,117c-1.1,0-2.2-.3-3.3-.5-.4-.1-.9-.2-1.3-.3-8.7-1.7-17.4-3.4-26-5l-5.6-1.1c-1.6-.3-3.2-.6-4.8-1,0,0-.2-.2-.2-.3q-.2-1.4,1.3-1.7l11.3-2.2c5.4-1.1,10.8-2.1,16.1-3.2h.8c3.4-.8,7-1.5,10.5-2.1.4,0,.8,0,1.2,0,2.2,0,4.4,1,6.1,2.8,1.6,1.7,2.4,3.9,2.2,5.9.2,2-.7,4.2-2.2,5.9-1.6,1.8-3.8,2.8-6.1,2.8h0Z"/>
    <path class="cls-1" d="M274.3,116.8c.1,0,.2,0,.2,0,1.9-.2,1.9-.2,2.3,1.7,1.8,9.2,3.7,18.4,5.5,27.5.8,4.1,1.5,8.2,2.2,12.3.1.7,0,1.6-.2,2.3-1.1,4.2-5,6.9-9.6,6.7-3.9-.2-7.4-3.4-8.3-7.6-.4-2,0-3.8.5-5.7,2.4-11.8,4.8-23.6,7.2-35.5.1-.6.2-1.1.3-1.7Z"/>
    <path class="cls-1" d="M274.7,166.8c-3.7-.1-7-3.2-7.9-7.2-.3-1.6,0-3.2.3-4.8v-.7c1.8-8.4,3.5-16.9,5.2-25.3l2.1-10.1c0-.4.1-.8.2-1.2v-.3c.4,0,.7,0,.9,0q.5,0,.8,1.3l2,9.9c1.2,5.9,2.4,11.8,3.6,17.7.7,3.5,1.4,7.3,2.2,12.2,0,.6,0,1.3-.2,2.1-1,3.9-4.5,6.4-8.8,6.4s-.3,0-.4,0Z"/>
    <path class="cls-1" d="M275.6,115.4c-3.8.3-7.1-2.8-7.4-6.9-.2-3.7,2.8-7,6.7-7.3,3.5-.3,7.5,2.2,7.6,7,.1,4.3-3.3,7.3-6.9,7.3Z"/>
    <path class="cls-1" d="M275.2,114.9c-3.4,0-6.2-2.9-6.4-6.5-.2-3.4,2.6-6.5,6.2-6.8.2,0,.3,0,.5,0,3.1,0,6.5,2.3,6.6,6.5,0,1.8-.6,3.5-1.8,4.8-1.2,1.3-2.9,2-4.7,2-.2,0-.3,0-.5,0Z"/>
  </g>
  <g>
    <path class="cls-1" d="M108.8,40.8c-.6,0-1.6.3-3,2.8,0,0-.4.8-.6,2.6-.2,1.7-2.1,13.8-4.4,25.1l-.5.2-.3-.4c2.3-11.3,4.1-23.3,4.3-25.1,0,0,0-.2,0-.3.2-1.7.9-3.2,2-4.5.9-1,1.7-1.4,2.5-1.3.5,0,.9.4,1.2.7,0-2.8,0-5.6,0-6.9-.1-3.2-2.4-3.3-2.4-3.3,0,0-4.9,1-5.8,8-.9,7-7,31.2-7,31.2-4.3,5.8-11.6,32.1-11.6,32.1,0,0-13.8,1.8-15.9,8.3-4.6,12.9,13.5,23.6,13.5,23.6l18.1-13.8c10.1-4,11.3-15.6,11.3-15.6v-55.1s0-3.4,0-7.1c-.3-.7-.8-1.3-1.4-1.4Z"/>
    <path class="cls-1" d="M113,41.5c.6,0,1.6.3,3,2.8,0,0,.4.8.6,2.6.2,1.7,2.1,13.8,4.4,25.1l.5.2.3-.4c-2.3-11.3-4.1-23.3-4.3-25.1,0,0,0-.2,0-.3-.2-1.7-.9-3.2-2-4.5-.9-1-1.7-1.4-2.5-1.3-.5,0-.9.4-1.2.7,0-2.8,0-5.6,0-6.9.1-3.2,2.4-3.3,2.4-3.3,0,0,4.9,1,5.8,8,.9,7,7,31.2,7,31.2,4.3,5.8,11.6,32.1,11.6,32.1,0,0,13.8,1.8,15.9,8.3,4.6,12.9-13.5,23.6-13.5,23.6l-18.1-13.8c-10.1-4-11.3-15.6-11.3-15.6v-55.1s0-3.4,0-7.1c.3-.7.8-1.3,1.4-1.4Z"/>
    <circle class="cls-1" cx="141.3" cy="109.4" r="2.7"/>
    <circle class="cls-1" cx="140.9" cy="114.7" r="2.7"/>
    <circle class="cls-1" cx="140" cy="120" r="2.7"/>
    <circle class="cls-1" cx="137.8" cy="124.8" r="2.7"/>
    <path class="cls-1" d="M141.4,101.5c-1,0-1.9.6-2.3,1.4.8.1,2.7.5,5,1.1,0-1.4-1.2-2.5-2.6-2.5Z"/>
    <path class="cls-1" d="M141.4,106.8c1.5,0,2.7-1.2,2.7-2.7s0,0,0-.1c-2.2-.6-4.2-1-5-1.1-.2.4-.3.8-.3,1.3,0,1.5,1.2,2.7,2.7,2.7Z"/>
    <path class="cls-1" d="M133.7,125.5c-1,0-1.8.5-2.3,1.3l4.2,3.2c.5-.5.7-1.1.7-1.8,0-1.5-1.2-2.7-2.7-2.7Z"/>
    <path class="cls-1" d="M131.2,127.9c0,1.5,1.2,2.7,2.7,2.7s1.4-.3,1.9-.8l-4.2-3.2c-.2.4-.4.9-.4,1.3Z"/>
    <path class="cls-1" d="M135.1,142.8c0-2.8-.7-7.5-.9-9.5.2,0,.4-.1.4-.2,0,0,0-.1-.2-.2.3-.2.4-.5.5-.9,0-.4,0-.7-.3-1,.1,0,.2,0,.2-.2,0-.2-.5-.4-1.2-.5-.7,0-1.3,0-1.3.2,0,0,0,.2.2.2-.3.2-.5.6-.5,1,0,.3,0,.7.3.9,0,0-.2,0-.2.1,0,0,0,.2.3.3-1,2.7-4.6,13.1-3.6,18.7,0,0,0,.6.8.8.7.1,1.2.2,1.2.2,0,0-.3-1.4,0-4.6,0,0,.8,4.6,1.2,4.8s.8.2,1.4,0c0,0-.7-1.6-.8-6.3,0,0,1.1,6,1.5,6.3,0,0,0,.1,1.1,0,0,0-1.4-4.3-1.5-9.4,0,0,.7,4.8,2.2,7.2,0,0,.7,0,1.1-.6,0,0-1.7-3.6-1.8-7.2Z"/>
  </g>
  <path class="cls-1" d="M401.2,24.4s0,0,0,0c0-3-2.4-5.4-5.4-5.4s-2.3.4-3.2,1.1c-3.7-1.6-7.4-3.1-11.3-4.3-6.5-1.8-13.1-2.3-19.7-3.7-.5-.1-1-.2-1.5-.3.2-1.3.2-2.7-.3-4.1-1.1-3.2-4-5.6-7.4-5.9s-6.7,1.6-8.3,4.4c-.3-.2-.5-.5-.7-.8-4.4-5.1-3-12.8-.6-18.5,0,0-.9-.4-.9-.4-.7,1.6-1.2,3.2-1.6,4.8-1.5,6.1-.7,11.9,3.4,15.6-.5,1.2-.7,2.4-.7,3.8.2,4.5,4.1,8.1,8.5,8.1s7.3-2.7,8.3-6.3c3.8.8,7.6,1.5,11.4,2.1,2.5.4,4.9.8,7.3,1.4,2.4.6,4.7,1.5,7,2.4,1.4.6,3.5,1.5,5.8,2.7-.9,1.2-1.3,2.7-1,4.4.4,2.1,2.2,3.8,4.4,4.2,2.6.4,5-1,5.9-3.3,2.2,1.5,4.1,3,5.2,4.4s.7,2.2-.2,2.9-.1,0-.2.1c-1.3.8-2.9,1.4-4.4,1.8-3.1.9-6.4,1.6-9.6,2.2-4.7.8-10.1,1.2-14.9,1.4-3.2.2-6.6.4-10,.7-.2-2.6-2.5-4.7-5.2-4.6s-1.5.3-2.1.8c-2.7,2-3,3.5-2.8,4.9-5.1.6-11.7,1.7-13.3,3.8-1,1.6.9,2.9,2.2,3.5,5.4,2.4,11.3,3.5,17,4.9,6.5,1.5,13,2.8,19.5,4.2,1.4.3,2.9.7,4.3,1.1-.5,1.2-.8,2.5-.7,3.8.2,4.5,4.1,8.2,8.6,8.2,1,0,2-.2,2.9-.5-.8,4.4-7.9,5.2-12.1,5.5-8.4.6-16.7,2.2-24.6,5-1-1.4-2.7-2.3-4.7-1.9s-3,1.6-3.5,3.2-.2,2.1.2,2.9c-2.7,2.5-2.5,5.3,5,7.6,11.3,3.2,23.1,3.9,34.7,4.8v-1c-9.9-.4-19.9-1.2-29.7-3.3-3.2-.7-6.5-1.5-9.3-3.2-2.2-1.4-1.7-2.9-.3-4.1.9,1.5,2.7,2.3,4.6,2s3.1-1.5,3.6-3.1.2-2,0-2.9c7.8-2.7,16.1-3.6,24.3-3.8,4.4,0,9.2-.3,12.7-3.3,1.9-1.8,2.5-3.9,2.2-6.2,2-1.9,3.1-4.8,2.5-7.8-.6-3.4-3.3-6.2-6.7-6.8-3-.6-5.8.4-7.7,2.3-1.8-.5-3.6-.9-5.5-1.3-9.4-2-20.1-3.4-29.5-5.3-1.3-.3-9.7-2-8.9-3.8.7-.9,1.9-1.3,2.9-1.7,1.5-.6,3.2-.9,4.8-1.3,1.6-.3,3.2-.6,4.8-.9.5,2.3,2.5,4,5,4s5.1-2.3,5.1-5.1,0-.1,0-.2c5-.5,10-.7,15-.7,5.6-.1,24.3-1.9,26.5-6.5,1.7-2.3-3.9-6.7-7.1-8.6Z"/>
  <path class="cls-1" d="M14,18.8c0,4.9-3.9,8.8-8.8,8.8s-8.8-3.9-8.8-8.8S.3,10,5.2,10s8.8,3.9,8.8,8.8ZM42.7,12.4c-14.3,0-25.8,11.6-25.8,25.8s11.6,25.8,25.8,25.8,25.8-11.6,25.8-25.8-11.6-25.8-25.8-25.8Z"/>
  <g>
    <path class="cls-1" d="M193.3,36.2c-1.7-1.1-3.3-2.2-4.9-3.3-4.1-2.8-8.2-5.6-12.3-8.4-1.4-1-2.2-3.1-1.8-4.9.5-1.8,2-3.2,3.8-3.5,1.9-.3,3.4.4,4.5,2,3.7,5.4,7.4,10.9,11,16.3.6.9.7.6-.1,1.5,0,0-.1.2-.2.3Z"/>
    <path class="cls-1" d="M191.9,35c-1.1-.8-2.3-1.5-3.4-2.3-3-2.1-6.1-4.1-9.1-6.2l-3.2-2.2c-1.4-.9-2.1-2.9-1.7-4.6.4-1.7,1.9-3.1,3.6-3.3.3,0,.5,0,.8,0,1.5,0,2.6.6,3.5,1.9,1.5,2.2,3,4.5,4.5,6.7,2.2,3.2,4.3,6.4,6.5,9.6,0,.1.2.2.2.3,0,.1.2.2.2.3,0,0-.1.2-.3.4l-.2.3s0,0-.1.1l-1.3-.9Z"/>
    <path class="cls-1" d="M195.8,42.9c-.2,1-.4,2-.6,3-1.2,5.5-2.3,10.9-3.5,16.4,0,.3-.2.7-.3,1-.6,2.3-2.7,3.7-5.1,3.4-2.2-.3-3.9-2.3-4-4.6,0-.9.2-1.7.7-2.5,2.1-3.3,4.3-6.5,6.4-9.8,1.6-2.4,3.2-4.8,4.8-7.2.2-.3.3-.3.6-.2.3.2.6.2.9.4Z"/>
    <path class="cls-1" d="M187,66.5c-.2,0-.4,0-.6,0-2-.2-3.7-2.2-3.8-4.4,0-.8.2-1.6.7-2.4l1.3-2.1c1.7-2.6,3.4-5.2,5.1-7.7.8-1.3,1.7-2.5,2.5-3.8.8-1.1,1.5-2.2,2.3-3.4,0,0,.1-.2.2-.2s0,0,.2,0c.2.1.4.2.6.3,0,0,0,0,.1,0l-.2.8c-.1.7-.3,1.4-.4,2-1.2,5.5-2.3,10.9-3.5,16.4,0,.3-.2.7-.3,1-.5,2-2.2,3.2-4.3,3.2Z"/>
    <path class="cls-1" d="M199.3,42.2c.3-.3.6-.7,1-1,0,0,.2.1.4.2,5.6,3.8,11.1,7.6,16.7,11.3,2.1,1.4,2.6,4.5,1,6.5-1.6,2.1-4.7,2.7-7.1.6-.2-.2-.4-.5-.6-.7-3.8-5.6-7.6-11.2-11.4-16.8,0,0,0-.1,0-.1Z"/>
    <path class="cls-1" d="M214.7,61c-1.1,0-2.2-.4-3.1-1.3-.2-.1-.3-.3-.4-.6l-11.4-16.9.7-.7c0,0,.1,0,.2.1,1.6,1.1,3.2,2.2,4.7,3.2,3.9,2.7,8,5.4,12,8.1.9.6,1.6,1.7,1.8,2.8.2,1.2,0,2.4-.8,3.4-.9,1.1-2.2,1.8-3.6,1.8Z"/>
    <path class="cls-1" d="M199.3,35.1c1.6-2.4,3.3-4.8,4.9-7.2,2.3-3.3,4.6-6.7,6.9-10,1.1-1.6,2.8-2.2,4.7-1.7,1.9.4,3.1,1.6,3.5,3.5.4,1.8,0,3.5-1.6,4.6-2.9,2.1-5.9,4.1-8.9,6.1-2.6,1.8-5.3,3.5-7.9,5.3-.6.4-.6.4-1.1-.1-.1-.1-.3-.3-.5-.4Z"/>
    <path class="cls-1" d="M200.3,35.7c0,0-.2-.1-.4-.3-.1,0-.3-.3-.3-.3l1.4-2.1c1.1-1.7,2.3-3.3,3.4-5,2.2-3.3,4.6-6.7,6.9-10,.8-1.2,1.9-1.8,3.3-1.8s.8,0,1.2.1c1.8.4,3,1.6,3.3,3.3.3,1.3.2,3.1-1.5,4.4-3.1,2.1-6.2,4.3-8.9,6.1-2,1.3-3.9,2.6-5.9,4l-2,1.3c-.2.1-.3.2-.4.2Z"/>
    <path class="cls-1" d="M211.1,61.9c0,2.2-1.4,4-3.3,4.6-2,.6-4.2-.2-5.3-2-.5-.8-.6-1.7-.8-2.6-1.3-6.2-2.6-12.5-3.9-18.7,0-.3,0-.4.3-.5.9-.3.9-.3,1.4.5,3.6,5.4,7.2,10.9,10.8,16.4.5.8.9,1.6.8,2.4Z"/>
    <path class="cls-1" d="M206.4,66.5c-1.6,0-2.9-.8-3.7-2.1-.4-.7-.6-1.6-.8-2.5-.8-3.7-1.5-7.4-2.3-11.1-.5-2.5-1-5.1-1.6-7.6q0-.2.1-.2c.3-.1.5-.2.7-.2s.2.1.5.6c3.6,5.4,7.2,10.9,10.8,16.3.4.6.9,1.4.8,2.2,0,2.1-1.3,3.9-3.2,4.4-.4.1-.9.2-1.3.2Z"/>
    <path class="cls-1" d="M195.8,34.4c-.4.2-.8.3-1.2.5,0,0-.1-.1-.2-.2-3.7-5.6-7.4-11.2-11.2-16.8-.7-1.1-1.1-2.3-.9-3.6.3-1.9,2.1-3.6,4-3.8,1.9-.2,3.4.5,4.4,2,.4.7.7,1.5.8,2.3,1.2,5.8,2.4,11.6,3.7,17.4.1.7.3,1.4.5,2.1Z"/>
    <path class="cls-1" d="M194.7,34.7s0,0,0,0l-3.2-4.8c-2.7-4-5.3-8-8-12-.8-1.1-1-2.2-.8-3.4.3-1.8,2-3.4,3.8-3.6.2,0,.4,0,.6,0,1.5,0,2.8.7,3.6,1.9.4.6.6,1.5.8,2.2.9,4.3,1.8,8.7,2.7,13l.9,4.4.4,2-.9.4Z"/>
    <path class="cls-1" d="M196.8,8.7c2.5-.1,4.4,2,4.6,3.8,0,.8-.1,1.7-.3,2.5-1.2,6.3-2.4,12.6-3.6,18.9,0,.2-.1.5-.2.5-.4,0-.7,0-1.1,0,0,0-.1-.2-.1-.3-1.2-6.2-2.5-12.5-3.7-18.7-.2-1.1-.5-2.1-.1-3.2.6-2,2.4-3.5,4.5-3.4Z"/>
    <path class="cls-1" d="M196.9,34.2c-.2,0-.3,0-.5,0,0,0,0,0,0-.1l-.6-2.8c-1.1-5.3-2.1-10.6-3.1-15.9v-.3c-.2-1-.4-1.9-.1-2.9.6-1.9,2.3-3.3,4.1-3.3s.2,0,.2,0c.1,0,.2,0,.3,0,2.2,0,4,1.9,4.1,3.6,0,.7,0,1.5-.2,2.3v.2c-1.2,6.3-2.4,12.6-3.6,18.9,0,.2,0,.3,0,.3-.1,0-.2,0-.4,0Z"/>
    <path class="cls-1" d="M168.7,48.2c-.1-1.7,1.3-4,3.6-4.5,5.2-1,10.4-2.1,15.5-3.2,1.5-.3,2.9-.6,4.4-.9.3,0,.5,0,.6.3.3.8.3.8-.4,1.3-5.4,3.5-10.8,7.1-16.2,10.6-.8.5-1.6.9-2.5,1-2.6.2-5-2.1-4.9-4.7Z"/>
    <path class="cls-1" d="M173.3,52.8c-1.2,0-2.3-.5-3.2-1.4-.8-.9-1.3-2-1.2-3.1-.1-1.7,1.3-3.8,3.4-4.3,3.4-.7,6.8-1.4,10.2-2.1l5.4-1.1c.6-.1,1.1-.2,1.7-.3.9-.2,1.8-.4,2.7-.5,0,0,.1,0,.1,0,0,0,0,0,.2.2q.2.7-.3,1c-5.4,3.5-10.8,7.1-16.2,10.6-.9.6-1.6.9-2.4,1,0,0-.2,0-.3,0Z"/>
    <path class="cls-1" d="M193.3,41.2c.3.3.6.6.9.9-.2.2-.3.5-.5.7-3.6,5.3-7.3,10.7-10.9,16-.7,1-1.6,1.9-2.8,2.2-1.9.5-3.8-.2-5-1.8-1.1-1.5-1.2-3.6-.2-5.1.4-.6.9-1.1,1.5-1.4,5.5-3.7,10.9-7.4,16.4-11,.2-.1.4-.3.6-.4Z"/>
    <path class="cls-1" d="M178.8,61c-1.4,0-2.7-.7-3.6-1.9-1.1-1.4-1.1-3.4-.2-4.9.3-.5.8-1,1.4-1.4,4.2-2.8,8.4-5.7,12.6-8.5l3.8-2.6.4-.3.6.6s-.3.4-.4.5l-2.9,4.3c-2.7,3.9-5.3,7.8-8,11.8-.8,1.2-1.6,1.8-2.7,2.1-.4,0-.8.1-1.1.1Z"/>
    <path class="cls-1" d="M224.8,29c0,2.2-1.4,4-3.6,4.5-6.6,1.4-13.2,2.7-19.9,4.1-.3,0-.4,0-.5-.3-.3-.9-.3-.9.5-1.4,5.4-3.5,10.7-7.1,16.1-10.6,1.1-.7,2.2-1.1,3.4-.9,2.1.3,4,2.2,3.9,4.7Z"/>
    <path class="cls-1" d="M201.2,37.3s0,0-.1-.1q-.2-.7.4-1.1l5.1-3.4c3.7-2.4,7.3-4.8,11-7.2,1-.6,1.8-.9,2.7-.9s.4,0,.6,0c1.9.3,3.8,2.1,3.7,4.4,0,2.1-1.4,3.8-3.4,4.2-4.1.9-8.2,1.7-12.4,2.5l-7.5,1.5s0,0,0,0Z"/>
    <path class="cls-1" d="M200.5,40.8c.2-.4.3-.8.5-1.2,1,.2,2.1.4,3.1.6,4.8,1,9.6,2,14.4,2.9,1,.2,2,.5,3,.7,1.9.4,3.3,2.6,3.3,4.3,0,2.4-1.8,4.2-3.4,4.6-1.2.3-2.4.2-3.6-.5-5.7-3.8-11.4-7.5-17.1-11.3,0,0-.1-.1-.2-.2Z"/>
    <path class="cls-1" d="M220,52.7c-.8,0-1.5-.2-2.1-.6-4.1-2.7-8.2-5.4-12.3-8.2l-4.7-3.1s0,0,0,0l.3-.8h.8c.7.3,1.4.4,2.1.6,4.8,1,9.6,2,14.4,2.9.5.1,1,.2,1.5.3.5.1,1,.2,1.5.3,1.8.4,3.1,2.5,3.1,4.1,0,2.3-1.7,4-3.3,4.4-.5.1-.9.2-1.3.2Z"/>
    <path class="cls-1" d="M193,36.6c-.2.4-.3.7-.4,1.1-1.5-.3-2.9-.6-4.4-.9-4.9-1-9.7-2-14.6-3-.7-.1-1.4-.3-2-.5-1.5-.4-2.8-2.2-2.9-3.8-.1-2.4,1-4.2,3.1-5,1.3-.4,2.5-.4,3.7.4,2,1.3,4.1,2.6,6.1,4,3.6,2.4,7.3,4.9,10.9,7.3.1,0,.3.2.4.3Z"/>
    <path class="cls-1" d="M191.2,37.1c-1-.2-2-.4-3-.6-4.9-1-9.7-2-14.6-3-.7-.2-1.4-.3-2-.5-1.4-.4-2.7-2.1-2.7-3.5-.1-2.3,1-4,3-4.7.5-.2,1-.3,1.5-.3.7,0,1.4.2,2.1.6.8.5,1.5,1,2.3,1.5,1.3.8,2.6,1.6,3.8,2.5,2.7,1.8,5.3,3.5,7.9,5.3l3,2c0,0,.2.1.3.2h0s-.3.7-.3.7l-1.3-.2Z"/>
    <path class="cls-1" d="M211.1,15.3c0,.7-.1,1.3-.5,1.9-1.8,2.8-3.5,5.5-5.3,8.2-2,3-4,6-6,9-.1.2-.3.4-.4.4-.3,0-.6-.2-.9-.4,0,0,0-.2,0-.3,1.3-6.6,2.7-13.3,4-19.9.4-2,1.9-3.4,3.8-3.7,3.5-.4,5.5,2.3,5.4,4.7Z"/>
    <path class="cls-1" d="M198.8,34.6c-.2,0-.5-.2-.7-.3,0,0,0,0,0,0l.9-4.4c1-5.2,2.1-10.4,3.2-15.6.4-1.9,1.8-3.3,3.6-3.5.2,0,.5,0,.7,0,1.6,0,2.7.7,3.3,1.4.8.9,1.3,2,1.2,3.2,0,.6-.1,1.2-.5,1.8l-1.2,1.9c-1.4,2.1-2.7,4.3-4.1,6.4-1.5,2.3-3.1,4.7-4.7,7l-1.3,2c-.1.2-.2.3-.2.3Z"/>
    <path class="cls-1" d="M192.5,39.2c-1.4.3-2.8.6-4.2.8-5.1,1-10.1,2-15.2,2.9-.6.1-1.2.3-1.8.3-1.3.1-2.3-.4-3.2-1.3-1.4-1.4-1.8-3-1.2-4.8.6-1.9,2-3,3.9-3.2.9,0,1.7.2,2.6.3,5.7,1.1,11.3,2.2,16.9,3.3.5.1,1.1.2,1.6.3.4,0,.6.2.5.6,0,.2,0,.4,0,.7Z"/>
    <path class="cls-1" d="M171,43.1c-1,0-1.8-.4-2.7-1.2-1.3-1.3-1.7-2.9-1.2-4.6.6-1.8,1.9-2.9,3.7-3,.1,0,.2,0,.3,0,.6,0,1.2.1,1.8.2h.5c4,.9,8.1,1.7,12.1,2.4l5.2,1c.4,0,.8.2,1.3.2.3,0,.3.1.3.3,0,.2,0,.3,0,.5h0c0,0-1.1.3-1.1.3-.9.2-1.9.4-2.8.6-5.1,1-10.1,2-15.2,2.9h-.4c-.5.2-.9.3-1.4.3-.1,0-.2,0-.3,0Z"/>
    <path class="cls-1" d="M226.7,38.7c.2,2-1.7,4.6-4.5,4.6-.8,0-1.6-.3-2.4-.4-5.2-1-10.4-2-15.6-3-1-.2-1.9-.4-2.9-.6-.1,0-.3-.2-.3-.3-.1-1,0-1,.9-1.1,4.6-.9,9.3-1.8,13.9-2.7,1.9-.4,3.8-.7,5.7-1,2.8-.4,5.3,2.1,5.1,4.6Z"/>
    <path class="cls-1" d="M222.3,43.1c-.5,0-1.1-.1-1.7-.3-.2,0-.4-.1-.7-.1-4.4-.9-8.8-1.7-13.3-2.6l-2.8-.6c-.8-.2-1.6-.3-2.4-.5,0,0,0,0-.1-.1q0-.7.7-.9l5.8-1.1c2.7-.5,5.5-1.1,8.2-1.6h.4c1.7-.4,3.6-.8,5.3-1,.2,0,.4,0,.6,0,1.1,0,2.3.5,3.1,1.4.8.9,1.2,2,1.1,3,0,1-.3,2.1-1.1,3-.8.9-1.9,1.4-3.1,1.4h0Z"/>
    <path class="cls-1" d="M196.2,43c0,0,0,0,.1,0,1,0,1,0,1.1.9.9,4.7,1.9,9.3,2.8,14,.4,2.1.8,4.2,1.1,6.2,0,.4,0,.8-.1,1.2-.6,2.1-2.5,3.5-4.9,3.4-2,0-3.8-1.7-4.2-3.9-.2-1,0-1.9.2-2.9,1.2-6,2.4-12,3.6-18.1,0-.3,0-.6.1-.9Z"/>
    <path class="cls-1" d="M196.4,68.4c-1.9,0-3.6-1.6-4-3.7-.2-.8,0-1.6.2-2.4v-.3c.9-4.3,1.8-8.6,2.7-12.9l1-5.2c0-.2,0-.4.1-.6h0c.2-.2.3-.2.5-.2q.2,0,.4.7l1,5c.6,3,1.2,6,1.8,9,.4,1.8.7,3.7,1.1,6.2,0,.3,0,.7,0,1.1-.5,2-2.3,3.3-4.5,3.3s-.1,0-.2,0Z"/>
    <path class="cls-1" d="M196.9,42.2c-1.9.1-3.6-1.4-3.7-3.5-.1-1.9,1.4-3.6,3.4-3.7,1.8-.1,3.8,1.1,3.9,3.5,0,2.2-1.7,3.7-3.5,3.7Z"/>
    <path class="cls-1" d="M196.6,42c-1.7,0-3.2-1.5-3.3-3.3-.1-1.7,1.3-3.3,3.2-3.5,0,0,.2,0,.3,0,1.6,0,3.3,1.2,3.4,3.3,0,.9-.3,1.8-.9,2.4-.6.6-1.5,1-2.4,1,0,0-.2,0-.2,0Z"/>
  </g>
  <polygon class="cls-1" points="493.4 58.1 463.8 58.1 458.4 75.8 498.7 75.8 493.4 58.1"/>
  <polygon class="cls-1" points="499.6 78.6 457.6 78.6 452.5 95.3 504.7 95.3 499.6 78.6"/>
  <polygon class="cls-1" points="478.6 9.2 470.9 34.7 486.3 34.7 478.6 9.2"/>
  <polygon class="cls-1" points="487.2 37.6 470 37.6 464.6 55.2 492.5 55.2 487.2 37.6"/>
  <polygon class="cls-1" points="451.6 98.1 446.3 115.8 510.9 115.8 505.5 98.1 451.6 98.1"/>
  <polygon class="cls-1" points="445.7 118.3 439.2 136 518 136 511.5 118.3 445.7 118.3"/>
</svg>