<?xml version="1.0" encoding="UTF-8"?>
<svg id="_レイヤー_1" data-name="レイヤー 1" xmlns="http://www.w3.org/2000/svg" version="1.1" viewBox="0 0 500 154">
  <defs>
    <style>
      .cls-1 {
        fill: #a44a71;
      }

      .cls-1, .cls-2, .cls-3, .cls-4, .cls-5, .cls-6, .cls-7, .cls-8, .cls-9, .cls-10, .cls-11, .cls-12, .cls-13 {
        stroke-width: 0px;
      }

      .cls-2 {
        fill: #f3e2e5;
      }

      .cls-3 {
        fill: #413833;
      }

      .cls-4 {
        fill: #6882bb;
      }

      .cls-5 {
        fill: #7e6559;
      }

      .cls-6 {
        fill: #beb6b7;
      }

      .cls-7 {
        fill: #53797a;
      }

      .cls-8 {
        fill: #faf5dd;
      }

      .cls-9 {
        fill: #d3a271;
      }

      .cls-10 {
        fill: #fefefe;
      }

      .cls-11 {
        fill: #db404e;
      }

      .cls-12 {
        fill: #5c6645;
      }

      .cls-13 {
        fill: #86845e;
      }
    </style>
  </defs>
  <path class="cls-2" d="M25.2.4h213.9c-.5.5-1.1.4-1.7.3-1.2-.2-1.4.4-1.4,1.4,0,1.9,0,3.8,0,5.7,0,1.3-.3,1.6-1.6,1.6-6.9,0-13.8,0-20.7-.1-1.6,0-1.9.4-1.9,1.9,0,4,0,8.1,0,12.1,0,0,0,0,0,0-1.1.2-2.1.5-2.9,1.3h0c-.1,0-.2.2-.3.3,0,0,0,0,0,0-.1.1-.2.2-.3.3,0,0,0,0,0,0-.1.1-.2.2-.3.3,0,0,0,0,0,0-.1.1-.2.2-.3.3,0,0,0,0,0,0-.2.1-.4.3-.3.6h0c-.2,0-.3.1-.3.3h0c-.1.2-.2.4-.3.6h0c-.8,1.7-1,3.4,0,5.1h0c0,.4.1.7.2,1-.6.3-.5.9-.5,1.5,0,10.8,0,21.6,0,32.4,0,3.7,3.2,6.9,6.8,6.8,3.7,0,6.7-3.2,6.7-7,0-11.6,0-23.3,0-34.9,0-.5.2-1.1-.2-1.6-.1-1.1.1-2.3-.6-3.3h0c-.1-.2-.2-.4-.3-.6,0,0,0,0,0,0-.1-.1-.2-.2-.3-.3,0,0,0,0,0,0,0-.3-.1-.5-.3-.6-.7-1.4-2.3-1.7-3.4-2.6,0-2.9,0-5.9,0-8.8,0-1.3.3-1.7,1.7-1.7,13.2,0,26.4,0,39.6,0,1.4,0,1.7.4,1.7,1.7,0,21.4,0,42.9,0,64.3,0,.5,0,1,0,1.5-1.4,1.8-1.4,3.2,0,4.2,0,6.3,0,12.6,0,18.9-45.1,0-90.3,0-135.4,0,0-.6,0-1.2,0-1.8,0-11.8,0-23.6,0-35.4,0-1.6-.7-2.3-2-2.1-1.2.2-1,1.2-1,2.1-.9.3-.5,1.1-.5,1.7,0,11.9,0,23.7,0,35.6-31.3,0-62.5,0-93.8,0,0-34.3,0-68.6,0-103ZM114.5,62.7s0,0,0,0c0-.4,0-.8.4-.9.9-.2,1-.8.7-1.6.3-.2.5-.4.2-.8.1-.8.5-1.7-.2-2.1-.4-.3-1.4-.3-1.9,0-.7.3-.5,1.2-.4,1.9,0,.2,0,.5,0,.7.1.2.2.3.3.5-.1.9.1,1.8-.2,2.7.4-.4.8-.2,1.2-.3ZM120,54.9c-.2.7-1.5.7-1.1,1.7.5,1.1,0,2.1-.5,3.1.7-.6,1.3-.5,2.1-.1.7.3,1.6.5,2.4,0-.5-.6-1.7.2-1.8-.7-.1-.9,1.2,0,1.4-.8-.4-.5-1.2.2-1.5-.6.7-.2,1.9,0,1.4-1.1-.3-.9-.2-1.7-.1-2.6,1-.9.1-1.9,0-2.7-.2-1.3-.8.9-1.2,0,0-.3-.2-.5-.5-.5,0,.2,0,.4,0,.5-.3.1-.5,0-.7-.1-1.1-1.2-1,.4-1.5.7.7.6-.1,1.3.2,1.9.3.5,0,.9-.2,1.3.6,0,1.2-.3,1.7.1ZM119.8,40.7c-.9.3-1.3,1-1.2,1.8.2,1-.7,2,.2,3.1.3.4,0,1.9-.2,2.8-.1.5-.3,1-.4,1.5.7.2,1.2-.5,1.8-.2.5.8.8.5,1-.2.1-.3-.2-1,.4-1,1.2,0,.9-.9.8-1.5,0-.5.1-.8.6-1.3h-3.7c.9-.4.8-1,.6-1.7.2,0,.5,0,.5,0,.2.9.6,1.5,1.6.9.1,0,.3.3.4.1.4-.5-.9-.7-.1-1.1.8-.3.4-.8.3-1.2-.2-.9-1.1-1.6-2.9-2.1ZM115.8,54.3c-.3-.5-1,0-1-.7,0-.7.3-.7.8-.6.4,0,.3-.2.4-.5.3-1-.5-1.1-1.1-1.2-.6-.1-1.3,0-1.5.5-.2.4-.4,1.3.7,1.2.3,0,.4.2.4.5,0,.2,0,.6-.3.6-1.4,0-.8,1.1-.8,1.8,0,.3-.3,1,.5,1,.7,0,1.6.3,1.9-.3.1-.2.4-1.2-.2-1.7-.1-.1-.5.2-.4-.2,0,0,.4,0,.8-.2Z"/>
  <path class="cls-2" d="M463.8.4h10.5c0,33.8,0,67.6,0,101.3,0,.5,0,1.1,0,1.6-70.9,0-141.8,0-212.7,0,0-6.2,0-12.4,0-18.5,0-.1,0-.3,0-.4h0c.3-.1.3-.3.3-.6h0c.2,0,.3-.2.3-.5h0c.4-.5.5-1.1,0-1.6h0c0-.2,0-.5-.3-.6h0c0-.3,0-.5-.3-.6h0c0-.1,0-.3,0-.4,0-2.9,0-5.8-.1-8.7,0-16.8,0-33.5,0-50.3,0-3.5,0-6.9,0-10.4,0-1.1-.2-1.6-1.5-1.5-1.5.1-3.1,0-4.7,0-4.8,0-9.6,0-14.4,0-.7,0-1.4,0-1.4-1,.1-2.6-.2-5.3.2-7.9h215.1c0,2.6,0,5.2,0,7.8,0,.5,0,1-.5,1.3-.3.2-1.1,0-.8.8.3.5.9.4,1.4.3,1.3-.3,2.5-.5,3.8-.8.4,0,1.1,0,1-.6-.1-.7-.8-.3-1.3-.2-3.3.4-2.6,1.1-2.8-2.3,0-1.4.6-1.6,1.7-1.5.8,0,1.1.6,1.3,1.2,1.1,2.1,2.9,3.3,5.1,4.1.4.2,1.1.3,1.3-.2.2-.6-.6-.5-.9-.6-.6-.3-1.3-.5-1.9-.9-.7-.4-1.1-.8,0-1.3.7-.3,1.3-.8,1.9-1.2,1-.7.4-.9-.3-1.1h0c0-1.6,0-3.2,0-4.8ZM293.4,65.9c.4.9,1.3,1,2.1,1.1,3.8.3,7.3-2.8,7.3-6.7,0-12.6,0-25.2,0-37.8,0-.4,0-.8-.2-1.1.7-3.2-.3-6-2.9-7.6-2.4-1.6-5-1.6-7.5,0-2.8,1.8-3.5,4.5-2.9,7.7,0,.2,0,.4,0,.6,0,12.5,0,25,0,37.5,0,1.2.3,2.5.9,3.6.9,1.1.8,2.1-.5,3.2,1.7,0,1.7-.1,2.7.8.4.4.6.2.7-.2.1-.4,0-.8.2-1.1ZM331.1,24.7c0-.3.2-.6.3-.9.7-2.6,0-4.9-1.8-6.7-1.8-1.8-4.1-2.4-6.6-1.7-3.5.9-5.4,4.1-4.9,8.1-.3.4-.2.9-.2,1.3.3,13.6-.7,27.2.6,40.8-.1.1-.5.3-.3.4,1.2.8.8,1.9.3,3.2,1.2-.7,2.1-.9,3,.1.3.4.3-.2.4-.5,5,2.3,9.3-1.6,9.6-5.8,0-.9,0-1.8,0-2.7,0-11.3,0-22.6,0-33.9,0-.6.2-1.2-.2-1.7ZM349.4,70.3c.6,1.2,0,2.2-.7,3.2,1.6-.5,2.1.7,2.6,1.8.2-.7.4-1.2.6-1.7,1.4.6,2.8,1.2,4.5.8,3.3-.9,5.6-3.7,5.6-7.2,0-12.5,0-25.1,0-37.6,0-.5.2-1.1-.2-1.6.7-5.6-4.5-9.2-9.3-7.4-3.4,1.3-4.8,4.5-4,8.8,0,12.7,0,25.5,0,38.2,0,1,.1,2,.9,2.8ZM404.6,44.5c-.4.4-.2.9-.2,1.4,0,12.2,0,24.4,0,36.6,0,.8.1,1.6.3,2.4,1,3.6,4.7,5.8,8.2,4.9,2.7-.7,5-3.8,5-6.9,0-11.8,0-23.6,0-35.4,0-.7,0-1.5,0-2.2.5-1.8.5-3.6-.4-5.4-1.6-3-5-4.4-8.2-3.4-3.3,1.1-5.1,4.2-4.5,8.1ZM374.3,74c0-.3,0-.7-.5-.8-1.5-.3-3.1-.3-4.6.2.7.4.8.4.4.8-.2.2-.3.3-.1.4.9.2.5,2,1.9,1.6-.7,0-1.3,0-2,.1,0,.7.7.3,1,.6-.3.4-.9.2-1,.8.9.3,1.4-.5,2.1-.6.3,1.1.3,1.1-.7,1-.3,0-.4.1-.5.3-.3.7-1.5,1.1-.5,2.2.4.4-.1.9-.7,1.3.6,0,1.1,0,1.5,0-.3.7-1.2.4-1.4,1.1q1,0,2.2-.7c.3.2-.1.8.5,1,.1-.8.5-1.1,1.2-.5.3.2.7.4,1.1.3.6,1.1.3,2.4.3,3.5,0,1.4.6,1.9,1.9,1.9,5.4,0,10.7,0,16.1,0,1.7,0,2.2-.4,2.2-2.1,0-20.3,0-40.6,0-60.9,0-1.8-.3-2.1-2.1-2.1-5.2,0-10.4,0-15.6,0-2.3,0-2.4,0-2.4,2.4,0,13.3,0,26.5,0,39.8,0,.6.3,1.3-.4,1.8h-4.9c1.8.7,2,1,1.4,2.8-.2.8-.8,1.3-1.3,1.9,1.2,0,1.6-.9,1.9-1.8.3-1,.9-.6,1.4-.6.7,0,.4.6.4,1,.1,1-.6,1.1-1.6,1.2.3.3.4.4.6.4,1.3.3,1.5-.6,1.6-1.6,0-.8.4-1.9-1.2-1.7-.4,0-1,.2-1-.5,0-.9.6-.6,1.1-.6.5,0,1.1,0,1.6,0,.7,2,.4,4.1,0,6.2ZM465.3,19.3c-.8-.3-1.6-.3-1.5-1.3,0-.2-.1-.4-.4-.4-.2,0-.4,0-.4.3,0,1.4-1,1.1-1.8,1.1q-4,0-4-4.1c0-2.4.3-2.2-2.1-2.2-2.1,0-2.1,0-2.1,2.1,0,1,0,1.9,0,2.9,0,1.6,0,3.1,0,4.7,0,.3,0,.6.3.8.1,0,.4,0,.4,0,.4-1.6,1.6-.9,2.6-1,.5,0,1,0,.9-.7-.3-1.8.8-1.8,2.1-1.7.8,0,1.7,0,2.6,0,.3,0,.8-.1,1,.3.3,1.1.2,2.3.1,3.4,0,.8-.9.4-1.4.5-.2,0-.5,0-.6.3,0,.2,0,.4.2.5,1.1.6,2.6-.2,2.7-1.4,0-.6,0-1.2,0-1.8,0-1.1,0-2,1.5-2.1ZM464,38.8c1.6,0,1.5-1.1,1.8-2,.1-.5.3-1-.3-1.1-.6-.1-.3.6-.4.9-.2.5-.2,1.1-.8,1.2-.6.2-.9-.4-1.2-.8-1.3-1.5-1.5-3.4-1.9-5.3-.1-.6.4-.7.9-.7.9,0,1.9-.2,2.8-.3.3,0,.7,0,.7-.4,0-.5-.4-.5-.8-.5-.8,0-1.7,0-2.5.2-.6.1-1.4.4-1.4-.7,0-.9-.2-1.8-.3-2.7,0-.3.3-.8-.4-.7-.5,0-.6.4-.5.7,0,.8,0,1.6.1,2.4.4,1.2-.2,1.4-1.2,1.4-.5,0-1,0-1.5.2-.3.2-.5.3-.4.7,0,.3.4.3.6.3.3,0,.7-.2,1-.2,1-.2,1.8-.1,1.9,1.3.2,1.5.6,2.9,1.4,4.2.5.9,1.3,1.7,2.3,1.9ZM454.8,31.1c0,.3,0,.5,0,.7,0,2,0,4.1,0,6.1,0,.3,0,.8.5.7.4,0,.4-.4.4-.7,0-.8,0-1.6,0-2.4.2-2.9-.7-5.9,1.1-8.6.2-.3.2-.6-.2-.7-.5-.1-.6.3-.7.6-.4,1.4-1.4,2.5-2.1,3.8-.4.6-1.5,1.5-1,1.9.9.6,1.1-.9,2-1.4ZM464.9,14c0-.2,0-.3,0-.3-.1,0-.3-.1-.4-.2-1.1,0-2.6.5-2.5-1.5,0,0-.2-.2-.3-.2-.3,0-.5.2-.4.5.1,1.4-.8,1.2-1.6,1.2-.4,0-.9-.2-1.3.4.6.4,1.3.2,1.9.2.8,0,1,.4,1,1.1,0,.8-.3,1-1.1,1-.8,0-1.6-.2-2.3.4,2.6.2,5.2.4,7.7,0-.8-.5-1.7-.3-2.5-.3-.8,0-.9-.4-.9-1.1,0-.6.1-1.1.9-1.1.6,0,1.3.2,2-.2ZM462.6,26.2c-.3.1-.5.3-.3.6.6.7,1.3,1.2,2.1,1.6.2.1.5,0,.5-.3,0-.4-1.9-2-2.3-1.9ZM460.1,23.1c.4,0,.6-.2.6-.4,0-.5-1.2-2-1.7-2.1-.2,0-.5,0-.5.2.5.8,1.1,1.6,1.6,2.3Z"/>
  <path class="cls-11" d="M239.7.4c-.4,2.6,0,5.3-.2,7.9,0,1.1.6,1,1.4,1,4.8,0,9.6,0,14.4,0,1.6,0,3.1,0,4.7,0,1.2,0,1.5.4,1.5,1.5,0,3.4,0,6.9,0,10.4,0,16.8,0,33.5,0,50.3,0,2.9,0,5.8.1,8.7-.2,0-.4,0-.5.1-1,0-2,0-3.1,0,0-.5,0-1,0-1.5,0-21.4,0-42.9,0-64.3,0-1.4-.3-1.7-1.7-1.7-13.2,0-26.4,0-39.6,0-1.3,0-1.7.3-1.7,1.7,0,2.9,0,5.9,0,8.8,0,.1-.1.2-.2.3-.2,0-.5,0-.7,0-.7-.5-1.4-.1-2.1-.2,0-4,0-8.1,0-12.1,0-1.5.3-1.9,1.9-1.9,6.9.1,13.8,0,20.7.1,1.2,0,1.7-.3,1.6-1.6-.1-1.9,0-3.8,0-5.7,0-1.1.1-1.6,1.4-1.4.5,0,1.2.2,1.7-.3h.6Z"/>
  <path class="cls-10" d="M25.2.3v103c0,16.7,0,33.4,0,50.1h-.6c0-50.6,0-101.1,0-151.7,0-.4-.7-1.4.6-1.4Z"/>
  <path class="cls-10" d="M475,153.4h-.3c0-51,0-102,0-153,0,0,.3-.1.3.2,0,.4,0,.8,0,1.2,0,50.6,0,101.1,0,151.7Z"/>
  <path class="cls-10" d="M463.8,5.2c.7.2,1.3.4.3,1.1-.6.4-1.2.9-1.9,1.2-1,.5-.7.9,0,1.3.6.3,1.3.6,1.9.9.4.2,1.1,0,.9.6-.2.6-.9.4-1.3.2-2.2-.8-4-2-5.1-4.1-.3-.6-.5-1.2-1.3-1.2-1.1,0-1.8.1-1.7,1.5.2,3.3-.5,2.7,2.8,2.3.5,0,1.1-.4,1.3.2.1.6-.6.5-1,.6-1.3.3-2.5.5-3.8.8-.5,0-1.1.3-1.4-.3-.4-.7.5-.6.8-.8.5-.3.5-.8.5-1.3,0-2.6,0-5.2,0-7.8h.9c-.2,1.1.2,1.6,1.5,1.5,1.4-.1,2.9-.1,4.3,0,1.2,0,1.6-.4,1.5-1.5h.9c0,1.6,0,3.2,0,4.8-1,0-2.1,0-3.1,0-.4,0-1-.2-1.2.2-.2.4.2.8.4,1.2.3.6.7.7,1.3.4,1-.5,1.9-1.1,2.6-1.9ZM459.2,4.3c.9,0,1.9,0,2.8,0,.6,0,.9-.3.9-.9,0-.6-.2-.9-.9-.9-1.8,0-3.6,0-5.4,0-.7,0-1,.3-1,1,0,.7.4.8.9.8.8,0,1.7,0,2.5,0Z"/>
  <path class="cls-2" d="M462.9.4c.2,1.1-.2,1.6-1.5,1.5-1.4-.1-2.9-.1-4.3,0-1.2,0-1.6-.4-1.5-1.5h7.2Z"/>
  <path class="cls-8" d="M257.4,120.7c-1,.9-.7,1.8,0,2.7,0,.4.3.7.6.9,0,9.7,0,19.4,0,29h-76.1c0-.4,0-.9.2-1.2,1-1.2,1-2.4,0-3.7-.3-3.1-.1-6.2-.1-9.3,0-4.7,0-9.5,0-14.2.4-.2.6-.4.6-.9.5-.7.5-1.3,0-2,0-.3-.2-.4-.5-.5-.1-.2-.3-.3-.5-.5,0-.1,0-.2,0-.4,0-4.1,0-8.2,0-12.3,0-1.4-.4-1.6-1.7-1.6-18.1,0-36.1,0-54.2,0s-3.5,0-3.3-3.6c45.1,0,90.3,0,135.4,0,0,5.5,0,11,0,16.5-.2.1-.3.4-.3.6-.2,0-.3.1-.3.3Z"/>
  <path class="cls-8" d="M116.4,106.9c-19,0-37.9,0-56.9,0-1.2,0-1.6.3-1.6,1.5,0,8.7,0,17.4,0,26.1,0,.1-.2.2-.3.3-.4,1-.4,2.1,0,3.1.4.6.3,1.4.3,2,0,4.5,0,9,0,13.4H25.2c0-16.7,0-33.4,0-50.1h93.8c0,.3,0,.6,0,.9q0,2.7-2.6,2.7Z"/>
  <path class="cls-4" d="M57.9,134.6c0-8.7,0-17.4,0-26.1,0-1.3.4-1.6,1.6-1.6,19,0,37.9,0,56.9,0s2.7,0,2.6-2.7c0-.3,0-.6,0-.9,0-11.9,0-23.7,0-35.6,0-.6-.4-1.3.5-1.7,1,1.5,2,.7,3,0,0,11.8,0,23.6,0,35.4,0,.6,0,1.2,0,1.8q-.2,3.6,3.3,3.6c18.1,0,36.1,0,54.2,0,1.3,0,1.7.2,1.7,1.6,0,4.1,0,8.2,0,12.3-.1,0-.3,0-.4,0,0,0-.1,0-.2,0-.2-.2-.4-.3-.7-.2-.2,0-.3,0-.5,0-.4,0-.7,0-1,.3,0,0-.1,0-.2,0-.1,0-.3,0-.4-.1,0-2.9,0-5.9,0-8.8,0-1-.2-1.4-1.3-1.4-17.8,0-35.5,0-53.3,0-1.1,0-1.3.4-1.3,1.4,0,4,0,8.1,0,12.1-1.3-.5-2.6-.6-3.9.2.5-.5.4-1.1.4-1.7,0-3.5,0-7,0-10.5,0-1.2-.3-1.5-1.5-1.5-18.2,0-36.4,0-54.6,0-1.3,0-1.5.5-1.5,1.6,0,6.8,0,13.7,0,20.5,0,.5,0,1.1.2,1.6-1.3-.4-2.5-.8-3.7.3Z"/>
  <path class="cls-10" d="M219.9,30.7c.4.5.2,1.1.2,1.6,0,11.6,0,23.3,0,34.9,0,3.8-3,7-6.7,7-3.6,0-6.7-3.1-6.8-6.8,0-10.8,0-21.6,0-32.4,0-.5,0-1.1.5-1.5.1.2.3.3.4.5,0,0,0,0,0,0,.1.1.2.2.3.3,0,0,0,0,0,0,.2.6.7.9,1.2,1.2h0c.2.1.4.3.6.4,2,1.3,4.1,1.4,6.3.3.4-.2.9-.4,1.2-.8h0c.5-.3,1-.6,1.2-1.2h0c.2-.1.4-.3.3-.6h0c.2,0,.3-.1.3-.3h0c.3-.2.4-.5.3-.9h0c.6-.5.5-1.2.6-1.8Z"/>
  <path class="cls-9" d="M216,36.2c-2.2,1.1-4.3,1-6.3-.3,0-.3-.3-.4-.6-.5,0,0,0,0,0,0-.1-.7-.5-1.1-1.2-1.2,0,0,0,0,0,0-.1-.1-.2-.2-.3-.3,0,0,0,0,0,0,0-.6-.1-1.1-.6-1.5,0,0,0,0,0,0-.5-1.7-.2-3.4,0-5.1,0,0,0,0,0,0,.3-.1.3-.4.3-.6,0,0,0,0,0,0,.1-.1.2-.2.3-.3,0,0,0,0,0,0,.3-.1.3-.4.3-.6,0,0,0,0,0,0,.1-.1.2-.2.3-.3,0,0,0,0,0,0,.1-.1.2-.2.3-.3,0,0,0,0,0,0,.1-.1.2-.2.3-.3,0,0,0,0,0,0,.1-.1.2-.2.3-.3,0,0,0,0,0,0,1.4-.2,2.5-1.1,3.9-1.1-.3,0-.7-.1-1-.2,0,0,0,0,0,0,.7,0,1.5-.3,2.1.2.2.5.4.2.7,0,0-.1.1-.2.2-.3,1.1.9,2.7,1.2,3.4,2.6,0,.3,0,.5.3.6,0,0,0,0,0,0,.1.1.2.2.3.3,0,0,0,0,0,0,0,.2,0,.5.3.6,0,0,0,0,0,0,.3,1.7.5,3.4,0,5.1,0,0,0,0,0,0-.4.2-.3.6-.3.9,0,0,0,0,0,0-.1.1-.2.2-.3.3,0,0,0,0,0,0-.3.1-.3.4-.3.6,0,0,0,0,0,0-.7.1-1.1.5-1.2,1.2,0,0,0,0,0,0-.6,0-1.1.1-1.2.8Z"/>
  <path class="cls-11" d="M258.1,119.8c0-5.5,0-11,0-16.5,0-6.3,0-12.6,0-18.9.9.6,1.9.9,3,.3.2,0,.4,0,.6,0,0,6.2,0,12.4,0,18.5,0,5.4,0,10.8,0,16.2-.3,0-.6,0-.9,0-.6-.4-1.2-.4-1.8,0-.2,0-.4.2-.6.3,0,0-.2,0-.2,0Z"/>
  <path class="cls-10" d="M261,84.7c-1.1.6-2,.4-3-.3-1.4-.9-1.4-2.4,0-4.2,1,0,2,0,3.1,0,.1.2.3.4.6.3,0,0,0,0,0,0,0,.3,0,.5.3.6,0,0,0,0,0,0,0,.3,0,.5.3.6,0,0,0,0,0,0,0,.6,0,1.1,0,1.7,0,0,0,0,0,0-.1.2-.2.3-.3.5,0,0,0,0,0,0-.3.1-.3.3-.3.6,0,0,0,0,0,0-.3,0-.5,0-.7.3Z"/>
  <path class="cls-3" d="M119.9,43.9c.1.7.3,1.3-.6,1.7h3.7c-.5.5-.7.8-.6,1.3,0,.6.4,1.5-.8,1.5-.6,0-.2.6-.4,1-.2.7-.5,1-1,.2,0,0,0,0,0,0,.3,0,.6,0,.6-.3,0-.2,0-.4,0-.6,0-.2-.1-.3-.3-.3-.2,0-.3,0-.5,0-.5-.7,0-1.5-.2-2.3-.8.8-.3,1.7-.5,2.4-.2,0-.3,0-.5,0,.1-1,.5-2.4.2-2.8-.9-1.1,0-2.1-.2-3.1-.1-.8.3-1.5,1.2-1.8.4,1.1,0,2.2,0,3.3ZM119.1,43.8c0,.3-.1.5-.1.7,0,0,.1.2.2.3,0-.2.2-.3.2-.5,0,0-.1-.2-.3-.4Z"/>
  <path class="cls-3" d="M121,51.1c.4.8,1-1.3,1.2,0,.1.9,1,1.8,0,2.7-1-.3-1.3.4-1.5,1.2-.1-.1-.2-.2-.3-.4,0,.1-.1.2-.2.3-.1,0-.2,0-.3,0-.5-.4-1,0-1.7-.1.2-.4.5-.8.2-1.3-.3-.6.5-1.3-.2-1.9.5-.2.4-1.8,1.5-.7.2.2.4.3.7.1.2,0,.3,0,.5,0Z"/>
  <path class="cls-12" d="M120,54.9c.1,0,.2,0,.3,0,.2.2.4.2.5,0,.2-.8.4-1.4,1.5-1.2,0,.9-.2,1.7.1,2.6.4,1.2-.7,1-1.4,1.1.3.8,1.1.1,1.5.6-.2.8-1.5-.1-1.4.8.1.9,1.3,0,1.8.7-.8.6-1.7.4-2.4,0-.8-.3-1.3-.5-2.1.1.6-1,1-2,.5-3.1-.5-1,.8-1.1,1.1-1.7ZM120.7,56.9c.4-.1,1.2.3,1.2-.5,0-.7-.8-.4-1.2-.4-.4,0-1.2-.3-1.2.5,0,.7.8.4,1.2.5ZM120.4,59.1c0-.6.4-1.2-.3-1.6,0,0-.3,0-.4,0,.1.5-.1,1.3.7,1.6Z"/>
  <path class="cls-3" d="M115.8,54.3c-.3,0-.8,0-.8.2-.1.4.3.1.4.2.6.5.4,1.5.2,1.7-.4.6-1.3.2-1.9.3-.8,0-.5-.6-.5-1,0-.7-.5-1.7.8-1.8.3,0,.3-.4.3-.6,0-.3-.1-.5-.4-.5-1.1.1-.9-.8-.7-1.2.2-.5.9-.6,1.5-.5.7.1,1.4.2,1.1,1.2,0,.2,0,.5-.4.5-.5,0-.9,0-.8.6,0,.8.8.3,1,.7Z"/>
  <path class="cls-12" d="M119.9,43.9c0-1.1.3-2.2,0-3.3,1.8.5,2.7,1.2,2.9,2.1,0,.4.5.9-.3,1.2-.8.3.5.6.1,1.1-.1.1-.3-.2-.4-.1-1,.6-1.4,0-1.6-.9,0,0-.4,0-.5,0Z"/>
  <path class="cls-10" d="M122.5,66.1c-1,.7-2,1.5-3,0,0-.9-.3-1.9,1-2.1,1.3-.2,2,.6,2,2.1Z"/>
  <path class="cls-3" d="M113.2,59.9c0-.2,0-.5,0-.7-.2-.7-.4-1.6.4-1.9.5-.2,1.5-.2,1.9,0,.7.4.4,1.4.2,2.1-.2.2-.3.4-.5.6,0,0,0,0,0,0-.6-.6-1.3-.2-1.9-.2Z"/>
  <path class="cls-12" d="M115.1,60.1s0,0,0,0c.1,0,.2.1.4.2.3.7.2,1.3-.7,1.6-.5.1-.5.5-.4.9h0c-.4,0-.8-.1-1.2.3.3-.9.1-1.8.2-2.7.5-.1,1.1.2,1.6-.3Z"/>
  <path class="cls-5" d="M120.7,48.7c0,.2,0,.4,0,.6-.5-.4-.6-.2-.6.3,0,0,0,0,0,0-.6-.3-1.1.4-1.8.2.1-.5.3-1,.4-1.5.2,0,.3,0,.5,0,0,.4-.3.7,0,1.1.2.2.4.2.5,0,.4-.3.5-.7.2-1.2.2,0,.3,0,.5,0-.1.3,0,.5.3.3Z"/>
  <path class="cls-13" d="M207,27.3c-.2,1.7-.5,3.4,0,5.1-1-1.7-.8-3.4,0-5.1Z"/>
  <path class="cls-13" d="M219.3,32.5c.5-1.7.2-3.4,0-5.1.8,1,.5,2.2.6,3.3-.1.6,0,1.3-.6,1.8Z"/>
  <path class="cls-13" d="M212,23.3c.3,0,.7.1,1,.2-1.4,0-2.6,1-3.9,1.1.8-.8,1.8-1.1,2.9-1.3Z"/>
  <path class="cls-6" d="M115.1,60.1c-.5.5-1.1.2-1.6.3-.1-.2-.2-.3-.3-.5.6,0,1.3-.5,1.9.2Z"/>
  <path class="cls-13" d="M206.9,32.5c.5.4.6.9.6,1.5-.1-.2-.3-.3-.4-.5-.1-.3-.3-.7-.2-1Z"/>
  <path class="cls-12" d="M121,51.1c-.2,0-.3,0-.5,0,0-.2,0-.4,0-.5.3,0,.4.3.5.5Z"/>
  <path class="cls-6" d="M115.5,60.3c-.1,0-.2-.1-.4-.2.2-.2.3-.4.5-.6.4.3.2.6-.2.8Z"/>
  <path class="cls-13" d="M207.9,25.8c0,.3,0,.5-.3.6,0-.3,0-.5.3-.6Z"/>
  <path class="cls-13" d="M218.7,26.5c-.3-.1-.3-.4-.3-.6.2.2.4.4.3.6Z"/>
  <path class="cls-13" d="M207.3,26.7c0,.3,0,.5-.3.6.1-.2.2-.4.3-.6Z"/>
  <path class="cls-13" d="M219.3,27.4c-.3-.1-.3-.4-.3-.6.1.2.2.4.3.6Z"/>
  <path class="cls-12" d="M114.4,62.8s0,0,0,0c0,0,0,0,0,0Z"/>
  <path class="cls-13" d="M219,26.8c-.1-.1-.2-.2-.3-.3.1.1.2.2.3.3Z"/>
  <path class="cls-13" d="M207.6,26.4c-.1.1-.2.2-.3.3,0-.2.1-.3.3-.3Z"/>
  <path class="cls-13" d="M208.2,25.5c-.1.1-.2.2-.3.3.1-.1.2-.2.3-.3Z"/>
  <path class="cls-13" d="M208.5,25.2c-.1.1-.2.2-.3.3.1-.1.2-.2.3-.3Z"/>
  <path class="cls-13" d="M208.8,24.9c-.1.1-.2.2-.3.3.1-.1.2-.2.3-.3Z"/>
  <path class="cls-13" d="M209.1,24.7c-.1.1-.2.2-.3.3.1-.1.2-.2.3-.3Z"/>
  <path class="cls-8" d="M474.3,103.3h-212.7c0,5.4,0,10.8,0,16.2,0,.2-.2.4-.2.6,1.5,1.3,1.6,2.4.3,3.9,0,6.2,0,12.4,0,18.5,0,3.6,0,7.2,0,10.8h50.2c0-1.6,0-3.2,0-4.7,0-8.3,0-16.6,0-24.9,0-.7,0-1.4,0-2.1-.7-3.1-.1-5.7,2.6-7.6,2.8-2.1,6.2-1.8,8.8.6,0,0,.2.2.3.3,1.6,1.5,2,3.4,1.8,5.5,0,.4-.4.8,0,1.1h0c1-.9,1.8-.7,2.3.4-.7.7-1.4,1.3-2.2.2,0,.7-.1,1.3-.1,1.9,0,9.7-.1,19.5,0,29.2h27.6c0-8.9,0-17.7,0-26.6,0-.5-.2-1.1.2-1.6h0c-1-2.8-.8-5.4,1.4-7.6,2-2.5,6.8-2.8,8.6-.8.9.2,1.4.8,1.8,1.5,1.3,1.5,1.5,3.2,1.3,5,0,.8.2,1.5.2,2.2,0,9.2,0,18.5,0,27.8h23.4c0-6.5,0-13,0-19.6,0-.6-.2-1.2.3-1.7,0-1.2.2-2.4.6-3.6-.4-.4-1.2-.8-.8-1.3.2-.4.9-1.2,1.7-.4,1.6-1.2,3.3-2.4,5.5-2.3,5,.2,7.8,4.7,6,9.7.4.5.2,1.1.2,1.6,0,5.9,0,11.7,0,17.6h50.7c0-1.8-.1-3.6.2-5.4.2-1.3,2.2-.3,3.3-.6.5,0,1.3-.2,1.3.6,0,1.8,0,3.5,0,5.3h4.8c0,0,0-.2,0-.3,0-1.7,0-3.4,0-5.1,0-.3,0-.8.5-.8.5,0,.4.5.4.8,0,1.1,0,2.2,0,3.3s0,1.4,0,2h9.6v-48.4c0-.5,0-1.1,0-1.6ZM329.1,121.1c-.5-.3-1-.6-1-1.1,0-.6.8-.9,1.2-.9.5,0,1,.7,1,1.1,0,.5-.8.6-1.2.9ZM332.6,119.2c-1.2.8-1.3-.4-1.9-1,.8,0,1.4-1.4,2.2,0,.4.6.2.8-.3,1.1ZM334.9,118c-.6,0-1-.8-.9-1.2,0-.5.8-.7,1.3-.7.7,0,.6.7,1,1.1-.3.6-.9.8-1.4.8ZM337.9,116.7c-.5,0-.8-.7-.8-1.1,0-.8.9-.7,1.3-.8.7,0,.6.8.9,1.2-.3.6-1,.7-1.5.7ZM341.3,115.6c-.8,0-.9-.7-.9-1.1,0-.7.8-.6,1.2-.7.8-.2.7.7,1,1.2-.3.5-.8.5-1.3.6ZM344.7,114.8c-.8.2-.9-.6-.9-1,0-1,1-.2,1.2-.8.8,0,.7.7.8,1.1.1.9-.7.6-1.1.7ZM348.6,114.1c-1.1.3-1.3-.2-1.3-.8-.1-1,.8-.6,1.2-.8,1-.3.7.7.7,1,.2.8-.6.5-.7.6ZM351.5,113.8c-.9.2-.6-.6-.7-1-.1-.9.6-.7.9-.8.9-.1,1,.3,1,.9,0,1-.7.7-1.2.9ZM355.2,113.5c-.7.1-1.1-.1-1.1-.9,0-.8.5-.6,1-.7.7,0,1,.1,1,.9,0,.7-.3.8-.9.8ZM358.5,113.5c-.7.1-.8-.3-.8-.9,0-.9.5-.7,1.1-.8.6,0,.8.2.8.9,0,.9-.6.8-1.1.7ZM363.2,112.9c-.1.6-.2,1.1-.7.9-.8-.2-1.5,0-1.3-.9.1-.6.2-1.1,1-.9.5.1,1.2,0,1,.9ZM366.6,113.3c0,.6-.2,1.1-1,.8-.6,0-1,0-1-.8,0-.7.2-1,1-.9.5.1,1.1,0,1,.8ZM370,113.9c0,.4,0,1.3-.9,1-.4-.2-1.3.2-1.1-.8,0-.5.1-1.2,1-.9.4.2,1.2,0,1,.7ZM372.5,115.8c-.4,0-1.2,0-1.2-.8,0-.4,0-1.1.7-1.1.5,0,1.2,0,1.5.8-.4.3-.2,1.2-.9,1.1ZM375.6,116.9c-.4-.1-1.2,0-1.1-.8,0-.4.2-1.1,1-1.1.3.4,1.2.2,1.2.8,0,.4-.2,1.3-1,1ZM378.6,118.3c-.4-.1-1.1-.2-1.1-.8,0-.4.3-1.2,1-1,.5.1,1.1.2,1.2.9-.4.4-.5,1.2-1.2,1ZM381.6,120c-.4-.1-1.2-.4-1.2-1,0-.4.5-1,1.1-1,.4.4,1.2.3,1.1,1,0,.4-.5,1.1-1.1,1ZM384.3,121.9c-.5,0-1.2-.4-1.2-1,0-.4.5-1,1.1-1,.5,0,1,.5,1.2,1-.3.5-.6,1-1.2,1ZM386.7,123.9c-.5,0-1.1-.5-1.1-1,0-.5.6-1,1.2-.9.5,0,.9.5,1,1-.2.5-.7.9-1.1.9ZM388.9,126.1c-.5,0-1-.5-1-1,0-.6.7-.8,1.2-1,.5.3,1,.7,1,1.2,0,.5-.7.9-1.2.8ZM454.1,122c1.3,0,2.6,0,3.9,0,.7,0,1.1-.2,1-1h0q.2-4.1-3.8-4.2c-.4,0-1.2.3-1.2-.4,0-.7.8-.4,1.2-.4,1.4,0,2.8,0,4.2,0s2.8,0,4.2,0c.5,0,1.2-.3,1.2.4,0,.8-.8.5-1.3.5-3.9,0-3.8,0-3.7,4,0,.8.3,1.2,1.1,1.1,1.2,0,2.3,0,3.5,0,.4,0,1.1-.2,1,.5,0,.6-.7.4-1.1.4-1.1,0-2.3,0-3.5,0-.8,0-1.1.3-1,1,0,1,0,2.1,0,3.2,0,.3,0,.8-.4.8-.5,0-.5-.4-.5-.8,0-1,0-1.9,0-2.8.1-1.2-.4-1.5-1.5-1.4-1.2,0-2.3,0-3.5,0-.3,0-.7,0-.7-.4,0-.5.4-.5.7-.5ZM455.5,117.9c.7-.3.7.7,1,1.2.2.3.3.7.4,1,0,.4,0,.8-.3.9-.3,0-.5-.2-.5-.4-.2-.4-.3-.7-.4-1.1-.1-.5-1-1.1-.2-1.5ZM464,117.9c-.4.8-.8,1.7-1.2,2.5-.2.3-.4.7-.8.5-.4-.2-.1-.6,0-.8.6-.8.4-2.2,2-2.2ZM462.2,131.5c-2.2,0-4.4,0-6.6,0-.7,0-1.1.2-1.1,1,0,.5.3,1.3-.5,1.2-.7,0-.2-.9-.2-1.1-.4-1.8.2-2.2,1.6-2.1.8,0,1.6,0,2.4,0,.7,0,1.4,0,1.3-.9,0-.3.1-.5.4-.5.3,0,.5.2.4.5,0,1,.6.9,1.3.9.7,0,1.4,0,2.1,0,2,0,2.6.8,2,2.8,0,.3-.2.5-.5.5-.3,0-.4-.3-.4-.5.4-2-1-1.8-2.3-1.8ZM454,134.8c.3,0,.6,0,.9,0,1.5.2,2.5-.2,2.8-1.9,0-.3,0-.8.6-.7.5.1.5.6.3,1-.8,1.5,0,1.6,1.2,1.6,1.6,0,3.2,0,4.8,0,.4,0,.9-.1.9.5,0,.5-.5.4-.8.4-.5,0-1.3-.2-1.6.2-.6,1.1-1.2,2.2-1.9,3.2-.2.4.3.5.6.7.9.4,1.7.8,2.6,1.2.2.1.5.2.4.5,0,.2-.3.4-.5.4-1.1-.5-2.1-.8-3.1-1.3-.9-.5-1.6-.4-2.4.1-1.2.8-2.5.9-3.8,1.2-.3.1-.9.3-1-.2-.1-.5.4-.5.8-.6,1.1-.3,2.1-.6,3.2-.9.2,0,.5-.2.4-.5,0-.1-.3-.3-.4-.3-.7-.1-1.3-.7-2-.4-.3.1-.6.5-.9,0-.2-.3,0-.6.1-.8,0,0,0,0,0-.1q.9-2.2-1.5-2.4c-.3,0-.8,0-.8-.4,0-.6.5-.5.9-.5ZM461.5,148.3c0,.7,0,1.3,0,2h0c0,.8,0,1.5,0,2.2,0,.3,0,.6-.5.6-.3,0-.4-.3-.4-.6,0-1.5,0-2.9,0-4.3s.2-.7.6-.7c.6,0,.3.5.3.8ZM464.7,146.2c-2.2,0-4.4,0-6.6,0s-2.4,0-3.6,0c-.5,0-1.4.4-1.4-.6,0-.9.9-.5,1.5-.5.6,0,1.2,0,1.8,0,.2-.7-.3-1-.6-1.3-.2-.2-.4-.4-.1-.6.2-.2.5,0,.7,0,.3.2.5.5.8.7,1.7,1.7,3.4,1.7,4.9-.1.1-.1.2-.2.3-.3.2-.4.6-.6,1-.3.4.3,0,.6-.1.9-.2.3-.4.6-.8,1.1,1,0,1.7,0,2.4,0,.4,0,.9,0,.9.5,0,.7-.5.6-.9.6ZM456.9,152.5c-1.4,0-1.8,0-2,.8h3.2c-.1-.7-.6-.8-1.2-.8Z"/>
  <path class="cls-6" d="M374.2,67.4c.7-.5.4-1.2.4-1.8,0-13.3,0-26.5,0-39.8,0-2.3.1-2.4,2.4-2.4,5.2,0,10.4,0,15.6,0,1.7,0,2.1.3,2.1,2.1,0,20.3,0,40.6,0,60.9,0,1.7-.4,2.1-2.2,2.1-5.4,0-10.7,0-16.1,0-1.3,0-1.9-.5-1.9-1.9,0-1.2.3-2.4-.3-3.5,0-.5-.4-1,.3-1.4,0-1.4,0-2.8,0-4.2-.6-.3-.3-.8-.3-1.3,0-.2,0-.3,0-.5,0,0,0-.2-.1-.2.4-.2.5-.6.5-1-.3,0-.3-.3-.3-.6.3-2.1.6-4.1,0-6.2,0-.2,0-.3,0-.5ZM380.9,81.4c.1,0,.3,0,.4,0,5.4,3,10-2.2,9.9-6.6-.2-11.9,0-23.9,0-35.8,0-.6.2-1.2-.2-1.7,0-.4.2-.8.2-1.2.5-2.5-.3-4.7-2.3-6.3-2.1-1.7-4.5-2.1-7-1-3,1.3-4.2,3.6-4,7.5-.3.3-.2.6-.2,1,0,12.4,0,24.9,0,37.3,0,1.2.2,2.4.8,3.4,1.1,1.2-.5,1.6-.9,2.5,1.2,0,2,0,2.5,1.2.3.7.5-.3.8-.4Z"/>
  <path class="cls-10" d="M417.8,45.2c0,.7,0,1.5,0,2.2,0,11.8,0,23.6,0,35.4,0,3.1-2.2,6.2-5,6.9-3.5.9-7.2-1.3-8.2-4.9-.2-.8-.3-1.5-.3-2.4,0-12.2,0-24.4,0-36.6,0-.5-.2-1,.2-1.4.4,1.5,1.2,2.7,2.4,3.7,2.7,2.3,8.4,2.5,10.8-3Z"/>
  <path class="cls-10" d="M361.8,28c.4.5.2,1.1.2,1.6,0,12.5,0,25.1,0,37.6,0,3.4-2.3,6.3-5.6,7.2-1.6.4-3-.2-4.5-.8.4-.5,1.3,0,1.8-.8-1.3-.4-1.3-1.4-1.1-2.6-1.1,1.3-2.1.4-3.2.1-.8-.8-.9-1.8-.9-2.8,0-12.7,0-25.5,0-38.2,2,3.4,4.4,4.8,7.6,4.3,2.8-.4,4.9-2.5,5.6-5.7Z"/>
  <path class="cls-10" d="M318.4,65.6c-1.3-13.6-.3-27.2-.6-40.8,0-.4-.1-.9.2-1.3.9,3.1,3,5.1,6.2,5.3,3.1.2,5.4-1.3,6.8-4.1.4.5.2,1.2.2,1.7,0,11.3,0,22.6,0,33.9,0,.9.1,1.8,0,2.7-.4,4.3-4.6,8.1-9.6,5.8-.8-1.3.7-1.6,1.2-2.4-1.4,0-2-.6-2.1-2-.6,1.1-1.3,1.9-2.5,1.2Z"/>
  <path class="cls-10" d="M302.6,21.4c.3.3.2.8.2,1.1,0,12.6,0,25.2,0,37.8,0,3.9-3.4,7-7.3,6.7-.8,0-1.7-.1-2.1-1.1.5-.4,1.3-.2,1.6-.9q-1.3-.6-1.6-2.7c-.7,1.4-1.7,1.4-2.7.8,0,0-.3,0-.4,0-.6-1.1-.9-2.3-.9-3.6,0-12.5,0-25,0-37.5,0-.2,0-.4,0-.6,1.3,3,3.4,5,6.8,4.8,3.2-.1,5.4-1.9,6.4-5Z"/>
  <path class="cls-13" d="M331.1,24.7c-1.4,2.8-3.7,4.4-6.8,4.1-3.3-.2-5.3-2.2-6.2-5.3-.5-4,1.4-7.2,4.9-8.1,2.5-.7,4.8,0,6.6,1.7,1.9,1.9,2.5,4.1,1.8,6.7,0,.3-.2.6-.3.9Z"/>
  <path class="cls-12" d="M417.8,45.2c-2.4,5.5-8.1,5.4-10.8,3-1.2-1-1.9-2.2-2.4-3.7-.6-3.8,1.2-7,4.5-8.1,3.2-1,6.7.4,8.2,3.4.9,1.7.9,3.5.4,5.4Z"/>
  <path class="cls-7" d="M302.6,21.4c-1,3.1-3.2,4.8-6.4,5-3.4.1-5.6-1.8-6.8-4.8-.6-3.2.1-5.9,2.9-7.7,2.5-1.6,5-1.5,7.5,0,2.5,1.6,3.5,4.3,2.9,7.6Z"/>
  <path class="cls-12" d="M361.8,28c-.7,3.1-2.8,5.2-5.6,5.7-3.2.5-5.7-.9-7.6-4.3-.8-4.3.6-7.5,4-8.8,4.7-1.8,10,1.8,9.3,7.4Z"/>
  <path class="cls-3" d="M374.6,81.9c-.6.3-.3.9-.3,1.4-.4,0-.8,0-1.1-.3-.7-.5-1.1-.2-1.2.5-.6-.2-.2-.8-.5-1q-1.3.7-2.2.7c.2-.7,1.1-.5,1.4-1.1-.5,0-.9,0-1.5,0,.6-.4,1.1-1,.7-1.3-1.1-1.1.2-1.5.5-2.2,0-.2.2-.3.5-.3,1,0,1,0,.7-1-.7,0-1.2.9-2.1.6,0-.6.7-.4,1-.8-.2-.3-.9,0-1-.6.7,0,1.3,0,2-.1-1.4.4-1-1.4-1.9-1.6-.2,0,0-.2.1-.4.4-.4.4-.4-.4-.8,1.6-.5,3.1-.5,4.6-.2.5,0,.5.4.5.8,0,.2,0,.5.3.6-.4.1-1,0-1.1.5-.1.5.4.4.7.5,0,0,0,.2.1.2-.6,0-1.3.2-1.9.3h0c.6.2,1.3.2,1.9.2,0,.5-.3,1,.3,1.3-.9.8-1.6-.4-2.4-.3,0,.8,0,1.6,1.1,1.4.2,0,.8.1.5.4-.3.3,0,.8-.5.8-.3,0-.7-.1-1,.1.3.4,1.2-.2,1.2.4,0,.9.7,1,1.1,1.4ZM374,74.1s0-.1,0-.2c0,0,0,0,0,0,0,0,0,.1,0,.2,0,0,0,0,0-.1Z"/>
  <path class="cls-10" d="M465.3,19.3c-1.5.1-1.6,1.1-1.5,2.1,0,.6,0,1.2,0,1.8,0,1.2-1.6,2-2.7,1.4-.2-.1-.3-.3-.2-.5,0-.3.3-.3.6-.3.5,0,1.3.3,1.4-.5.1-1.1.2-2.3-.1-3.4-.1-.4-.6-.3-1-.3-.9,0-1.7,0-2.6,0-1.2,0-2.3,0-2.1,1.7,0,.6-.4.6-.9.7-.9.1-2.2-.6-2.6,1,0,0-.3.1-.4,0-.4-.1-.3-.5-.3-.8,0-1.6,0-3.1,0-4.7,0-1,0-1.9,0-2.9,0-2.1,0-2.1,2.1-2.1,2.4,0,2.1-.2,2.1,2.2q0,4.1,4,4.1c.8,0,1.8.3,1.8-1.1,0-.2.2-.3.4-.3.2,0,.4.2.4.4-.1,1.1.7,1,1.5,1.3ZM456.3,19.4c0-.8.3-1.7-1.1-1.7-1.3,0-1.3.6-1.3,1.6,0,.8-.3,1.8,1.2,1.8,1.4,0,1.2-.8,1.2-1.7ZM456.3,15.2c0-.8.2-1.7-1.2-1.7-1.3,0-1.2.7-1.2,1.5,0,.8-.4,1.8,1.2,1.8,1.3,0,1.3-.7,1.2-1.7Z"/>
  <path class="cls-10" d="M464,38.8c-1-.2-1.8-1-2.3-1.9-.7-1.3-1.2-2.8-1.4-4.2-.2-1.4-.9-1.5-1.9-1.3-.3,0-.7.2-1,.2-.2,0-.5,0-.6-.3-.1-.4.1-.5.4-.7.5-.3,1-.2,1.5-.2,1,0,1.5-.1,1.2-1.4-.2-.7-.1-1.6-.1-2.4,0-.4,0-.7.5-.7.6,0,.4.4.4.7,0,.9.2,1.8.3,2.7,0,1.1.9.9,1.4.7.8-.2,1.7-.2,2.5-.2.3,0,.8,0,.8.5,0,.4-.4.4-.7.4-.9,0-1.9.2-2.8.3-.5,0-1,0-.9.7.4,1.8.6,3.8,1.9,5.3.3.4.6.9,1.2.8.5-.1.6-.7.8-1.2.1-.3-.2-1,.4-.9.6,0,.4.6.3,1.1-.3.9-.2,2.1-1.8,2Z"/>
  <path class="cls-10" d="M454.8,31.1c-.8.5-1,2-2,1.4-.5-.3.6-1.2,1-1.9.7-1.2,1.7-2.4,2.1-3.8,0-.3.3-.7.7-.6.4.1.4.5.2.7-1.8,2.7-.8,5.7-1.1,8.6,0,.8,0,1.6,0,2.4,0,.3,0,.7-.4.7-.5,0-.5-.4-.5-.7,0-2,0-4.1,0-6.1,0-.2,0-.4,0-.7Z"/>
  <path class="cls-3" d="M290.2,63.2c.1,0,.3-.1.4,0,1.1.6,2,.7,2.7-.8q.3,2.1,1.6,2.7c-.3.7-1.1.5-1.6.9-.3.3,0,.8-.2,1.1-.1.4-.3.5-.7.2-1-.9-1.1-.9-2.7-.8,1.3-1.1,1.3-2.1.5-3.2Z"/>
  <path class="cls-3" d="M318.4,65.6c1.2.7,1.9-.1,2.5-1.2.2,1.3.7,2,2.1,2-.5.9-2,1.2-1.2,2.4-.1.2,0,.8-.4.5-.9-1-1.8-.8-3-.1.5-1.3.9-2.3-.3-3.2-.2-.1.2-.3.3-.4Z"/>
  <path class="cls-3" d="M349.4,70.3c1,.2,2,1.2,3.2-.1-.2,1.2-.1,2.2,1.1,2.6-.5.7-1.3.3-1.8.8-.2.5-.4,1-.6,1.7-.6-1.1-1-2.2-2.6-1.8.8-1,1.3-2,.7-3.2Z"/>
  <path class="cls-10" d="M464.9,14c-.6.3-1.3.2-2,.2-.8,0-.9.4-.9,1.1,0,.6.1,1,.9,1.1.8,0,1.7-.2,2.5.3-2.6.5-5.1.3-7.7,0,.7-.6,1.6-.4,2.3-.4.8,0,1.1-.2,1.1-1,0-.7-.2-1.1-1-1.1-.6,0-1.3.2-1.9-.2.4-.6.9-.4,1.3-.4.9,0,1.8.1,1.6-1.2,0-.3.1-.5.4-.5.1,0,.4.1.3.2,0,2,1.4,1.4,2.5,1.5.1,0,.3,0,.4.2,0,0,0,0,0,.3Z"/>
  <path class="cls-3" d="M374.2,67.4c0,.2,0,.3,0,.5-.5,0-1.1,0-1.6,0-.4,0-1.1-.2-1.1.6,0,.8.6.6,1,.5,1.6-.2,1.2.8,1.2,1.7,0,1-.3,1.8-1.6,1.6-.1,0-.2-.2-.6-.4,1,0,1.7-.2,1.6-1.2,0-.4.3-1-.4-1-.5,0-1.2-.4-1.4.6-.2.9-.7,1.8-1.9,1.8.5-.6,1.1-1.1,1.3-1.9.6-1.9.5-2.1-1.4-2.8h4.9Z"/>
  <path class="cls-10" d="M462.6,26.2c.4,0,2.4,1.5,2.3,1.9,0,.3-.3.4-.5.3-.8-.4-1.5-.9-2.1-1.6-.3-.4,0-.5.3-.6Z"/>
  <path class="cls-10" d="M460.1,23.1c-.5-.7-1.1-1.5-1.6-2.3,0-.1.2-.2.5-.2.5,0,1.8,1.6,1.7,2.1,0,.3-.2.4-.6.4Z"/>
  <path class="cls-6" d="M262.2,83.4c0-.6,0-1.1,0-1.7.5.6.4,1.1,0,1.7Z"/>
  <path class="cls-6" d="M261,84.7c.2-.2.4-.4.7-.3,0,.1,0,.3,0,.4-.2,0-.4,0-.6,0Z"/>
  <path class="cls-6" d="M261.6,84.4c0-.3,0-.5.3-.6,0,.3,0,.5-.3.6Z"/>
  <path class="cls-6" d="M262.2,81.7c-.3-.1-.3-.3-.3-.6.3,0,.3.4.3.6Z"/>
  <path class="cls-6" d="M261.9,81.1c-.3-.1-.3-.3-.3-.6.3.1.3.3.3.6Z"/>
  <path class="cls-6" d="M261.6,80.5c-.3,0-.5,0-.6-.3.2,0,.4,0,.5-.1,0,.1,0,.3,0,.4Z"/>
  <path class="cls-6" d="M261.9,83.8c.1-.2.2-.3.3-.5,0,.2,0,.4-.3.5Z"/>
  <path class="cls-13" d="M214.8,23.5c-.2.2-.5.5-.7,0,.2,0,.5,0,.7,0Z"/>
  <path class="cls-8" d="M118.9,128.2c0,.1,0,.2.1.4v23.6c0,.3,0,.5-.1.8,0,0,0,.1-.1.1-.2,0-.4,0-.4.2h-57c0-4.3,0-8.6,0-12.9s-.1-1.3.2-1.9c1.3-1.6,1.3-2.9,0-4.3-.3-.5-.2-1.1-.2-1.6,0-6.8,0-13.7,0-20.5,0-1.2.2-1.6,1.5-1.6,18.2,0,36.4,0,54.6,0,1.2,0,1.5.4,1.5,1.5,0,3.5,0,7,0,10.5,0,.6.1,1.2-.4,1.7-.9.9-1.3,1.9-.5,3.1.2.2.3.4.4.6.1.1.2.2.3.3Z"/>
  <path class="cls-8" d="M177.8,149c-.8.9-.8,1.8,0,2.7,0,.2.1.3.3.3,0,.2.1.3.3.3,0,0,0,.2,0,.3v.8h-55.6l-.2-.2c0-7.9,0-15.7,0-23.6,0-.5,0-1.1.1-1.6.5-1.3,1-2.6-.1-3.9,0-4,0-8.1,0-12.1,0-1,.2-1.4,1.3-1.4,17.8,0,35.5,0,53.3,0,1.1,0,1.3.4,1.3,1.4,0,3,0,5.9,0,8.8-.4.3-.6.7-.6,1.2-1,.8-.6,1.6,0,2.4,0,.2.1.3.3.3,0,.2,0,.3.3.3,0,0,0,.2,0,.3,0,7.6,0,15.2,0,22.8-.3.2-.6.5-.6.9Z"/>
  <path class="cls-4" d="M61.3,140.5c0,4.3,0,8.6,0,12.9h-3.4c0-4.5,0-9,0-13.4,0-.7.2-1.4-.3-2,1.1,1.2,2.5.9,3.9.7-.3.6-.2,1.3-.2,1.9Z"/>
  <path class="cls-4" d="M182,153.4h-3.6v-.8c.1,0,.2,0,.4,0h0c0,.3.3.4.6.3,0,0,.1,0,.2,0,.3.4.6.3.9,0,.6-.2,1.1-.5,1.6-.7-.2.4-.2.8-.2,1.2Z"/>
  <path class="cls-2" d="M459.2,4.3c-.8,0-1.7,0-2.5,0-.6,0-.9-.2-.9-.8,0-.7.3-1,1-1,1.8,0,3.6,0,5.4,0,.6,0,.9.3.9.9,0,.6-.3.9-.9.9-.9,0-1.9,0-2.8,0Z"/>
  <path class="cls-2" d="M463.8,5.2c-.7.8-1.6,1.4-2.6,1.9-.6.3-1,.2-1.3-.4-.2-.4-.6-.8-.4-1.2.2-.5.8-.2,1.2-.2,1,0,2.1,0,3.1,0,0,0,0,0,0,0Z"/>
  <path class="cls-11" d="M261.6,142.6c0,3.8,0,7.7,0,11.5h-3.6c0-9.9,0-19.8,0-29.7.1,0,.3,0,.4,0,1.1.7,2.2.1,3.2-.2,0,6.2,0,12.4,0,18.5Z"/>
  <path class="cls-4" d="M178.4,148.1c0-7.6,0-15.2,0-22.8.1,0,.3,0,.4,0,1.1.7,2.2.4,3.2-.2,0,4.7,0,9.5,0,14.2,0,3.1-.2,6.2.2,9.3-1.1-.2-2.1-1.1-3.3-.3-.1,0-.3,0-.4-.1Z"/>
  <path class="cls-10" d="M178.8,148.2c1.2-.8,2.2,0,3.3.3,1.1,1.4,1.1,2.6,0,3.7-.5.2-1.1.5-1.6.7-.3,0-.6,0-.9,0,0,0-.1,0-.2,0-.2,0-.4-.2-.6-.3,0,0,0,0,0,0-.1,0-.2-.1-.3-.2,0,0,0,0,0,0-.1-.1-.2-.2-.3-.3,0,0,0,0,0,0,0-.2,0-.3-.3-.3,0,0,0,0,0,0,0-.9,0-1.8,0-2.7,0,0,0,0,0,0,.6,0,.8-.4,1-.8Z"/>
  <path class="cls-10" d="M182,124.9c-1,.6-2.1.9-3.2.2-.1,0-.2-.2-.4-.2,0,0,0,0,0,0,0-.2-.1-.3-.3-.3,0,0,0,0,0,0,0-.2-.1-.3-.3-.3,0,0,0,0,0,0,0-.8,0-1.6,0-2.4,0,0,0,0,0,0,.5-.3.8-.6,1-1.1,0,0,.1,0,.2,0,.4,0,.7,0,1-.3.2,0,.3,0,.5,0,.2.2.4.3.7.2,0,0,.1,0,.2,0,.1.1.2.3.4.4.1.1.3.3.4.4.2.2.3.3.5.5,0,0,0,0,0,0,0,.7,0,1.3,0,2,0,.4-.2.7-.6.9Z"/>
  <path class="cls-6" d="M257.4,123.4c-.7-.9-1-1.8,0-2.7,0,0,0,0,0,0,0,.9,0,1.8,0,2.6h0Z"/>
  <path class="cls-6" d="M258.4,124.2c-.1,0-.3,0-.4,0-.3-.2-.6-.5-.6-.9,0,0,0,0,0,0,.5,0,.8.4,1,.8Z"/>
  <path class="cls-6" d="M182.6,124.1c0-.7,0-1.3,0-2,.5.7.5,1.3,0,2Z"/>
  <path class="cls-6" d="M258.1,119.8c0,0,.2,0,.2,0,0,0,0,0,0,.1l-.6.5s0,0,0,0c0-.3,0-.5.3-.6Z"/>
  <path class="cls-6" d="M182.6,122.1c-.2-.2-.3-.3-.5-.5.3,0,.4.2.5.5Z"/>
  <path class="cls-6" d="M181.7,121.2c-.1-.1-.2-.3-.4-.4.1,0,.3,0,.4,0,0,.1,0,.2,0,.4Z"/>
  <path class="cls-6" d="M257.4,120.7c0-.2.1-.3.3-.3,0,0,0,0,0,0,0,.1-.2.2-.3.3,0,0,0,0,0,0Z"/>
  <path class="cls-10" d="M61.5,138.6c-1.4.2-2.8.5-3.9-.7-.4-1-.4-2.1,0-3.1.1-.1.2-.2.3-.3,0,0,0,0,0,0,1.2-1.1,2.4-.6,3.7-.3,1.2,1.4,1.2,2.7,0,4.3Z"/>
  <path class="cls-4" d="M57.9,134.5c-.1.1-.2.2-.3.3.1-.1.2-.2.3-.3Z"/>
  <path class="cls-10" d="M122.5,124c1.2,1.3.6,2.6.1,3.9-1,.4-1.9.9-3.1.5-.2-.2-.4-.3-.7-.2,0,0,0,0,0,0,0-.2-.1-.3-.3-.3,0,0,0,0,0,0,0-.3,0-.6-.5-.6-.9-1.2-.4-2.2.5-3.1,1.2-.8,2.5-.7,3.9-.2Z"/>
  <path class="cls-6" d="M178.8,120.9c-.2.4-.6.8-1,1.1,0-.5.1-.9.6-1.2.1,0,.3,0,.4.1Z"/>
  <path class="cls-6" d="M180,120.5c-.3.3-.6.3-1,.3.2-.4.6-.4,1-.3Z"/>
  <path class="cls-6" d="M181.2,120.7c-.3,0-.5,0-.7-.2.3,0,.5,0,.7.2Z"/>
  <path class="cls-13" d="M217.2,35.5c.1-.7.5-1.1,1.2-1.2-.3.6-.7.9-1.2,1.2Z"/>
  <path class="cls-13" d="M207.8,34.3c.7.1,1.1.5,1.2,1.2-.5-.3-1-.6-1.2-1.2Z"/>
  <path class="cls-13" d="M216,36.2c.1-.7.6-.8,1.2-.8-.3.4-.8.6-1.2.8Z"/>
  <path class="cls-13" d="M219,33.4c0-.3,0-.7.3-.9,0,.4,0,.7-.3.9Z"/>
  <path class="cls-13" d="M209,35.5c.3,0,.6.1.6.5-.2-.2-.4-.3-.6-.5Z"/>
  <path class="cls-13" d="M218.4,34.3c0-.3,0-.5.3-.6,0,.3,0,.5-.3.6Z"/>
  <path class="cls-13" d="M218.7,33.7c.1-.1.2-.2.3-.3,0,.2,0,.3-.3.3Z"/>
  <path class="cls-13" d="M207.6,34c.1.1.2.2.3.3-.1-.1-.2-.2-.3-.3Z"/>
  <path class="cls-6" d="M258.9,119.5c.6-.3,1.2-.4,1.8,0,0,0,0,0,0,.1-.5,0-1.1,0-1.6,0,0,0,0,0-.1-.1Z"/>
  <path class="cls-6" d="M261.6,119.5c0,.2-.2.4-.2.6-.2-.2-.5-.3-.7-.5,0,0,0,0,0-.1.3,0,.6,0,.9,0Z"/>
  <path class="cls-6" d="M258.3,119.8c.2,0,.4-.2.6-.3,0,0,0,0,.1.1-.2,0-.4.2-.6.3,0,0,0,0,0-.1Z"/>
  <path class="cls-2" d="M119.9,48.4c.3.5.1.9-.2,1.2-.1.1-.4.1-.5,0-.3-.4,0-.7,0-1.1.2-.7-.3-1.6.5-2.4.2.9-.3,1.7.2,2.3Z"/>
  <path class="cls-2" d="M119.1,43.8c.1.2.3.3.3.4,0,.2-.1.3-.2.5,0,0-.2-.2-.2-.3,0-.2,0-.3.1-.7Z"/>
  <path class="cls-2" d="M120.1,49.6c0-.5.1-.7.6-.3,0,.4-.3.4-.6.3Z"/>
  <path class="cls-2" d="M120.7,48.7c-.4.2-.4,0-.3-.3.2,0,.3.1.3.3Z"/>
  <path class="cls-2" d="M120.8,55c-.2.2-.4.2-.5,0,0-.1.1-.2.2-.3.1.1.2.2.3.4Z"/>
  <path class="cls-6" d="M120.7,56.9c-.4-.1-1.2.2-1.2-.5,0-.8.7-.5,1.2-.5.4,0,1.2-.3,1.2.4,0,.8-.7.4-1.2.5Z"/>
  <path class="cls-2" d="M120.4,59.1c-.9-.3-.6-1-.7-1.6.1,0,.3-.1.4,0,.7.4.2,1,.3,1.6Z"/>
  <path class="cls-10" d="M366.5,125.6c0,9.2,0,18.5,0,27.8h-13.5c0-8.9,0-17.7,0-26.6,0-.5-.2-1.1.2-1.6.3.5.6.9.9,1.4,2.4,3,6.9,3.5,9.4,1.1.2,0,.5,0,.6-.3.3-.1.5-.3.6-.6,1-.9,1.3-2.1,1.6-3.4,0,.8.2,1.5.2,2.2Z"/>
  <path class="cls-10" d="M325.4,154h-13.6c0-1.8,0-3.6,0-5.4,0-8.3,0-16.6,0-24.9,0-.7,0-1.4,0-2.1.4.9.8,1.8,1.6,2.5,0,0,.2.2.3.3,2.8,3.1,8.1,2.3,9.6,0,1.2-.5,1.2-2,2.1-2.7h0c0,.2,0,.4.1.6,0,.7-.1,1.3-.1,1.9,0,9.9-.2,19.9,0,29.8Z"/>
  <path class="cls-10" d="M403.5,135.8c0,5.9,0,11.7,0,17.6h-13.5c0-6.5,0-13,0-19.6,0-.6-.2-1.2.3-1.7.8,3.2,2.6,5.4,5.9,5.8,3.2.4,5.5-1,7-3.7.4.5.2,1.1.2,1.6Z"/>
  <path class="cls-7" d="M403.2,134.2c-1.6,2.7-3.9,4.2-7,3.7-3.4-.5-5.2-2.7-5.9-5.8,0-1.2.2-2.4.6-3.6.5-.5.8-1.1.9-1.7,1.6-1.2,3.3-2.4,5.5-2.3,5,.2,7.8,4.7,6,9.7Z"/>
  <path class="cls-10" d="M464.4,142c-1.1-.5-2.1-.8-3.1-1.3-.9-.5-1.6-.4-2.4.1-1.2.7-2.5.9-3.8,1.2-.3.1-.9.3-1-.2-.1-.5.4-.5.8-.6,1.1-.3,2.1-.6,3.2-.9.2,0,.5-.2.4-.5,0-.1-.3-.3-.4-.4-.7-.1-1.3-.7-2-.4-.3.1-.6.5-.9.1-.2-.3,0-.6.1-.8,0,0,0,0,0-.1q.9-2.2-1.5-2.4c-.3,0-.8,0-.8-.4,0-.6.5-.5.9-.5.3,0,.6,0,.9,0,1.5.2,2.5-.2,2.8-1.9,0-.3,0-.8.6-.7.5.1.5.6.3,1-.8,1.5,0,1.6,1.2,1.6,1.6,0,3.2,0,4.8,0,.4,0,.9-.1.9.5,0,.5-.5.4-.8.4-.5,0-1.3-.3-1.6.2-.6,1.1-1.2,2.2-1.8,3.2-.2.4.3.5.6.7.9.4,1.7.8,2.6,1.2.2.1.5.2.4.5,0,.3-.3.4-.5.4ZM460.1,135.8c-.8,0-1.4,0-1.9,0-.6,0-1.6,1.8-1.3,2.2.6,1,3.5,1,4.1,0,.4-.6,1.2-1.3.9-1.9-.3-.7-1.3-.1-1.8-.3Z"/>
  <path class="cls-10" d="M459.5,115.9c1.4,0,2.8,0,4.2,0,.4,0,1.2-.3,1.2.4,0,.8-.8.5-1.3.5-3.9,0-3.8,0-3.7,4,0,.8.3,1.2,1.1,1.1,1.1,0,2.3,0,3.4,0,.4,0,1.1-.2,1,.5,0,.6-.7.4-1.1.4-1.1,0-2.3,0-3.4,0-.8,0-1.1.3-1.1,1.1,0,1,0,2.1,0,3.1,0,.3,0,.8-.4.8-.5,0-.5-.4-.5-.8,0-.9,0-1.9,0-2.8.1-1.2-.4-1.5-1.5-1.4-1.1,0-2.3,0-3.4,0-.3,0-.7,0-.7-.4,0-.5.4-.5.7-.5,1.3,0,2.6,0,3.9,0,.7,0,1-.2,1-.9,0,0,0,0,0-.1q.2-3.9-3.8-4c-.4,0-1.2.3-1.2-.4,0-.7.8-.4,1.2-.4,1.4,0,2.8,0,4.2,0Z"/>
  <path class="cls-10" d="M258.4,119.9c.2,0,.4-.2.6-.3.5,0,1.1,0,1.6,0,.2.2.5.3.7.5,1.5,1.3,1.6,2.4.3,3.9-1.1.4-2.1,1-3.2.2-.2-.4-.5-.8-1-.8,0-.9,0-1.8,0-2.6,0-.1.2-.2.3-.3.2-.2.4-.4.6-.5Z"/>
  <path class="cls-10" d="M462.4,145.1c1,0,1.7,0,2.4,0,.4,0,.9,0,.9.5,0,.7-.5.6-.9.6-2.2,0-4.4,0-6.6,0-1.2,0-2.4,0-3.6,0-.5,0-1.4.4-1.4-.6,0-.9.9-.5,1.4-.5.6,0,1.2,0,1.8,0,.2-.7-.3-1-.6-1.3-.1-.2-.4-.4,0-.6.2-.2.5,0,.7,0,.3.2.5.5.8.7,1.7,1.7,3.4,1.7,4.9-.1,0-.1.2-.2.3-.4.2-.4.6-.6,1-.3.4.3,0,.6-.1.9-.2.3-.4.6-.8,1.1Z"/>
  <path class="cls-10" d="M456.5,149.9c.6-.1,1.6.4,1.6-.9,0-1.2-.9-.9-1.5-.9-.7,0-1.7-.3-1.7.8,0,1.2.9.9,1.7,1ZM456.6,150.5h0c-.2,0-.4,0-.6,0-.5,0-1.2-.1-1.2.7,0,.8.6.8,1.1.8.5,0,1,0,1.5,0,.5,0,.7-.3.6-.8,0-.4-.2-.7-.6-.7-.3,0-.6,0-.9,0Z"/>
  <path class="cls-10" d="M453.8,132.7c-.4-1.8.2-2.2,1.6-2.1.8,0,1.6,0,2.4,0,.7,0,1.4,0,1.3-.9,0-.3.1-.5.4-.5.3,0,.5.2.4.5,0,1,.6.9,1.3.9.7,0,1.4,0,2.1,0,2,0,2.6.8,2,2.8,0,.3-.2.5-.5.5-.3,0-.4-.3-.4-.5.4-2-1-1.8-2.3-1.8-2.2,0-4.4,0-6.6,0-.7,0-1.1.2-1.1,1,0,.4.4,1.3-.5,1.2-.7,0-.2-1-.2-1.1Z"/>
  <path class="cls-12" d="M363.5,127.7c-2.5,2.4-7,1.9-9.4-1.1-.3-.4-.6-.9-.9-1.4-1-2.8-.8-5.4,1.4-7.6,0,0,.1,0,.2.1-.1.3-.2.6-.4.8-1.7,2.3-1.7,5.6,0,7.8,1.9,2.4,5,3.1,7.8,1.8.4-.2.8-.5,1.3-.4Z"/>
  <path class="cls-5" d="M313.5,124.2c-.8-.7-1.1-1.6-1.6-2.5-.6-3.1-.1-5.7,2.6-7.6,0,0,0,0,0,0,0,.5-.4.8-.7,1.1-1.6,1.9-2.2,4-1.4,6.4.3.8.8,1.6,1.2,2.4,0,0-.1.1-.2.2Z"/>
  <path class="cls-5" d="M325.4,121.6c-.9.8-.9,2.2-2.1,2.7,0,0,0,0,0,0,0-.2.1-.5.3-.7,1.8-2.5,1.9-5.1.2-7.8-.1-.2-.1-.6-.2-.9h0c1.6,1.5,2,3.4,1.8,5.5,0,.4-.4.7,0,1.1Z"/>
  <path class="cls-10" d="M461.4,150.2c0,.7,0,1.5,0,2.2,0,.3,0,.6-.5.6-.3,0-.4-.3-.4-.6,0-1.4,0-2.9,0-4.3,0-.4.2-.7.6-.7.6,0,.3.5.3.8,0,.6,0,1.3,0,1.9,0,0,0,0,0,0Z"/>
  <path class="cls-5" d="M314.5,114.1c2.8-2.1,6.3-1.9,8.8.6,0,0,0,0,0,0-.5,0-.9-.3-1.3-.5-1.5-.9-3.2-1.2-5-.8-.8.2-1.5.8-2.4.8h0Z"/>
  <path class="cls-12" d="M354.6,117.6c2-2.5,6.8-2.8,8.6-.8h0c-1.8-.6-3.6-1.2-5.6-.6-1.1.3-1.8,1.2-2.8,1.5,0,0-.1,0-.2-.1Z"/>
  <path class="cls-12" d="M366.3,123.4c-.3,1.2-.7,2.5-1.6,3.4,0-1.3,1.1-2.3,1.2-3.6.2-1.7-.6-3.2-.9-4.8h0c1.3,1.5,1.5,3.2,1.3,5Z"/>
  <path class="cls-3" d="M345.1,113c.8,0,.7.6.8,1.1.1.9-.7.6-1.1.7-.8.2-.9-.6-.9-1,0-1,1-.2,1.2-.8Z"/>
  <path class="cls-3" d="M379.8,117.3c-.4.4-.5,1.2-1.2.9-.4-.1-1.1-.2-1.1-.8,0-.4.3-1.2,1-1,.5,0,1.1.2,1.2.9Z"/>
  <path class="cls-3" d="M348.6,114.1c-1.1.3-1.3-.2-1.3-.8-.1-1,.8-.6,1.2-.8,1-.3.7.7.7,1,.2.8-.6.5-.7.6Z"/>
  <path class="cls-3" d="M339.4,116c-.3.6-1,.7-1.5.7-.5,0-.8-.7-.8-1.1,0-.8.9-.7,1.3-.8.7,0,.6.8.9,1.1Z"/>
  <path class="cls-3" d="M362.4,113.9c-.7-.2-1.5,0-1.3-.9.1-.6.2-1.1,1-.9.5.1,1.2,0,1,.9-.1.6-.2,1.1-.7.9Z"/>
  <path class="cls-3" d="M336.2,117.2c-.3.6-.9.8-1.4.8-.6,0-1-.8-.9-1.2,0-.5.8-.7,1.3-.7.7,0,.6.7,1,1.1Z"/>
  <path class="cls-3" d="M325.5,122.3c0-.2,0-.4-.1-.6,1-.9,1.7-.7,2.3.4-.7.7-1.4,1.3-2.2.2Z"/>
  <path class="cls-3" d="M385.4,120.9c-.3.4-.6,1-1.2,1-.5,0-1.2-.4-1.2-.9,0-.5.5-1,1.1-1,.5,0,.9.5,1.2,1Z"/>
  <path class="cls-3" d="M342.6,115c-.3.5-.8.6-1.3.6-.8,0-.9-.7-.9-1.1,0-.7.8-.6,1.2-.7.8-.2.7.6,1,1.2Z"/>
  <path class="cls-3" d="M373.5,114.8c-.4.3-.2,1.2-.9,1.1-.4,0-1.2,0-1.2-.8,0-.4,0-1.1.7-1.1.5,0,1.2,0,1.5.8Z"/>
  <path class="cls-3" d="M355.3,113.5c-.7.1-1.1-.1-1.1-.9,0-.8.5-.7,1-.7.7,0,1,.1,1,.9,0,.7-.3.8-.9.8Z"/>
  <path class="cls-3" d="M381.6,118c.3.4,1.2.3,1.1,1,0,.4-.5,1.1-1.1,1-.4,0-1.2-.4-1.2-.9,0-.4.5-1,1.1-1Z"/>
  <path class="cls-3" d="M351.7,112.1c.9-.1,1,.3,1,.9,0,1-.7.7-1.2.8-.9.2-.7-.6-.7-1-.1-.9.6-.7.9-.8Z"/>
  <path class="cls-3" d="M375.5,115c.3.4,1.2.2,1.2.8,0,.4-.2,1.3-1.1,1-.4-.1-1.2,0-1.1-.8,0-.4.2-1.1,1-1.1Z"/>
  <path class="cls-3" d="M369,113.2c.4.1,1.2,0,1,.7,0,.4,0,1.3-.9,1-.4-.1-1.3.2-1.1-.8.1-.5.1-1.2,1-.9Z"/>
  <path class="cls-3" d="M330.7,118.1c.8-.1,1.4-1.4,2.2,0,.4.6.2.8-.3,1.1-1.2.8-1.3-.4-1.9-1Z"/>
  <path class="cls-3" d="M329.1,121.1c-.5-.3-1-.6-1-1.1,0-.6.8-.9,1.2-.9.5,0,1,.7,1,1.1,0,.5-.8.6-1.2.9Z"/>
  <path class="cls-3" d="M365.6,114.2c-.6,0-1.1,0-1-.8,0-.7.3-1,1-.8.4.1,1.1,0,1,.8,0,.6-.2,1.1-1,.9Z"/>
  <path class="cls-3" d="M389.1,124.1c.5.3,1,.7,1,1.2,0,.5-.7.9-1.2.8-.5,0-1-.5-1-1,0-.6.7-.7,1.2-1Z"/>
  <path class="cls-3" d="M387.8,123c-.2.5-.7.9-1.1.9-.5,0-1.1-.5-1.1-1,0-.5.6-1,1.2-.9.5,0,.9.5,1,1Z"/>
  <path class="cls-10" d="M456.9,120.1c0,.4,0,.8-.3.8-.3,0-.4-.2-.5-.4-.2-.4-.3-.7-.4-1.1-.1-.5-1-1.2-.2-1.5.7-.3.7.7,1,1.2.2.3.3.7.4,1Z"/>
  <path class="cls-10" d="M464,117.9c-.4.8-.8,1.7-1.2,2.5-.2.3-.3.7-.8.5-.4-.2-.1-.6,0-.8.6-.8.4-2.2,2-2.2Z"/>
  <path class="cls-3" d="M391.7,126.8c-.1.7-.4,1.2-.9,1.7-.4-.4-1.2-.8-.8-1.3.2-.4.9-1.2,1.7-.4Z"/>
  <path class="cls-3" d="M358.5,113.5c-.7.1-.8-.3-.8-.9,0-.9.5-.7,1.1-.8.6,0,.8.2.8.9,0,.9-.6.8-1.1.7Z"/>
  <path class="cls-12" d="M363.2,116.8c.9.2,1.4.8,1.8,1.5,0,0,0,0,0,0-.9-.2-1.3-.9-1.8-1.5h0Z"/>
  <path class="cls-5" d="M323.3,114.7c0,.1.2.2.3.3,0,0,0,0,0,0,0,0-.2-.2-.3-.3h0Z"/>
  <path class="cls-10" d="M390.9,37.3c.5.5.2,1.1.2,1.7,0,11.9-.1,23.9,0,35.8,0,4.4-4.5,9.6-9.9,6.6-.1,0-.3,0-.4,0-.2-1.5,1.4-.7,1.9-1.5-1.3-.4-1.3-1.5-.8-3-1.1,1-1.9,1.5-2.9.7-.5-.4-.5.2-.5.5-.7-1-.8-2.2-.8-3.4,0-12.4,0-24.9,0-37.3,0-.3,0-.7.2-1,.9,3.2,3.2,5.2,6,5.4,3.3.2,5.7-1.3,7-4.5Z"/>
  <path class="cls-7" d="M390.9,37.3c-1.3,3.2-3.7,4.7-7,4.5-2.9-.2-5.1-2.2-6-5.4-.2-3.9,1-6.2,4-7.5,2.5-1.1,4.9-.7,7,1,2,1.6,2.7,3.7,2.3,6.3,0,.4-.2.8-.2,1.2Z"/>
  <path class="cls-3" d="M378.5,78.1c0-.3,0-.9.5-.5,1,.9,1.8.4,2.9-.7-.5,1.5-.5,2.6.8,3-.5.8-2.1,0-1.9,1.5-.3.1-.4,1.1-.8.4-.5-1.1-1.4-1.3-2.5-1.2.4-.9,2-1.3.9-2.5Z"/>
  <path class="cls-2" d="M374.6,81.9c-.4-.5-1.1-.5-1.1-1.4,0-.6-.8,0-1.2-.4.3-.3.6-.1,1-.1.6,0,.2-.5.5-.8.3-.2-.3-.4-.5-.4-1.2.1-1.1-.6-1.1-1.4.9,0,1.5,1.1,2.4.3,0,1.4,0,2.8,0,4.2Z"/>
  <path class="cls-2" d="M374.1,75.6c-.3-.1-.8,0-.7-.5.1-.6.7-.4,1.1-.5,0,.4,0,.8-.5,1Z"/>
  <path class="cls-2" d="M374.3,76.4c-.6,0-1.3,0-1.9-.1h0c.6-.2,1.3-.3,1.9-.4,0,.2,0,.3,0,.5Z"/>
  <path class="cls-2" d="M374,74.1s0,0,0,.1c0,0,0-.1,0-.2,0,0,0,0,0,0,0,0,0,.1,0,.2Z"/>
  <path class="cls-2" d="M456.3,19.4c0,.9.2,1.7-1.2,1.7-1.5,0-1.1-1-1.2-1.8,0-.9,0-1.6,1.3-1.6,1.4,0,1.1.9,1.1,1.7Z"/>
  <path class="cls-2" d="M456.3,15.2c0,1,.1,1.7-1.2,1.7-1.6,0-1.1-1-1.2-1.8,0-.8-.1-1.5,1.2-1.5,1.5,0,1.3.9,1.2,1.7Z"/>
  <path class="cls-4" d="M119.6,128.4c1.1.4,2.1,0,3.1-.5,0,.5-.1,1.1-.1,1.6,0,7.9,0,15.7,0,23.6-.7-.8-1.6-1-2.6-.8-.3,0-.6,0-.9-.1,0-7.9,0-15.7,0-23.6.2,0,.4-.1.6-.2Z"/>
  <path class="cls-6" d="M119.9,152.3c-.3.2-.6.5-1,.7,0-.3,0-.5.1-.8.3,0,.6,0,.9.1Z"/>
  <path class="cls-6" d="M119.6,128.4c-.2,0-.4.1-.6.2,0-.1,0-.2-.1-.4.3,0,.5,0,.7.2Z"/>
  <path class="cls-6" d="M118.2,127.3c.4,0,.5.3.5.6-.2-.2-.3-.4-.5-.6Z"/>
  <path class="cls-6" d="M118.6,127.9c.2,0,.3.1.3.3-.1-.1-.2-.2-.3-.3Z"/>
  <path class="cls-6" d="M118.8,153.2c-.2.1-.3.2-.5.3,0-.2.2-.3.5-.3Z"/>
  <path class="cls-6" d="M177.8,148.9c0,.9,0,1.8,0,2.7-.8-.9-.8-1.8,0-2.7Z"/>
  <path class="cls-6" d="M177.8,121.9c0,.8,0,1.6,0,2.4-.6-.8-1-1.6,0-2.4Z"/>
  <path class="cls-6" d="M178.8,148.2c-.2.4-.4.8-1,.8,0-.4.3-.7.6-.9.1,0,.3,0,.4.1Z"/>
  <path class="cls-6" d="M178.4,124.9c.1,0,.2.2.4.2-.1,0-.3,0-.4,0,0-.1,0-.2,0-.3Z"/>
  <path class="cls-6" d="M178.1,124.6c.2,0,.3.1.3.3-.2,0-.3-.1-.3-.3Z"/>
  <path class="cls-6" d="M177.8,124.3c.2,0,.3.1.3.3-.2,0-.3-.1-.3-.3Z"/>
  <path class="cls-6" d="M122.8,153.5c-.1-.1-.2-.2-.3-.3.1.1.2.2.3.3Z"/>
  <path class="cls-6" d="M178.4,152.3c.1,0,.2.1.3.2-.1,0-.2,0-.4,0,0-.1,0-.2,0-.3Z"/>
  <path class="cls-6" d="M178.1,151.9c.1.1.2.2.3.3-.2,0-.3-.1-.3-.3Z"/>
  <path class="cls-6" d="M177.8,151.6c.2,0,.3.1.3.3-.2,0-.3-.1-.3-.3Z"/>
  <path class="cls-6" d="M179.6,152.8c.3,0,.6,0,.9,0-.3.3-.6.3-.9,0Z"/>
  <path class="cls-6" d="M178.8,152.5c.2,0,.4.2.6.3-.3,0-.5,0-.6-.3Z"/>
  <path class="cls-5" d="M363.2,116.8c.5.6.9,1.3,1.8,1.5.3,1.6,1.1,3,.9,4.8-.2,1.3-1.2,2.3-1.2,3.6,0,.3-.3.5-.6.6-.3,0-.5,0-.6.3,0,0,0,0,0,0-.5,0-.9.2-1.3.4-2.7,1.3-5.9.5-7.8-1.8-1.8-2.2-1.8-5.5,0-7.8.2-.2.2-.5.4-.8,1.1-.3,1.8-1.2,2.8-1.5,2-.6,3.8,0,5.6.6Z"/>
  <path class="cls-12" d="M363.5,127.7c0-.3.3-.3.6-.3-.1.3-.4.3-.6.3Z"/>
  <path class="cls-5" d="M323.3,124.4c-1.5,2.4-6.8,3.2-9.5.1,0,0,.1-.1.2-.2.2,0,.4,0,.6.2,2.4,1.8,4.8,2,7.4.5.4-.2.7-.7,1.3-.7h0Z"/>
  <path class="cls-5" d="M313.7,124.5c0,0-.2-.2-.3-.3,0,0,.1-.1.2-.2,0,0,.2.2.3.3,0,0-.1.1-.2.2Z"/>
  <path class="cls-8" d="M460.1,135.8c.5.1,1.5-.4,1.8.3.3.6-.5,1.3-.9,1.9-.7,1-3.5,1-4.1,0-.3-.4.7-2.1,1.3-2.2.6,0,1.2,0,1.9,0Z"/>
  <path class="cls-8" d="M456.5,149.9c-.7,0-1.7.2-1.7-1,0-1.2,1.1-.8,1.7-.8.6,0,1.5-.3,1.5.9,0,1.3-1,.8-1.6.9Z"/>
  <path class="cls-8" d="M456.6,150.5c.3,0,.6,0,.9,0,.4,0,.6.3.6.7,0,.5-.1.8-.6.8-.5,0-1,0-1.5,0-.5,0-1.2,0-1.1-.8,0-.8.6-.7,1.2-.7.2,0,.4,0,.6,0h0Z"/>
  <path class="cls-1" d="M313.9,124.3c0,0-.2-.2-.3-.3-.4-.8-.9-1.6-1.2-2.4-.8-2.4-.2-4.5,1.4-6.4.3-.3.7-.6.7-1.1.9,0,1.6-.6,2.4-.8,1.8-.4,3.4-.1,5,.8.4.3.8.6,1.3.5,0,0,.2.2.3.3,0,.3,0,.6.2.9,1.7,2.6,1.6,5.2-.2,7.8-.1.2-.2.4-.3.7-.6,0-.9.4-1.3.7-2.6,1.5-5.1,1.4-7.4-.5-.1-.1-.4-.1-.6-.2Z"/>
  <rect class="cls-8" x="442.7" y="89.5" width="57.3" height="64.4"/>
  <rect class="cls-8" x="0" y="50.8" width="27.8" height="103.2"/>
  <rect class="cls-2" x="0" y="-.4" width="33.9" height="103.7"/>
  <rect class="cls-2" x="442.7" width="57.3" height="103.2"/>
</svg>