<?xml version="1.0" encoding="UTF-8"?>
<svg id="daiei" xmlns="http://www.w3.org/2000/svg" version="1.1" viewBox="0 0 150 150">
  <defs>
    <style>
      .cls-1 {
        fill: #221714;
      }

      .cls-1, .cls-2, .cls-3 {
        stroke-width: 0px;
      }

      .cls-2 {
        fill: #413531;
      }

      .cls-3 {
        fill: #fff;
      }
    </style>
  </defs>
  <g>
    <rect class="cls-3" x="5.8" y="5.4" width="138.4" height="139.2" rx="8.3" ry="8.3"/>
    <path class="cls-2" d="M127.7,148.2H22.3c-11.1,0-20.1-9.1-20.1-20.2V22C2.2,10.9,11.3,1.8,22.3,1.8h105.3c11.1,0,20.1,9.1,20.1,20.2v105.9c0,11.1-9,20.2-20.1,20.2ZM22.3,9c-7.2,0-13,5.9-13,13.1v105.9c0,7.2,5.8,13.1,13,13.1h105.3c7.2,0,13-5.9,13-13.1V22c0-7.2-5.8-13.1-13-13.1H22.3Z"/>
  </g>
  <path class="cls-1" d="M33.6,55.9v7.6c3.8,1.1,8.5,1.4,14.2,1.4s21.7,0,26.9-.3c-1,1.5-2.1,4.4-2.5,6.3h-24.5c-12.1,0-20-1.2-25-8.3-.9,3.6-2.4,7-4.7,9.6-.9-1.4-2.6-3.5-4.1-4.4,3.7-4.5,4.2-12.1,4.4-19.5l7.4.6c0,.5-.6.8-1.4,1,0,1.6-.2,3.2-.3,4.9.9,2.1,2,3.7,3.2,5.1v-14.6h-11.8v-5.5h28.6v5.5h-10.4v5.2h9.2v5.5h-9.2ZM41.2,14.9v21.1h-22.8V14.9h22.8ZM34.2,23v-3h-9.1v3h9.1ZM34.2,30.9v-3.1h-9.1v3.1h9.1ZM46.1,24.7h7.1c.5-1.3,1-2.8,1.5-4.3h-11.4v-5.3h30.1v5.3h-12.1c-.6,1.3-1.2,2.9-1.8,4.3h10.9v28.9h-5.2c3.3,2.5,7.3,5.6,9.5,7.8l-6.3,2.5c-1.9-2.1-5.4-5.3-8.3-7.6l4.5-2.7h-13.1l5.7,2.1c-.2.6-.8.7-1.5.6-2.6,2.8-6.8,5.9-10.7,7.8-1-1.1-3.1-3.1-4.4-4.2,3.4-1.5,7-3.8,9.3-6.3h-3.8v-28.9ZM63.4,32.7v-2.9h-10.5v2.9h10.5ZM63.4,40.5v-2.9h-10.5v2.9h10.5ZM63.4,48.3v-3h-10.5v3h10.5Z"/>
  <path class="cls-1" d="M97.8,85.4v6h-22.6v-6h22.6ZM108,100l4.4,1.5c-.1.5-.4.8-.6,1.1-1.4,11.9-5.1,21.8-11.5,27.8-.9-1.6-2.9-4-4.5-5.4v6.3h-11.8v2.6h-6.2v-21.9h18v12.6c3.8-3.6,6.7-10.2,8.2-17.4h-6.6v-6.9h9.3l1.3-.2ZM95.7,94.4v5.8h-17.7v-5.8h17.7ZM78.1,108.8v-5.7h17.7v5.7h-17.7ZM95.5,76.8v5.8h-17.1v-5.8h17.1ZM89.7,125.3v-7.4h-5.6v7.4h5.6ZM120.8,95.3c.6,2.6,1.3,5.2,2,7.7,2.1-2.7,4.4-5.9,5.9-8.5l6.9,5.8c-.3.3-.7.4-1.2.4s-.5,0-.8,0c-2,2.5-5.7,6.2-8.5,8.6,2.7,6.2,6.2,11.4,10.8,14.5-1.6,1.3-4,4.2-5.2,6.2-4.2-3.6-7.4-8.9-9.9-15.1v11.5c0,7.3-3,8.2-12.6,8.2-.2-2-1.2-5.4-2.1-7.4,1.6.1,3.2.1,4.5.1,2.7,0,3,0,3-1.1v-31h-11.8v-6.9h19v7ZM108.3,74.8c5.9,1.3,14.3,4.1,18.6,6.4l-3.5,6.8c-4-2.4-12.3-5.5-18.4-7.2l3.3-6Z"/>
</svg>