<?xml version="1.0" encoding="UTF-8"?>
<svg id="honka" xmlns="http://www.w3.org/2000/svg" version="1.1" viewBox="0 0 150 150">
  <defs>
    <style>
      .cls-1 {
        fill: #221714;
      }

      .cls-1, .cls-2, .cls-3 {
        stroke-width: 0px;
      }

      .cls-2 {
        fill: #413531;
      }

      .cls-3 {
        fill: #fff;
      }
    </style>
  </defs>
  <g>
    <rect class="cls-3" x="5.8" y="5.4" width="138.4" height="139.2" rx="10.6" ry="10.6"/>
    <path class="cls-2" d="M122.9,148.2H27.1c-13.7,0-24.8-11.2-24.8-25V26.8C2.2,13,13.4,1.8,27.1,1.8h95.9c13.7,0,24.8,11.2,24.8,25v96.4c0,13.8-11.1,25-24.8,25ZM27.1,9c-9.8,0-17.7,8-17.7,17.8v96.4c0,9.8,8,17.8,17.7,17.8h95.9c9.8,0,17.7-8,17.7-17.8V26.8c0-9.8-8-17.8-17.7-17.8H27.1Z"/>
  </g>
  <path class="cls-1" d="M82.7,109.8c-5.9,0-7.9.1-8.2.1-.6,0-.7,0-.7-.7v-4.4c0-.6,0-.7.7-.7s2.4.1,8.2.1h14.9c5.9,0,7.9-.1,8.2-.1.7,0,.8,0,.8.7v4.4c0,.6,0,.7-.8.7s-1.4,0-3.7,0v8.4c0,3,0,5.8,0,7.8s0,1.7-.1,2.3c7.6-6.6,10.7-16.1,10.7-26.3s0-4.8-.4-7.1c2.1.1,4.3.2,6.4.6.6,0,1,.3,1,.7s-.1.9-.4,1.5c-.3.6-.3,1.6-.4,3.6,0,.3,0,.5,0,.7,1.9,12.4,7.1,21.2,15.1,26.5-1.1,1-2.1,2.4-3.2,4.4-.4.9-.7,1.3-1,1.3s-.7-.3-1.4-.9c-5.6-5.2-9.3-11.7-11.4-19.3-1.6,8-5,13.7-10.8,19.5-.6.6-1,.9-1.4.9s-.8-.4-1.4-1.2c-.8-.9-1.5-1.6-2.1-2.2-.3.5-.6,1-1.2,1.4-1.4,1-2.8,1.5-6.8,1.5q-2,0-2.3-2c-.2-1.2-.5-2.2-1.4-3.6,2.3.3,3.3.3,4.7.3s2-.6,2-2.2v-16.8h-13.6ZM83.2,84.4c-5.8,0-7.7.1-8,.1-.6,0-.7,0-.7-.7v-4.2c0-.6,0-.7.7-.7s2.3.1,8,.1h14.5c5.8,0,7.8-.1,8.2-.1.6,0,.7,0,.7.7v4.2c0,.6,0,.7-.7.7s-1.4,0-3.7,0v3.2c0,2.9,0,5.6,0,7.6,0,3.4-.3,5.2-1.7,6.2-1.3,1-3,1.5-6.2,1.5s-1.9,0-2.2-1.2l-.6-1.9c-.7,0-1.9,0-3.7,0h-5.1c-3.3,0-4.4.1-4.8.1-.6,0-.7,0-.7-.8s.1-1.3.1-3.8v-3.8c0-2.5-.1-3.4-.1-3.9,0-.6,0-.7.7-.7s1.5.1,4.8.1h5.1c3.4,0,4.4-.1,4.9-.1.6,0,.7,0,.7.7s-.1,1.4-.1,3.9v6.1h1.3c1.2,0,1.9-.1,1.9-2.1v-11.2h-13.2ZM93.2,120.1c0,5.1.1,6.2.1,6.6,0,.7,0,.8-.7.8h-3.2c-1.4,0-1.5,0-1.5-.8v-.8h-5.9v2.7c0,.6,0,.7-.7.7h-3.8c-.6,0-.7,0-.7-.7s.1-1.5.1-7.8v-3.3c0-2.8-.1-4-.1-4.5,0-.6,0-.7.7-.7s1.5.1,4.8.1h5.3c3.5,0,4.5-.1,5-.1.6,0,.7,0,.7.7s-.1,1.6-.1,3.6v3.6ZM82.1,116.7v4.7h5.9v-4.7h-5.9ZM88,91.2h-5.7v4.5h5.7v-4.5ZM113.7,91.7c-1.4,3.6-3,7-5.1,10.3-.5.8-.8,1.2-1.2,1.2s-.6-.3-1.2-1c-1.3-1.6-2.3-2.4-3.4-3.2,4.2-5.3,6.5-11.7,7.8-18.6.3-1.5.4-3.1.5-4.7,2.3.3,4.2.7,5.9,1.1.7.2,1.1.5,1.1.8s-.2.8-.6,1.3c-.4.5-.6,1.2-1,2.9-.3,1.4-.6,2.9-1,4.2h11.3c.6,0,1.1,0,1.3-.2.3-.1.6-.3.9-.3.5,0,1,.3,2.5,1.7,1.4,1.5,1.7,1.9,1.7,2.5s-.1.8-.4,1.2c-.2.3-.3.7-.6,1.7-1.2,4.5-2.4,8.5-4.2,12.7-.5,1-.6,1.5-1,1.5s-.6-.3-1.4-.8c-1.5-1.1-2.9-1.7-3.9-2.1,2.1-3.8,3.3-7.6,4.5-12.1h-12.4Z"/>
  <path class="cls-1" d="M44.6,76.8v-11.3h-11.4v-7.3h11.4v-16.5l-.7,1.3c-2.9,5.2-6.4,10.1-10.4,14.5l-.6.7-.3.3c-3.2,3.2-6.5,6.1-10,8.3-1.3-1.9-3.5-4.4-5.2-6,8.8-5,17.2-14.2,22.5-24.9l.3-.6h-20.4v-7.3h24.9v-12.9l8.3.4c.2.3.2.4.2.4,0,0,0,.1-.6.2h-.3v11.8h25.1v7.3h-20.7l.3.6c5.4,10.2,13.9,19.2,22.9,24.1-1.8,1.6-4.2,4.4-5.6,6.6-3.5-2.2-6.9-5-10.3-8.5h0l-.6-.7c-3.9-4.2-7.5-9.1-10.5-14.6l-.7-1.3v16.6h11v7.3h-11v11.3h-7.6Z"/>
</svg>