<?xml version="1.0" encoding="UTF-8"?>
<svg id="okuriuta" xmlns="http://www.w3.org/2000/svg" version="1.1" viewBox="0 0 150 150">
  <defs>
    <style>
      .cls-1 {
        fill: #221714;
      }

      .cls-1, .cls-2, .cls-3 {
        stroke-width: 0px;
      }

      .cls-2 {
        fill: #413531;
      }

      .cls-3 {
        fill: #fff;
      }
    </style>
  </defs>
  <g>
    <rect class="cls-3" x="4.5" y="4.1" width="140.9" height="141.7" rx="8.4" ry="8.4"/>
    <path class="cls-2" d="M128.3,149.5H21.7c-11.5,0-20.8-9.4-20.8-20.9V21.4C.9,9.9,10.2.5,21.7.5h106.6c11.5,0,20.8,9.4,20.8,20.9v107.2c0,11.5-9.3,20.9-20.8,20.9ZM21.7,7.8c-7.5,0-13.6,6.1-13.6,13.6v107.2c0,7.5,6.1,13.6,13.6,13.6h106.6c7.5,0,13.6-6.1,13.6-13.6V21.4c0-7.5-6.1-13.6-13.6-13.6H21.7Z"/>
  </g>
  <path class="cls-1" d="M35.4,61c1.2,2.4,2.5,3.9,4.9,5,2.1.8,5.8,1.2,11,1.2,7.7,0,16.7-.4,25.5-1.3-.8,1.2-1.4,2.9-1.6,4.6q-.3,1.9-2.2,2c-7.5.4-14.6.5-20.8.5s-11-.5-13.9-1.7c-2.7-1.1-4.3-2.8-5.8-5.3-1.8,1.8-3.9,3.6-6.1,5.2-.6.5-.9.8-1.2,1.2-.3.4-.5.5-.9.5s-.6-.2-.8-.7c-.8-1.6-1.6-3.5-2.4-5.6,1.5-.7,2.4-1.1,3.5-1.8,1.7-1.1,3.4-2.4,5-3.8v-13.2h-2.8c-3.2,0-4,.1-4.3.1-.7,0-.7,0-.7-.7v-4.5c0-.6,0-.7.7-.7s1.1.1,4.3.1h3.6c3.1,0,4.1-.1,4.4-.1.6,0,.7,0,.7.7s-.1,2-.1,5.7v12.7ZM26.8,21.7c.6-.4.8-.5,1.2,0,2.6,2.4,5.2,5.4,7.4,8.8.3.5.3.7-.4,1.2l-3.3,2.7c-.4.2-.5.4-.7.4s-.4-.1-.5-.4c-2.3-3.6-4.7-6.7-7.3-9.3-.4-.5-.4-.7.3-1.1l3.3-2.2ZM47.5,47.4c-5.8,0-7.7.1-8,.1-.6,0-.7,0-.7-.7v-4.2c0-.6,0-.7.7-.7s2.3.1,8,.1h5.2c.2-2,.2-4.2.1-6.8h-4.2c-5.5,0-7.5.1-7.8.1-.6,0-.6,0-.6-.7v-4.2c0-.7,0-.7.6-.7s2.1.1,7.2.1c-1.2-2.9-2.3-4.8-4-7-.4-.5-.2-.7.4-1l4-1.6c.8-.3.8-.3,1.2.2,1.6,2.1,2.7,3.9,3.9,6.4.2.6.1.8-.7,1.1l-4.4,1.7h8.8c1.5-2.5,2.7-4.8,3.6-6.8.4-.9.7-1.9,1-3.3,2.3.5,4.2,1.1,6.1,1.7.5.2.8.5.8.8s-.2.8-.7,1.1c-.5.4-.8.8-1.1,1.4-1.1,1.9-2,3.5-3.1,5.1h.5c5.6,0,7.5-.1,7.8-.1.6,0,.7,0,.7.7v4.2c0,.6,0,.7-.7.7s-2.3-.1-7.8-.1h-5.5c0,2.5-.1,4.8-.4,6.8h7.2c5.8,0,7.7-.1,8.1-.1.6,0,.7,0,.7.7v4.2c0,.6,0,.7-.7.7s-2.3-.1-8.1-.1h-6.2c2.8,5,7.7,9.1,15.9,11.3-.8,1-1.7,2.4-2.3,4.1-.4,1.2-.7,1.7-1.2,1.7s-.7-.1-1.3-.4c-6.8-2.4-11.4-7-14.3-12.2-2.2,5.1-6.1,8.7-12.8,12-.7.4-1.1.5-1.4.5s-.7-.5-1.2-1.5c-.8-1.5-1.8-2.6-2.8-3.5,7.8-3,12-6,13.8-12.1h-4.2Z"/>
  <path class="cls-1" d="M99,23.7c.8.3,1.1.7,1.1,1.2s-.1.6-.4,1c-.4.5-.7,1.3-1.1,2.8-.8,4.1-1.3,8.3-1.7,11.4-.1,2.2-.3,4.4-.2,6.6,1.3-2.3,2.6-4.6,4.2-7.6.5,1.8,1.1,2.9,1.8,3.9.3.4.4.7.4,1,0,.5-.2,1-.6,1.5-1.3,2.5-2.7,5-3.5,7.6-.2.5-.2,1.1-.3,1.8,0,.6-.2.8-.8,1-.7.2-3.3.5-4.7.7-.4,0-.7-.4-.8-.8-1-2.6-1.8-7.2-1.8-12.1s.7-8.9,1.4-14.9c.2-2.1.5-4.1.5-6.8,2.7.5,4.9,1.1,6.5,1.8ZM118.3,22.7c1.2.3,1.3.6,1.2,1.6-.1.8-.1,1.9-.1,2.7.4,5.7.8,11.1.8,15.4,0,8.5-1.4,15.8-4.5,20.7-2.3,3.7-6.1,7.2-9.8,9.6-.4.3-.8.4-1.2.4s-.8-.2-1.2-.7c-1.3-1.1-3.1-2.2-5-2.7,4.8-2.7,7.7-4.8,10.1-8,3.4-4.7,5-9.6,5-19s-.3-10.4-.7-14.3c-.3-2.9-.6-4.4-1.2-6.5,2.6.1,5,.2,6.8.7Z"/>
  <path class="cls-1" d="M85.9,108c-5.4,0-7.2.1-7.6.1-.6,0-.7,0-.7-.7v-4.1c0-.6,0-.7.7-.7s2.2.1,7.6.1h13.8c5.4,0,7.2-.1,7.6-.1.7,0,.7,0,.7.7v4.1c0,.6,0,.7-.7.7s-1.2,0-3.4,0v7.8c0,2.8,0,5.3,0,7.2s0,1.6-.1,2.2c7-6.1,9.9-14.9,9.9-24.2s0-4.4-.4-6.5c2,.1,4,.2,5.9.5.6,0,.9.3.9.7s-.1.8-.4,1.4c-.2.6-.3,1.5-.4,3.3,0,.2,0,.5,0,.7,1.8,11.4,6.6,19.5,13.9,24.5-1,.9-2,2.2-2.9,4.1-.4.8-.7,1.2-.9,1.2s-.7-.2-1.3-.8c-5.2-4.8-8.6-10.7-10.5-17.8-1.5,7.3-4.6,12.7-10,18-.6.5-.9.8-1.3.8s-.7-.4-1.3-1.1c-.7-.8-1.4-1.5-2-2-.2.5-.6,1-1.1,1.3-1.3,1-2.6,1.4-6.3,1.4q-1.8,0-2.1-1.8c-.2-1.1-.5-2-1.2-3.3,2.1.2,3,.2,4.3.2s1.8-.5,1.8-2v-15.5h-12.6ZM86.3,84.6c-5.3,0-7.1.1-7.4.1-.6,0-.7,0-.7-.7v-3.9c0-.6,0-.7.7-.7s2.1.1,7.4.1h13.4c5.3,0,7.2-.1,7.5-.1.6,0,.7,0,.7.7v3.9c0,.6,0,.7-.7.7s-1.2,0-3.4,0v2.9c0,2.7,0,5.1,0,7,0,3.2-.3,4.8-1.5,5.7-1.2.9-2.7,1.4-5.8,1.4s-1.7,0-2-1.1l-.5-1.7c-.7,0-1.7,0-3.4,0h-4.7c-3.1,0-4,.1-4.5.1-.6,0-.7,0-.7-.7s.1-1.2.1-3.5v-3.5c0-2.3-.1-3.2-.1-3.6,0-.6,0-.7.7-.7s1.4.1,4.5.1h4.7c3.1,0,4.1-.1,4.5-.1.6,0,.7,0,.7.7s-.1,1.3-.1,3.6v5.7h1.2c1.1,0,1.7-.1,1.7-1.9v-10.3h-12.2ZM95.6,117.5c0,4.7.1,5.7.1,6.1,0,.7,0,.7-.7.7h-2.9c-1.3,0-1.4,0-1.4-.7v-.8h-5.5v2.5c0,.6,0,.7-.7.7h-3.5c-.6,0-.7,0-.7-.7s.1-1.4.1-7.2v-3c0-2.6-.1-3.7-.1-4.1,0-.6,0-.7.7-.7s1.4.1,4.4.1h4.9c3.2,0,4.2-.1,4.6-.1.6,0,.7,0,.7.7s-.1,1.5-.1,3.3v3.3ZM85.3,114.4v4.4h5.5v-4.4h-5.5ZM90.8,90.9h-5.2v4.1h5.2v-4.1ZM114.4,91.3c-1.2,3.3-2.7,6.4-4.7,9.5-.5.7-.8,1.1-1.1,1.1s-.6-.3-1.1-1c-1.2-1.4-2.1-2.2-3.1-2.9,3.9-4.9,6-10.8,7.2-17.2.2-1.4.4-2.9.5-4.3,2.1.2,3.9.7,5.5,1,.7.2,1,.4,1,.8s-.2.7-.5,1.2c-.4.5-.5,1.1-.9,2.7-.3,1.3-.6,2.6-.9,3.9h10.4c.5,0,1,0,1.2-.2.2-.1.5-.3.8-.3.5,0,1,.2,2.3,1.6,1.3,1.4,1.5,1.8,1.5,2.3s-.1.8-.4,1.1c-.2.3-.3.7-.6,1.5-1.1,4.1-2.3,7.8-3.9,11.7-.4,1-.6,1.4-1,1.4s-.6-.3-1.2-.8c-1.4-1-2.7-1.5-3.6-1.9,1.9-3.5,3.1-7,4.2-11.2h-11.4Z"/>
</svg>