<?xml version="1.0" encoding="UTF-8"?>
<svg id="sonota" xmlns="http://www.w3.org/2000/svg" version="1.1" viewBox="0 0 150 150">
  <defs>
    <style>
      .cls-1 {
        fill: #221714;
      }

      .cls-1, .cls-2, .cls-3 {
        stroke-width: 0px;
      }

      .cls-2 {
        fill: #413531;
      }

      .cls-3 {
        fill: #fff;
      }
    </style>
  </defs>
  <rect class="cls-3" x="5.8" y="5.4" width="138.4" height="139.2" rx="8.3" ry="8.3"/>
  <g>
    <path class="cls-2" d="M127.7,148.2H22.3c-11.1,0-20.1-9.1-20.1-20.2V22.1C2.2,10.9,11.3,1.8,22.3,1.8h105.3c11.1,0,20.1,9.1,20.1,20.2v105.9c0,11.1-9,20.2-20.1,20.2ZM22.3,9c-7.2,0-13,5.9-13,13.1v105.9c0,7.2,5.8,13.1,13,13.1h105.3c7.2,0,13-5.9,13-13.1V22.1c0-7.2-5.8-13.1-13-13.1H22.3Z"/>
    <path class="cls-1" d="M46.8,45.2c-8.6,2.3-14.1,4.4-19.1,6.1-.4.2-1.3.6-1.7.6s-.9-.4-1.2-1.2c-.6-1.2-1.2-2.8-1.9-4.8,1.3-.3,1.8-.5,3-.9,1.1-.5,3-1.5,5.6-3.4,5-3.9,10.4-9.2,16.5-15.3-3.5,1-6.7,1.6-10.3,2.3-.9.2-1.3.2-2.2.5-.5.2-1.1.6-1.6.6s-1-.5-1.4-1.3c-.5-.9-1.3-3.1-2.1-5.8,1.9.2,3.8.2,5.7.1,3.9-.3,8.1-1,13.2-1.8,1.6-.2,2.3-.5,3.1-1,.4-.3.8-.4,1.1-.4.5,0,.9.3,1.6.9.9.7,2,1.8,2.8,2.9.5.6.7,1.1.7,1.6s-.3,1-1,1.3c-.9.5-1.6,1.1-2.4,1.8-6,5.4-11,9.7-17.6,14.7v.2c9.7-2.8,17.6-4.7,28.1-6.4.8-.1,1,.3,1.1.9.2.9.5,2.6.6,4.7,0,.6-.3.8-.9.8-4.3.3-7.2.7-10.8,1.9-6.7,2.3-9.9,6.5-9.9,10.7s6.1,7.3,14.5,7.3.9.3.9,1c-.1,1.5-.6,3.9-.8,4.9-.1.9-.5,1.3-1.3,1.3s-2.4-.2-3.8-.3c-10.9-1.1-15.7-6.1-15.7-13.2s2.3-8.6,7.1-11.3h0Z"/>
    <path class="cls-1" d="M102.7,31.4c-1.4,10.6-4,20.3-7.7,26.8-2.7,4.7-5.9,7.2-10.5,7.2s-11-5.8-11-16,2.5-11.7,7-16.2c5.2-5.2,11.8-8,20.1-8,14.9,0,23.6,9.2,23.6,21.6s-6.5,18.9-19.1,22.7c-1.3.4-1.9.1-2.7-1.1-.7-1.1-2-2.5-4.3-3.9,10.5-2.5,18.7-6.9,18.7-18.6s-5.6-14.4-13.9-14.4h-.2ZM85,37.4c-3,3.4-4.8,7.5-4.8,11.5,0,5.7,2.3,8.9,4.2,8.9s3-.8,4.6-3.8c2.7-5,5.5-14,6.6-22.3-4.3.9-7.8,2.6-10.6,5.7Z"/>
    <path class="cls-1" d="M81,104.4c0-2,0-4.5,0-6.9-1.2,1.6-2.4,3.2-3.7,4.7-.5.5-.8.8-1,.8-.3,0-.6-.3-.8-1-.5-1.9-1.3-3.9-2.1-5,5.1-5.4,8.6-11.6,11.1-18.8.5-1.3.8-2.7,1-4.3,1.9.5,3.8,1,5.5,1.7.6.2.9.5.9.9s-.2.6-.6,1c-.4.3-.7.8-1.3,2.4-.9,2.7-2.1,5.3-3.3,7.9v29.9c0,5.7.1,8.5.1,8.9,0,.5,0,.6-.6.6h-4.8c-.6,0-.6,0-.6-.6s.1-3.2.1-8.9v-13.2ZM99.9,116.7c0,1.8.6,2.5,1.8,2.9,1.2.4,3.4.5,7.9.5s8.4-.6,9.7-1.5c1.1-.8,1.8-2.7,1.9-7.5,1.3.8,2.8,1.3,4.6,1.9q1.5.5,1.4,1.9c-.4,4.4-1.3,7.3-3.2,8.6-2.5,1.8-6.4,2.3-15,2.3s-9.7-.2-11.7-1.1c-2-.8-3.4-2.2-3.4-5.8v-18.7l-3.7,1.2c-.6.2-.7.1-.8-.5l-.9-4.4c-.1-.6-.1-.6.5-.8.5-.1,1.9-.5,5-1.4v-7c0-3-.1-5-.3-6.7,1.9,0,4.1.1,5.9.3.8.1,1.1.4,1.1.7s-.1.6-.3,1.1c-.3.6-.3,1.2-.3,3.2v6.5l5.7-1.8v-7.9c0-3.9-.1-6.1-.5-8.3,2.3,0,4.1.2,6.1.4.6,0,.9.3.9.6,0,.5-.1.8-.3,1.2-.3.7-.4,2.2-.4,6.5v5.6l4.6-1.5c5.5-1.7,7.1-2.4,7.5-2.5.4-.1.7.2.7.6v5.3c-.3,8.9-.8,13-1.4,15.6-.8,3-2.4,4.1-5,4.1s-1.6,0-2.7-.2q-1.2-.1-1.5-1.9c-.2-1.3-.7-2.9-1.2-3.8,1.5.3,2.3.3,3.2.3s1.6-.6,1.9-2.2c.5-2.8.6-5.3.6-10.6l-6.8,2.2v9.8c0,5.7.1,8.5.1,8.8,0,.6,0,.6-.6.6h-4.8c-.6,0-.7,0-.7-.6s.1-3.1.1-8.8v-7.9l-5.7,1.9v18.4Z"/>
  </g>
</svg>