<?xml version="1.0" encoding="UTF-8"?>
<svg id="utaawase" xmlns="http://www.w3.org/2000/svg" version="1.1" viewBox="0 0 150 150">
  <defs>
    <style>
      .cls-1 {
        fill: #221714;
      }

      .cls-1, .cls-2, .cls-3 {
        stroke-width: 0px;
      }

      .cls-2 {
        fill: #413531;
      }

      .cls-3 {
        fill: #fff;
      }
    </style>
  </defs>
  <g id="utaawase-2" data-name="utaawase">
    <rect class="cls-3" x="4.7" y="5.9" width="138.4" height="139.2" rx="15.5" ry="15.5"/>
    <g>
      <path class="cls-2" d="M123.2,148.2H26.8c-13.5,0-24.5-11.1-24.5-24.7V26.5C2.2,12.9,13.3,1.8,26.8,1.8h96.4c13.5,0,24.5,11.1,24.5,24.7v97c0,13.6-11,24.7-24.5,24.7ZM26.8,9c-9.6,0-17.5,7.9-17.5,17.6v97c0,9.7,7.8,17.6,17.5,17.6h96.4c9.6,0,17.5-7.9,17.5-17.6V26.5c0-9.7-7.8-17.6-17.5-17.6H26.8Z"/>
      <path class="cls-1" d="M26.7,49.6c-6.2,0-8.3.1-8.8.1-.7,0-.8,0-.8-.8v-4.7c0-.7,0-.8.8-.8s2.5.1,8.8.1h15.9c6.2,0,8.3-.1,8.8-.1.8,0,.8,0,.8.8v4.7c0,.7,0,.8-.8.8s-1.4,0-4,0v8.9c0,3.2,0,6.1,0,8.3s0,1.8-.1,2.5c8.1-7,11.4-17.1,11.4-27.9s0-5.1-.4-7.5c2.3.1,4.6.2,6.8.6.7,0,1,.3,1,.8s-.1,1-.4,1.6c-.3.7-.3,1.7-.4,3.9,0,.3,0,.5,0,.8,2.1,13.1,7.6,22.5,16,28.2-1.2,1-2.3,2.5-3.4,4.7-.5,1-.8,1.4-1.1,1.4s-.8-.3-1.5-1c-6-5.5-9.9-12.4-12.1-20.5-1.7,8.5-5.3,14.6-11.5,20.7-.7.6-1.1,1-1.5,1s-.8-.4-1.5-1.3c-.8-1-1.6-1.7-2.3-2.3-.3.5-.7,1.1-1.2,1.5-1.5,1.1-2.9,1.6-7.3,1.6q-2.1,0-2.5-2.1c-.2-1.2-.6-2.3-1.4-3.8,2.5.3,3.5.3,5,.3s2.1-.6,2.1-2.3v-17.8h-14.5ZM27.2,22.5c-6.2,0-8.2.1-8.6.1-.7,0-.8,0-.8-.8v-4.5c0-.7,0-.8.8-.8s2.4.1,8.6.1h15.4c6.2,0,8.3-.1,8.7-.1.7,0,.8,0,.8.8v4.5c0,.7,0,.8-.8.8s-1.4,0-4,0v3.4c0,3.1,0,5.9,0,8.1,0,3.6-.3,5.5-1.8,6.6-1.4,1-3.1,1.6-6.6,1.6s-2,0-2.3-1.3l-.6-2c-.8,0-2,0-4,0h-5.4c-3.6,0-4.7.1-5.1.1-.7,0-.8,0-.8-.8s.1-1.4.1-4.1v-4.1c0-2.7-.1-3.6-.1-4.1,0-.7,0-.8.8-.8s1.6.1,5.1.1h5.4c3.6,0,4.7-.1,5.2-.1.7,0,.8,0,.8.8s-.1,1.4-.1,4.1v6.5h1.4c1.3,0,2-.1,2-2.2v-11.9h-14ZM37.8,60.4c0,5.4.1,6.6.1,7,0,.8,0,.8-.8.8h-3.4c-1.5,0-1.6,0-1.6-.8v-.9h-6.3v2.9c0,.7,0,.8-.8.8h-4c-.7,0-.8,0-.8-.8s.1-1.6.1-8.3v-3.5c0-3-.1-4.3-.1-4.7,0-.7,0-.8.8-.8s1.6.1,5.1.1h5.6c3.7,0,4.8-.1,5.3-.1.7,0,.8,0,.8.8s-.1,1.7-.1,3.8v3.8ZM26,56.9v5h6.3v-5h-6.3ZM32.3,29.8h-6v4.7h6v-4.7ZM59.6,30.3c-1.4,3.8-3.1,7.4-5.4,10.9-.5.8-.9,1.2-1.2,1.2s-.7-.4-1.3-1.1c-1.4-1.6-2.4-2.5-3.6-3.4,4.5-5.6,6.9-12.5,8.3-19.8.3-1.6.5-3.3.5-5,2.5.3,4.5.8,6.3,1.2.8.2,1.2.5,1.2.9s-.2.8-.6,1.4c-.4.5-.6,1.2-1,3.1-.3,1.5-.7,3-1.1,4.5h12c.6,0,1.2,0,1.4-.2.3-.1.6-.3,1-.3.5,0,1.1.3,2.7,1.8,1.5,1.6,1.8,2.1,1.8,2.6s-.1.9-.5,1.3c-.2.3-.3.8-.7,1.8-1.2,4.7-2.6,9-4.5,13.5-.5,1.1-.7,1.6-1.1,1.6s-.7-.3-1.4-.9c-1.6-1.2-3.1-1.8-4.2-2.2,2.2-4.1,3.6-8.1,4.8-12.9h-13.1Z"/>
      <path class="cls-1" d="M90.5,95.2c-3.9,3.1-8.1,5.7-12.5,8-.8.4-1.2.7-1.6.7s-.7-.5-1.3-1.7c-.9-1.8-2-3.3-3.2-4.6,12.4-5.6,20.5-12.7,26-20.8,1.2-1.8,2-3.1,2.6-4.8,2.6.4,5.1.8,7.1,1.3.8.3,1.2.5,1.2,1.1s-.1.7-.7,1c-.2.1-.4.3-.5.5,8,10.3,17.4,16.7,28.9,20.7-1.1,1.4-2.2,3.3-2.8,5.2-.4,1.3-.7,1.8-1.2,1.8s-.9-.2-1.6-.6c-4.8-2.2-9.2-4.7-13.2-7.6v4.8c0,.7,0,.7-.7.7s-2.2-.1-7.6-.1h-10.5c-5.4,0-7.2.1-7.6.1s-.7,0-.7-.7v-4.9ZM84.1,134.9c-.7,0-.7,0-.7-.7s.1-2.2.1-12.1v-5.9c0-5.8-.1-7.8-.1-8.2,0-.7,0-.7.7-.7s2.8.1,9.3.1h21.6c6.5,0,8.9-.1,9.3-.1.7,0,.8,0,.8.7s-.1,2.4-.1,7.2v6.7c0,9.8.1,11.6.1,12,0,.7,0,.7-.8.7h-5.7c-.7,0-.7,0-.7-.7v-2.2h-27.1v2.6c0,.7,0,.7-.8.7h-5.7ZM90.7,125.3h27.1v-11.8h-27.1v11.8ZM109.4,94.4c4,0,6,0,7,0-4.9-3.7-9-8.1-12.4-12.9-3.5,4.9-7.7,9.1-12.3,12.8.8,0,2.7.1,7.3.1h10.5Z"/>
    </g>
  </g>
</svg>