<?xml version="1.0" encoding="UTF-8"?>
<svg id="humei" xmlns="http://www.w3.org/2000/svg" version="1.1" viewBox="0 0 150 150">
  <defs>
    <style>
      .cls-1 {
        fill: #221714;
      }

      .cls-1, .cls-2, .cls-3 {
        stroke-width: 0px;
      }

      .cls-2 {
        fill: #413531;
      }

      .cls-3 {
        fill: #fff;
      }
    </style>
  </defs>
  <g>
    <rect class="cls-3" x="5.8" y="5.4" width="138.4" height="139.2" rx="8.3" ry="8.3"/>
    <path class="cls-2" d="M127.7,148.2H22.3c-11.1,0-20.1-9.1-20.1-20.2V22C2.2,10.9,11.3,1.8,22.3,1.8h105.3c11.1,0,20.1,9.1,20.1,20.2v105.9c0,11.1-9,20.2-20.1,20.2ZM22.3,9c-7.2,0-13,5.9-13,13.1v105.9c0,7.2,5.8,13.1,13,13.1h105.3c7.2,0,13-5.9,13-13.1V22c0-7.2-5.8-13.1-13-13.1H22.3Z"/>
  </g>
  <path class="cls-1" d="M28.4,26.5c-6.2,0-8.3.1-8.8.1-.7,0-.8,0-.8-.8v-5.6c0-.8,0-.8.8-.8s2.6.1,8.8.1h41.5c6.2,0,8.3-.1,8.7-.1.7,0,.8,0,.8.8v5.6c0,.8,0,.8-.8.8s-2.6-.1-8.7-.1h-14.3c-1,2-2.1,4-3.3,6v34.8c0,6.4.1,9.6.1,10,0,.7,0,.8-.8.8h-6.3c-.7,0-.8,0-.8-.8s.1-3.6.1-10v-24.5c-5.9,6.8-13,12.7-21.1,17.5-.8.4-1.2.7-1.5.7s-.8-.4-1.4-1.6c-1-1.7-2.1-3-3.8-4.2,13.2-6.6,24.1-16.7,30.5-28.6h-18.9ZM58.1,36.8c.3-.3.5-.4.7-.4s.3.1.6.4c5.6,7.2,14.4,13.9,22.2,17.5-1.3,1.4-2.5,3.1-3.4,4.8-.6,1.1-.9,1.6-1.3,1.6s-.8-.3-1.7-.8c-7.6-4.4-15.2-11.2-20.6-18.2-.5-.6-.4-.8.3-1.5l3.2-3.3Z"/>
  <path class="cls-1" d="M77.1,121.6c-.7,0-.8,0-.8-.7s.1-3.3.1-18.8v-11.1c0-11-.1-14-.1-14.5,0-.7,0-.8.8-.8s2.1.1,7,.1h8c4.9,0,6.5-.1,7-.1.7,0,.8,0,.8.8s-.1,3.3-.1,12.4v12c0,14.7.1,17.5.1,17.9,0,.7,0,.8-.8.8h-5.2c-.8,0-.8,0-.8-.8v-3.4h-9.8v5.4c0,.7,0,.7-.8.7h-5.3ZM83.3,82.1v10.1h9.8v-10.1h-9.8ZM93.1,109.1v-10.6h-9.8v10.6h9.8ZM133.1,117.1c0,3.3.1,6.8.1,9.6s-.5,4.4-2,5.7c-1.6,1.4-4.4,1.8-9.3,1.8s-2.1,0-2.6-2.2c-.4-1.9-1.1-3.8-1.9-5.2,2.4.2,4.6.3,5.9.3,2.1,0,2.7-.6,2.7-2.4v-13.3h-14.2c-1.7,10.9-5.6,16.8-12.3,22.3-.8.7-1.2,1-1.7,1s-.8-.4-1.5-1.3c-1.3-1.4-2.6-2.5-4.2-3.5,10.5-7.6,13.8-13.8,13.8-37.1v-8.6c0-6.1-.1-9.2-.1-9.7,0-.7,0-.8.8-.8s2.2.1,7.7.1h10.3c5.5,0,7.3-.1,7.7-.1.8,0,.8,0,.8.8s-.1,3.6-.1,9.7v32.8ZM126,104.9v-9.1h-13c0,3.3-.2,6.4-.4,9.1h13.4ZM113,80.4v9h13v-9h-13Z"/>
</svg>