<?xml version="1.0" encoding="UTF-8"?>
<svg id="tabi" xmlns="http://www.w3.org/2000/svg" version="1.1" viewBox="0 0 150 150">
  <defs>
    <style>
      .cls-1 {
        fill: #221714;
      }

      .cls-1, .cls-2, .cls-3 {
        stroke-width: 0px;
      }

      .cls-2 {
        fill: #413531;
      }

      .cls-3 {
        fill: #fff;
      }
    </style>
  </defs>
  <g>
    <rect class="cls-3" x="5.2" y="6.4" width="138.4" height="139.2" rx="16.6" ry="16.6"/>
    <path class="cls-2" d="M127.7,148.2H22.3c-11.1,0-20.1-9.1-20.1-20.2V22C2.2,10.9,11.3,1.8,22.3,1.8h105.3c11.1,0,20.1,9.1,20.1,20.2v105.9c0,11.1-9,20.2-20.1,20.2ZM22.3,9c-7.2,0-13,5.9-13,13.1v105.9c0,7.2,5.8,13.1,13,13.1h105.3c7.2,0,13-5.9,13-13.1V22c0-7.2-5.8-13.1-13-13.1H22.3Z"/>
  </g>
  <path class="cls-1" d="M97.1,63.8c.5,4.1,1.2,8.1,2.1,11.8,2.2-1.7,4.3-3.5,6-5.3,1.1-1.1,2.1-2.3,3.1-3.8,2,1.5,4.1,3.3,5.5,4.9.5.5.7.9.7,1.5s-.4,1-1.2,1.3c-.8.3-1.6.9-3.2,2.2-2.5,2.3-5.1,4.5-8.3,6.8,2.7,6.8,7,12.9,14,18.7-1.4,1.2-3,3.6-4.2,6.6-.5,1.1-.8,1.6-1.2,1.6s-.8-.3-1.5-1c-11.3-11.4-15.9-23.9-18.4-40.2l-3.4,2.3v28.9c0,7,.2,10.3.2,10.8,0,.9,0,.9-.9.9h-7.1c-.8,0-.9,0-.9-.9s.2-3.8.2-10.8v-23.7l-4.2,2.1c-1,.4-1.5.6-2,.6-.7,0-.9-.6-1.5-2.2-.8-1.8-1.5-3.3-2.7-4.5v.9c0,18.6-.9,25.4-2.4,30.3-1.5,4.8-4.5,6.7-8.9,6.7s-2.1,0-3.9,0c-1.4,0-1.5-.3-1.8-2.4-.3-2.5-1.2-5.1-2-6.5,2.2.4,3.7.6,5.8.6s3-.9,3.8-4.9c.8-3.9,1.1-10.4,1.3-26h-7.6c-1,15.9-3.4,27.7-9.5,37.9-.6,1-1.1,1.5-1.5,1.5s-.9-.4-1.5-1.4c-1.6-2.5-3-4.3-4.8-5.5,8.7-12.3,9.5-27.4,9.8-49.7-4.9,0-6.7.2-7.1.2-.9,0-.9,0-.9-1v-6.2c0-.9,0-.9.9-.9s2.7.2,9.5.2h3v-4.4c0-3.8,0-6-.6-8.4,3.2,0,5.8.2,9,.5.8,0,1.5.3,1.5.9s-.3,1-.5,1.6c-.3.7-.5,2-.5,5.3v4.4h1c6.9,0,9.1-.2,9.6-.2.9,0,.9,0,.9.9v6.2c0,.9,0,1-.9,1s-2.7-.2-9.6-.2h-7.1c0,3.3,0,6.5-.3,9.4h9.4c3.7,0,4.6-.2,5.1-.2.8,0,1,.2,1,1-.2,2.3-.2,4.7-.3,7.7,10.6-3.9,19.7-10.2,25.4-15.5,1.2-1.1,2.6-2.8,3.7-4.5h-15.2c-1.7,3.3-3.9,6.6-6.6,9.9-.8,1-1.4,1.5-1.9,1.5s-1-.5-2.1-1.5c-1.5-1.5-3-2.4-4.8-3.4,6.4-6.1,9.6-12.1,12.3-20.2.7-2.1.9-3.7,1-5.4,3,.4,5.5.9,8,1.5.9.3,1.5.7,1.5,1.2s-.3.9-.7,1.3c-.7.6-1.1,1.6-1.6,3.1l-1.5,4.1h18.3c6.9,0,9.2-.2,9.6-.2.9,0,.9,0,.9.9v6.3c0,.9,0,.9-.9.9s-2.7-.2-9.6-.2h-6.4c2.7,1.7,4.4,2.8,6.3,4.4.7.6.8,1,.8,1.5s-.4.9-1.3,1.1c-.8.3-2,1.2-3.9,2.9l-2.4,2.1Z"/>
</svg>