<?xml version="1.0" encoding="UTF-8"?>
<svg id="henka" xmlns="http://www.w3.org/2000/svg" version="1.1" viewBox="0 0 150 150">
  <defs>
    <style>
      .cls-1 {
        fill: #221714;
      }

      .cls-1, .cls-2, .cls-3 {
        stroke-width: 0px;
      }

      .cls-2 {
        fill: #413531;
      }

      .cls-3 {
        fill: #fff;
      }
    </style>
  </defs>
  <g>
    <rect class="cls-3" x="5.8" y="5.4" width="138.4" height="139.2" rx="8.3" ry="8.3"/>
    <path class="cls-2" d="M127.7,148.2H22.3c-11.1,0-20.1-9.1-20.1-20.2V22C2.2,10.9,11.3,1.8,22.3,1.8h105.3c11.1,0,20.1,9.1,20.1,20.2v105.9c0,11.1-9,20.2-20.1,20.2ZM22.3,9c-7.2,0-13,5.9-13,13.1v105.9c0,7.2,5.8,13.1,13,13.1h105.3c7.2,0,13-5.9,13-13.1V22c0-7.2-5.8-13.1-13-13.1H22.3Z"/>
  </g>
  <path class="cls-1" d="M82.7,109.8c-5.9,0-7.9.1-8.2.1-.6,0-.7,0-.7-.7v-4.4c0-.6,0-.7.7-.7s2.4.1,8.2.1h14.9c5.9,0,7.9-.1,8.2-.1.7,0,.8,0,.8.7v4.4c0,.6,0,.7-.8.7s-1.4,0-3.7,0v8.4c0,3,0,5.8,0,7.8s0,1.7-.1,2.3c7.6-6.6,10.7-16.1,10.7-26.3s0-4.8-.4-7.1c2.1.1,4.3.2,6.4.6.6,0,1,.3,1,.7s-.1.9-.4,1.5c-.3.6-.3,1.6-.4,3.6,0,.3,0,.5,0,.7,1.9,12.4,7.1,21.2,15.1,26.5-1.1,1-2.1,2.4-3.2,4.4-.4.9-.7,1.3-1,1.3s-.7-.3-1.4-.9c-5.6-5.2-9.3-11.7-11.4-19.3-1.6,8-5,13.7-10.8,19.5-.6.6-1,.9-1.4.9s-.8-.4-1.4-1.2c-.8-.9-1.5-1.6-2.1-2.2-.3.5-.6,1-1.2,1.4-1.4,1-2.8,1.5-6.8,1.5q-2,0-2.3-2c-.2-1.2-.5-2.2-1.4-3.6,2.3.3,3.3.3,4.7.3s2-.6,2-2.2v-16.8h-13.6ZM83.2,84.4c-5.8,0-7.7.1-8,.1-.6,0-.7,0-.7-.7v-4.2c0-.6,0-.7.7-.7s2.3.1,8,.1h14.5c5.8,0,7.8-.1,8.2-.1.6,0,.7,0,.7.7v4.2c0,.6,0,.7-.7.7s-1.4,0-3.7,0v3.2c0,2.9,0,5.6,0,7.6,0,3.4-.3,5.2-1.7,6.2-1.3,1-3,1.5-6.2,1.5s-1.9,0-2.2-1.2l-.6-1.9c-.7,0-1.9,0-3.7,0h-5.1c-3.3,0-4.4.1-4.8.1-.6,0-.7,0-.7-.8s.1-1.3.1-3.8v-3.8c0-2.5-.1-3.4-.1-3.9,0-.6,0-.7.7-.7s1.5.1,4.8.1h5.1c3.4,0,4.4-.1,4.9-.1.6,0,.7,0,.7.7s-.1,1.4-.1,3.9v6.1h1.3c1.2,0,1.9-.1,1.9-2.1v-11.2h-13.2ZM93.2,120.1c0,5.1.1,6.2.1,6.6,0,.7,0,.8-.7.8h-3.2c-1.4,0-1.5,0-1.5-.8v-.8h-5.9v2.7c0,.6,0,.7-.7.7h-3.8c-.6,0-.7,0-.7-.7s.1-1.5.1-7.8v-3.3c0-2.8-.1-4-.1-4.5,0-.6,0-.7.7-.7s1.5.1,4.8.1h5.3c3.5,0,4.5-.1,5-.1.6,0,.7,0,.7.7s-.1,1.6-.1,3.6v3.6ZM82.1,116.7v4.7h5.9v-4.7h-5.9ZM88,91.2h-5.7v4.5h5.7v-4.5ZM113.7,91.7c-1.4,3.6-3,7-5.1,10.3-.5.8-.8,1.2-1.2,1.2s-.6-.3-1.2-1c-1.3-1.6-2.3-2.4-3.4-3.2,4.2-5.3,6.5-11.7,7.8-18.6.3-1.5.4-3.1.5-4.7,2.3.3,4.2.7,5.9,1.1.7.2,1.1.5,1.1.8s-.2.8-.6,1.3c-.4.5-.6,1.2-1,2.9-.3,1.4-.6,2.9-1,4.2h11.3c.6,0,1.1,0,1.3-.2.3-.1.6-.3.9-.3.5,0,1,.3,2.5,1.7,1.4,1.5,1.7,1.9,1.7,2.5s-.1.8-.4,1.2c-.2.3-.3.7-.6,1.7-1.2,4.5-2.4,8.5-4.2,12.7-.5,1-.6,1.5-1,1.5s-.6-.3-1.4-.8c-1.5-1.1-2.9-1.7-3.9-2.1,2.1-3.8,3.3-7.6,4.5-12.1h-12.4Z"/>
  <path class="cls-1" d="M31.4,59c1.3,2.6,2.6,4.2,5.2,5.3,2.2.9,6.2,1.3,11.7,1.3,8.1,0,17.7-.4,27.1-1.4-.9,1.3-1.5,3-1.7,4.8q-.3,2-2.3,2.2c-8,.4-15.5.6-22.1.6s-11.7-.6-14.8-1.8c-2.9-1.2-4.6-3-6.2-5.6-2,1.9-4.2,3.8-6.5,5.6-.6.5-1,.9-1.3,1.3-.3.4-.6.6-.9.6s-.6-.3-.9-.8c-.9-1.6-1.7-3.7-2.6-6,1.6-.8,2.5-1.2,3.7-2,1.8-1.1,3.7-2.6,5.3-4.1v-14.1h-3c-3.4,0-4.3.1-4.6.1-.7,0-.8,0-.8-.8v-4.8c0-.6,0-.7.8-.7s1.2.1,4.6.1h3.9c3.3,0,4.3-.1,4.7-.1.6,0,.7,0,.7.7s-.1,2.2-.1,6v13.5ZM22.2,17.2c.4-.3.6-.4.8-.4s.3.1.6.3c3.1,2.8,6.1,6.1,8.5,9.7.4.5.4.7-.3,1.3l-3.5,2.7c-.4.3-.6.4-.8.4s-.4-.2-.6-.4c-2.6-3.9-5.4-7.5-8.3-10.1-.5-.5-.4-.7.3-1.1l3.4-2.3ZM63.6,31c.6,0,1,0,1.3-.3.3-.2.5-.3.8-.3.6,0,1,.2,2.6,1.8,1.5,1.5,1.7,2,1.7,2.4s-.2.7-.6,1.1c-.5.4-.8,1.3-1.2,2.3-1.9,4.7-4.1,8.7-6.8,12.2,3.7,2.7,8,4.7,12.6,6.3-.9,1.3-1.8,2.9-2.4,4.6-.4,1.1-.7,1.6-1.2,1.6s-.8-.2-1.3-.4c-4.5-2-8.6-4.3-12-7.2-3,2.8-6.4,5.2-10.7,7.4-.8.4-1.2.6-1.5.6s-.7-.4-1.3-1.5c-.9-1.6-1.8-2.5-3-3.5,5-2.1,9-4.4,12.2-7.3-3.3-3.8-5.8-8.4-7.5-14.1h-1.1c-.1,3.5-.4,6.8-.9,9.8-.8,4.9-2.5,10-5.4,14.5-.5.8-.8,1.2-1.1,1.2s-.7-.4-1.2-1.1c-1.2-1.6-2.3-2.7-3.5-3.4,3-4.1,4.3-8.2,5.2-13.5.7-3.9.8-9.6.8-15.5s-.1-9.6-.1-10c0-.7,0-.8.7-.8s2.5.1,8.4.1h16.5c5.9,0,7.9-.1,8.3-.1.6,0,.7,0,.7.8v4.7c0,.6,0,.7-.7.7s-2.4-.1-8.3-.1h-19.4v7.2h19.1ZM51.2,36.7c1.4,3.9,3.5,7,5.9,9.7,2.1-2.8,3.8-6,5.2-9.7h-11.1Z"/>
</svg>