<?xml version="1.0" encoding="UTF-8"?>
<svg id="_レイヤー_1" data-name="レイヤー_1" xmlns="http://www.w3.org/2000/svg" version="1.1" viewBox="0 0 167.7 183.7">
  <!-- Generator: Adobe Illustrator 29.8.1, SVG Export Plug-In . SVG Version: 2.1.1 Build 2)  -->
  <defs>
    <style>
      .st0 {
        fill: #efcd6f;
        stroke: #efcd6f;
      }

      .st0, .st1, .st2, .st3, .st4 {
        stroke-miterlimit: 10;
      }

      .st0, .st4 {
        stroke-width: 1.5px;
      }

      .st1 {
        fill: #ff4040;
      }

      .st1, .st2, .st3, .st4 {
        stroke: #fff;
      }

      .st2 {
        stroke-width: 1.5px;
      }

      .st2, .st5, .st4 {
        fill: #241d24;
      }

      .st3 {
        fill: #ff7171;
        stroke-width: .8px;
      }
    </style>
  </defs>
  <path class="st4" d="M129.3,81.3V20.3c0-9.2-20.4-16.7-45.5-16.7s-45.5,7.5-45.5,16.7v61h91Z"/>
  <path class="st0" d="M129.3,77.4v-15c0-9.2-20.4-16.7-45.5-16.7s-45.5,7.5-45.5,16.7v15c0-9.2,20.4-16.7,45.5-16.7,25.1,0,45.5,7.5,45.5,16.7Z"/>
  <ellipse class="st5" cx="83.8" cy="86" rx="71.5" ry="32.9"/>
  <path class="st2" d="M127,88c0,9.8-19.3,17.7-43.2,17.7s-43.2-7.9-43.2-17.7,1.8-5.8,4.9-8.2h0c4.5-3.5,12-6.4,21-8,5.3-1,11.1-1.5,17.3-1.5,23.8,0,43.2,7.9,43.2,17.7Z"/>
  <circle class="st1" cx="110.7" cy="112.8" r="15.9"/>
  <circle class="st3" cx="51.9" cy="150.9" r="12.9"/>
  <path class="st3" d="M71.2,81.7c0,7.1-5.8,12.9-12.9,12.9s-12.9-5.8-12.9-12.9,0-1.3.2-2h0c4.5-3.5,12-6.4,21-8,2.8,2.4,4.7,5.9,4.7,9.9Z"/>
</svg>