<?xml version="1.0" encoding="UTF-8"?>
<svg xmlns="http://www.w3.org/2000/svg" version="1.1" viewBox="0 0 100 100">
  <defs>
    <style>
      .cls-1 {
        fill: #264fbf;
      }
    </style>
  </defs>
  <!-- Generator: Adobe Illustrator 28.6.0, SVG Export Plug-In . SVG Version: 1.2.0 Build 709)  -->
  <g>
    <g id="_レイヤー_1" data-name="レイヤー_1">
      <path class="cls-1" d="M67.3,85.8c-.9-1.7-1.3-3.8-1.5-6.1-.3-3.5-1.5-6.8-4-9.4-1.9-2-3.2-1.8-4.8.4-3.2,4.6-2.3,10,2.4,13.6,2.5,1.9,5.2,3.6,7.3,5.9,2.5,2.9,2.3,4.4-1.1,6-4.1,2-8.5,3-13,3.1-2.4,0-4.7-.5-6.8-2-6-4.2-12.1-8.3-18.2-12.4-.5-.3-.9-.8-1.4-1.3-.7-.8-1.7-1.7-1.2-2.7.5-.9,1.7-.3,2.6-.3,1.4,0,2.7,0,4.1,0,3.5.1,6.2-.8,6.8-4.8.2-1.2.9-2.4,2.1-2.9,2.6-1.2,2.8-3.3,2-5.6-1.1-3.2-2.5-6.2-3.6-9.4-1.4-3.8-.7-5.5,2.6-7.7,3.9-2.6,8-4.9,12.8-5.4.3,0,.7-.2.9-.1,4.7,1.6,10,.5,14.2,3.8,2.2,1.7,4.6,2.7,7.4,3.2,6.1,1,7.9,5,4.8,10.2-.6,1-.2,1.4,0,2.1,1.4,4.9,2.7,9.9,2.8,15.1.1,4.7-1.3,8.9-3.9,12.7-1.8,2.6-4.1,3-6.8,1.7-3.2-1.6-5-4.3-6.5-7.8ZM50.4,40.3c.2.4.5.7.8.9,1.9,1.8,3.1,1.5,3.8-1,1-3.7.7-7.3-1.2-10.7-1-1.9-1.9-3.7-2-5.9-.4-6.1-3.5-11.5-3.8-17.6,0-1-.7-1.9-1.2-2.9-.9-1.8-2.4-2.1-4.2-1.9-1.9.2-2.4,1.5-2.7,3-.4,2.3,0,4.5.5,6.8.6,2.9,2.5,5.2,3.1,8.1,1.2,5.9,3.6,11.5,4.9,17.4.6,1.2,1.2,2.4,1.9,3.6ZM22.1,19.2c-1.7-1.2-3.7-1.3-5.3-.1-1.8,1.2-1,3-.5,4.6.3,1,1,1.8,1.4,2.8,1.1,3,4,4.7,5.7,7.4,3.3,5.4,7.2,10.5,11.6,15.1.8.9,1.8,1.9,3.3,1.2,1.4-.7,1.7-2.1,1.6-3.5,0-2.2-1.2-4.1-2.7-5.6-2.8-2.8-5.1-5.9-6.8-9.5-1.1-2.3-3.7-3.8-4.1-6.4-1-2.4-2.1-4.6-4.2-6ZM73.3,3.5c-1.7,0-2.7,1-3.4,2.4-1.3,2.6-1.1,5.4-1,8.3.2,6.1.9,12.2-1.4,18.2-.7,1.8-.7,3.7-.2,5.6.3,1,.5,2.1,1.8,2.3,1.4.3,2.2-.6,2.8-1.6,1.4-2.4,2.1-5.1,1.6-7.9-.4-2.3.3-4.3.8-6.4,1.1-4.3,2-8.6,2.8-13,.3-1.7,0-3.6-.7-5.2-.6-1.4-1.4-2.6-3.2-2.6ZM94.3,21.6c-3.8,1.8-5,5.2-5.2,9-.2,3.5-1.4,6.8-3.7,9.4-1.6,1.8-2.5,3.9-3.2,6-.4,1.1-1,2.5.5,3.4,1.7,1,2.2-.7,2.9-1.5,4.6-5.2,7.5-11.6,10.8-17.6,1.3-2.4,2-5.1,1.4-7.7-.8-2-2.2-1.7-3.5-1.1ZM1.1,73.7c.1,1.9,2,2,3.4,2.2,5.9.9,11.5,2.9,16.8,5.8.6.3,1.2.6,1.8.2.7-.5.6-1.4.3-2-1.6-2.9-2.9-6-6.7-6.7-.7-.1-1.3-.4-1.9-1-3.2-3.4-6.3-4-10.8-1.9-1.2.7-2.9,1.5-2.7,3.5Z"/>
    </g>
  </g>
</svg>