<?xml version="1.0" encoding="UTF-8"?>
<svg xmlns="http://www.w3.org/2000/svg" version="1.1" viewBox="0 0 156 111">
  <defs>
    <style>
      .cls-1 {
        fill: #75c1ef;
      }

      .cls-2 {
        fill: #ffd97b;
      }

      .cls-3 {
        fill: #f27575;
      }
    </style>
  </defs>
  <!-- Generator: Adobe Illustrator 28.6.0, SVG Export Plug-In . SVG Version: 1.2.0 Build 709)  -->
  <g>
    <g id="_レイヤー_1" data-name="レイヤー_1">
      <g id="_レイヤー_1-2" data-name="_レイヤー_1">
        <g>
          <path class="cls-2" d="M17.1,44.1c-1,1.6-1.9,3.9-2.2,6.5-.7,4-1.4,8-2,12.1-.5,3.3.7,6.2,3.3,8.3,3,2.3,6.3,1.4,7.9-2,.7-1.7,1.1-3.5,1.4-5.4.5-3.1,2-5.7,4-8.1,2.7-3,5.6-2.4,6.8,1.5.9,2.8-.5,6-3.4,7.7-1.7,1-3.4,1.8-5,2.8-3.9,2.7-3.9,6.2,0,9.1,4.9,3.6,12,2.8,16.9-1.8.9-.9,1.8-1.8,2.9-2.4,1.5-.8,1.4-1.7.4-2.8-.4-.5-.9-.9-1.3-1.1-1.6-.7-1.7-2-1-3.3.7-1.4.7-2.8.4-4.3-.3-2.3.2-4.3,2.2-5.7,1.6-1.1,2.9-2.6,3.6-4.4,1.9-4.9,6.1-7.3,10.2-9.8,1.9-1.2,4.1-2,5.3-4.3.3-.4.9-.8,1.4-1.1,1.6-1,3.1-2.1,4.4-3.4,2-2.1,2.4-4.9.9-6.3-1.7-1.6-4.5-1.1-6.4,1.3-.9,1.1-1.6,2.3-2.6,3.3-4,4.3-7.4,9-12.1,12.5-2.8,2.1-5.9,2-8.3-.6-1.5-1.7-3-2.4-5.3-1.8-1,.3-1.9.1-2.7-.5-2.4-1.7-4.9-2-7.6-.8-.9.4-1.8.4-2.8.2-4.7-.7-6.2,0-9,4.6h0s0,0,0,0Z"/>
          <path class="cls-2" d="M53,15.3c-.9,3.7-3.4,7.2-4.8,11.2-.4,1-.9,1.8-1.6,2.6-1.6,1.3-2.6,3.1-3.2,5-.4,1-.5,2.2.7,3s2.3.4,3.2-.5c1.4-1.4,2-3.1,2.6-4.9.5-1.5,1.3-2.8,2.6-3.8.9-.7,1.6-1.6,2.1-2.5,1.2-2.7,3.3-4.9,5-7.3,1.7-2.7,1.7-4.9.1-6-1.6-1.1-3.6-.3-5.6,2.2l-.8,1.3h-.1c0,0,0-.2,0-.2Z"/>
          <path class="cls-2" d="M34.8,33.8c.9-1.7,1.3-3.6,1.4-5.7.2-4.2,1.2-8.1,3.3-11.8,1.2-2.2,2.1-4.4,1.8-7-.2-1.7-1-3.1-2.7-3.3-1.7-.3-2.6.9-3.2,2.3-.4.9-.9,1.9-.9,2.9,0,6.3-2.2,12.3-3.5,18.5-.3,1.3-.4,2.5-.1,3.8.1,1.1.6,2.1,1.7,2.3,1.3.3,1.6-.8,2.3-1.8h0s0-.1,0-.1Z"/>
          <path class="cls-2" d="M18.4,17.4c-.9,1.4-.8,2.8-.4,4.1,1,4.1,1,8.3.5,12.6,0,.6,0,1.2,0,1.8.1,1.1.5,1.9,1.7,2,1.2.2,1.7-.7,2-1.7.2-.9.5-1.8.5-2.6.2-4.4.5-8.7,1.2-13,.6-3-1.9-5.1-4.2-4-.5.2-.9.7-1.3.9Z"/>
          <path class="cls-2" d="M70.7,64.8c-2-1-4.4-1.7-7-1.8-1.7,0-3.2.6-4.4,1.8-.9,1-1.8,1.9-2.8,2.8-.7.6-1.3,1.5-.9,2.6.4,1,1.4.7,2.1.7,1.3,0,2.5,0,3.7-.2,2.8-.5,5.6-1.2,8.5-1.5,1.2-.2,2.4-.4,2.7-1.9.3-1.4-1-1.9-2.1-2.6h0Z"/>
        </g>
      </g>
      <g id="_レイヤー_1-3" data-name="_レイヤー_1">
        <g>
          <path class="cls-3" d="M146.5,77.3h0c-1.5-5.1-2.8-6.2-7.5-6.7-1,0-1.9-.3-2.7-.9-2.2-1.8-4.7-2.2-7.5-1.2-1,.4-1.9.3-2.8-.2-2-1.2-3.7-.8-5.6.4-3,2-6,1.2-8.2-1.6-3.7-4.6-5.8-10.1-8.5-15.2-.7-1.3-1.1-2.6-1.7-3.9-1.3-2.8-3.9-4-5.9-2.9-1.8,1-2.2,3.8-.8,6.3.9,1.6,2.1,3.1,3.4,4.4.4.4.9.9,1.1,1.4.6,2.5,2.5,3.8,4,5.5,3.2,3.5,6.8,6.9,7.3,12.1.2,1.9,1.1,3.7,2.3,5.2,1.6,1.9,1.6,3.9.7,6-.7,1.4-1.1,2.7-.7,4.3.3,1.5-.1,2.7-1.8,3-.5,0-1.1.4-1.6.7-1.2.8-1.6,1.6-.3,2.8.9.8,1.5,2,2.1,3.1,3.6,5.8,10.2,8.4,15.9,6.1,4.5-1.8,9.3-.9,12.8-2.4,3.1-1.4,5-3.8,5.4-7.1.5-4,.8-8.1,1.2-12.2.3-2.6,0-5-.5-6.8h0Z"/>
          <path class="cls-3" d="M119.1,40.5h-.1c-.2-.7-.4-1.1-.5-1.5-1.2-2.9-3-4.2-4.8-3.6-1.9.7-2.4,2.7-1.4,5.8,1,2.8,2.5,5.4,2.9,8.3.2,1.1.7,2.1,1.3,3,1,1.4,1.4,2.7,1.5,4.4.1,1.9.2,3.7,1.2,5.4.6,1.1,1.6,1.7,3,1.3s1.6-1.6,1.5-2.7c0-2-.6-4-1.8-5.7-.5-.9-.8-1.8-.9-2.9-.4-4.2-1.9-8.2-1.8-12h-.1Z"/>
          <path class="cls-3" d="M132.1,63h0c.4,1.2.5,2.3,1.8,2.3,1.2,0,1.9-.8,2.3-1.8.6-1.1.8-2.4.8-3.7.3-6.3-.2-12.6,1.4-18.7.2-.9,0-2.1-.2-3-.2-1.5-.8-2.9-2.5-3-1.7-.2-2.9.9-3.5,2.5-.9,2.4-.6,4.8,0,7.2,1,4.1,1,8.1.1,12.2-.5,2-.6,4.1-.1,5.9h0Z"/>
          <path class="cls-3" d="M151.1,50.1c-2-1.7-4.9-.3-5.1,2.8-.4,4.3-1.2,8.6-2.1,12.9-.2.9-.2,1.8-.2,2.7,0,1,.2,2,1.5,2.2,1.2.2,1.8-.5,2.2-1.5.2-.5.4-1.2.5-1.7.7-4.2,1.7-8.3,3.8-12,.7-1.2,1.1-2.5.6-4.1-.3-.3-.6-.8-1-1.2Z"/>
          <path class="cls-3" d="M89.4,83.6h0c-1.2.4-2.5.5-2.6,1.9,0,1.5,1,2.1,2.1,2.5,2.8,1,5.3,2.4,7.9,3.6,1.1.5,2.3.9,3.5,1.2.7.2,1.6.7,2.2-.2.7-.9.3-1.9-.2-2.7-.8-1.1-1.4-2.2-2-3.4-.9-1.5-2.1-2.4-3.7-2.9-2.5-.6-5-.6-7.2-.1h0Z"/>
        </g>
      </g>
      <circle class="cls-1" cx="105.7" cy="41.6" r="6.1"/>
      <circle class="cls-1" cx="96.5" cy="73.6" r="6.1"/>
      <circle class="cls-1" cx="69.6" cy="16.6" r="4.8"/>
      <circle class="cls-1" cx="7.1" cy="35.3" r="4.8"/>
      <circle class="cls-1" cx="126" cy="45.5" r="6.1"/>
      <circle class="cls-1" cx="141.6" cy="54.4" r="3.5"/>
    </g>
  </g>
</svg>