<?xml version="1.0" encoding="UTF-8"?>
<svg xmlns="http://www.w3.org/2000/svg" version="1.1" viewBox="0 0 134.6 82.3">
  <defs>
    <style>
      .cls-1 {
        fill: #313839;
      }

      .cls-2 {
        fill: #53994d;
      }

      .cls-3 {
        fill: #e3d925;
      }

      .cls-4 {
        fill: none;
      }

      .cls-4, .cls-5 {
        stroke: #313839;
      }

      .cls-4, .cls-5, .cls-6 {
        stroke-miterlimit: 10;
      }

      .cls-7 {
        fill: #cc1e25;
      }

      .cls-5 {
        fill: #fff;
      }

      .cls-6 {
        fill: #cf1e25;
        stroke: #752723;
      }

      .cls-8 {
        fill: #1a2121;
      }

      .cls-9 {
        fill: #244999;
      }
    </style>
  </defs>
  <!-- Generator: Adobe Illustrator 28.6.0, SVG Export Plug-In . SVG Version: 1.2.0 Build 709)  -->
  <g>
    <g id="_レイヤー_2" data-name="レイヤー_2">
      <g>
        <path class="cls-6" d="M100.4,5h-26.6c-.7,0-1.3.6-1.3,1.3v30.9c0,.7.6,1.3,1.3,1.3h26.6c.7,0,1.3-.6,1.3-1.3V6.2c0-.7-.6-1.3-1.3-1.3ZM97.3,27c0,.7-.6,1.3-1.3,1.3h-18.7c-.2,0-.3-.1-.3-.3l.6-10.2c0-.5.5-.9,1-.9l18.4.3c.2,0,.3.1.3.3v9.5Z"/>
        <path class="cls-6" d="M68.9,26l-9.3.3c-.5,0-1-.4-1-.9l-.5-6.5c0-.6.5-1.1,1.1-1.1l9.2.7c.5,0,1-.4,1.1-.9l.7-9.1c0-.5-.4-1-.9-1.1l-25.9-1.9c-.5,0-1,.4-1.1.9l-.7,9.1c0,.5.4,1,.9,1.1l9.4.7c.5,0,.9.5.9,1v7.3c0,.5-.4,1-.9,1l-10.2.4c-.5,0-1,.5-.9,1l.4,9.7c0,.5.5,1,1,.9l27.2-1c.5,0,1-.5.9-1l-.4-9.7c0-.5-.5-1-1-.9Z"/>
        <path class="cls-6" d="M7.3,25.4l.3-4c0-.5.4-.9.9-.9l19.9-1.2c.5,0,1-.5.9-1l-.5-8.3c0-.5-.5-1-1-.9l-18.1,1.1c-.6,0-1.1-.5-1-1.1l.2-2.2c0-.5-.4-1-.9-1.1l-2.6-.2c-.5,0-1,.3-1.1.9l-3.1,31.2c0,.6.4,1.1,1,1.1l27.6-1.6c.5,0,.9-.4.9-.9l.8-9.6c0-.6-.4-1.1-1-1.1l-22.3.9c-.6,0-1.1-.5-1-1.1Z"/>
        <path class="cls-6" d="M35.3,3.1c-3.4,0-6.1,2.9-6.1,6.6s2.7,6.6,6.1,6.6,6.1-2.9,6.1-6.6-2.7-6.6-6.1-6.6ZM35.3,12.5c-1.3,0-2.4-1.3-2.4-2.9s1.1-2.9,2.4-2.9,2.4,1.3,2.4,2.9-1.1,2.9-2.4,2.9Z"/>
        <path class="cls-1" d="M126.6,36.9l-3.8-.4c-.6,0-1-.6-.9-1.2.6-3.1,2.3-5.4,3.5-7.1.3-.5.7-.9.9-1.3,1.3-2.2,1.8-4.7,1.3-6.9-.4-1.7-1.4-2.9-2.9-3.8-.1,0-.3-.2-.5-.2.2,3.2,0,7.9-1.7,10.4-3,4.3-7.1,6.1-10.8,4.9-2.1-.7-4-2.7-5-5.2-1.1-2.9-.8-6.2.9-8.9,1.7-2.8,4.9-5.2,8.5-6.5,4.2-1.5,8.2-1.3,11.4.6,2.9,1.7,4.8,4.2,5.6,7.4.9,3.6.2,7.7-1.9,11.3-.3.5-.7,1.1-1.1,1.6-1,1.4-2.1,2.9-2.5,4.7s-.6.8-1.1.8ZM118.5,17.2c0-.7-.7-1.1-1.3-.9-1.9.8-3.6,2-4.7,3.8-1,1.6-.8,3-.4,3.9.4,1.1,1.1,1.7,1.4,1.8,1.2.4,2.9-.7,4.4-2.8.6-.9.8-3.2.7-5.8Z"/>
        <path class="cls-1" d="M76.7,59.3c-1.2-1-2.5-1.5-3.7-1.8s-.8-.5-.8-1v-2.7c0-.5.4-1,1-1h2c.5,0,1-.5,1-1v-3.8c0-.5-.5-1-1.1-1h-1.9c-.6,0-1-.4-1-.9v-1.8c0-.5-.4-1-1-1h-3.8c-.5,0-1,.4-1,1v1.9c0,.5-.4,1-1,1h-4.1c-.5,0-1,.5-1,1.1v3.8c0,.5.5,1,1.1,1h4c.6,0,1,.4,1,.9v8.2c0,.6.5,1,1.1,1l2.1-.3c.6,0,2.3,0,3.3.8.7.6,1.1,1.6,1.2,3.1.2,3.7-1.3,5.6-3,7.9-1.1,1.4-2.1,2.8-2.8,4.6s.1,1.2.7,1.3l3.7,1c.5.1,1-.1,1.2-.6.4-.9,1.1-1.8,1.9-2.8,2-2.6,4.5-5.9,4.2-11.7-.2-3.9-1.9-6.1-3.3-7.2Z"/>
        <path class="cls-1" d="M98.9,60.6c-1.4,0-3.4,0-5.5-.1s-.9-.4-.9-.8l-.8-5.2c0-.5-.6-.9-1.1-.8l-3.7.6c-.5,0-.9.6-.8,1.1l.6,3.7c0,.6-.4,1.2-1,1.1s-.9,0-1.3,0c-.5,0-1,.4-1,.9l-.2,3.7c0,.5.4,1,.9,1s1.7,0,2.9.2.9.4.9.8l1.6,10.9c0,.5.6.9,1.1.8l3.7-.6c.5,0,.9-.6.8-1.1l-1.4-9.4c0-.6.4-1.2,1-1.1.9,0,1.7,0,2.5,0s1.3,1,.7,1.6-.4.4-.6.7c-.4.3-.4.9-.2,1.3l2.2,3.1c.3.5,1,.6,1.4.2,2.7-2.3,4.7-5.9,3.7-9-.7-2.2-2.8-3.5-5.5-3.5Z"/>
        <path class="cls-1" d="M126.2,70.3c-.4,1-1.3,2.7-2.7,3.6s-1.2.2-1.4-.4-.1-.2-.2-.3c-.9-1.9-2.5-5-6.5-5.1-1,0-1.9.1-2.7.5s-1.3-.3-1.3-1l.6-16c0-.5-.4-1-.9-1l-3.8-.2c-.5,0-1,.4-1,.9l-1.1,27.7c0,.5.3.9.7,1l3.5.9c.5.1,1-.2,1.2-.6l.6-1.6c.4-1.3,2.2-4.8,4.1-4.8s0,0,0,0c.4,0,.6.3,1.4,1.9.8,1.7,2.8,5.7,7.5,4.1,4.5-1.6,6.6-5.9,7.4-7.9s-.1-1.1-.7-1.3l-3.7-1c-.5-.1-1,.1-1.2.6Z"/>
        <ellipse class="cls-1" cx="96.3" cy="55.7" rx="4.1" ry="4"/>
        <g>
          <path class="cls-8" d="M105.4,10.2l-.8-.4c0-.4-.1-.9-.2-1.3h0c0,0,0-.1,0-.1h0s0,0,0,0c0-.2.2-.5.2-.7,1.1-2.7,1-3-1-3.8l-.5-.2c-1.8-.9-3.6-1.8-5.5-2.7-.7-.3-1.4-.4-1.8.4-.1.2-.3.4-.4.6-.4.1-.6.4-.6.8-.1.1-.2.3-.4.4h0c-.4.4-.8.9-1.1,1.3h0c-.2,0-.3,0-.5-.1l-.9-.4c-.4-.2-.9,0-1.1.5l-.2.4c-.2.4,0,.9.3,1.1h0s.1,0,.2,0c2.9,1,5.7,2.1,8.4,3.5.2,0,.3.2.5.3.9.5,1.8,1,2.7,1.5h0c.5.3,1.1.6,1.6,1,.4.2.9,0,1.1-.5l.2-.4c.2-.4,0-.9-.3-1.1ZM93.5,4.5c.1,0,.3.2.4.3h0c-.1,0-.2-.2-.4-.3ZM98.5,6.8s0,0,0,0c0,0,0,0,0,0ZM102.4,8.8s0,0,0,0h0s0,0,0,0Z"/>
          <path class="cls-2" d="M104.4,8.5h0c0,0,0-.1,0-.1-2.3-.6-4.2-2.2-6.5-2.8-.4-.5-1.2-.5-1.6-.9-.6-.6-2-.1-1.8-1.5-.4.4-.8.9-1.1,1.3,1.1.8,2.4,1.3,3,1.5.3.1,1,.4,1.2.5,2.5.8,4.6,2.5,7,3.5,0-.4-.1-.9-.2-1.3Z"/>
        </g>
        <g>
          <path class="cls-5" d="M56.6,68.6c0,.5-.4,1-.9,1l-4.3.3-15.7.9c-.6,0-1-.4-1-1l-.3-8.5c0-.5.4-1,1-1l20.1-.6c.6,0,1,.4,1,1v4.3c0,0,.1,3.6.1,3.6Z"/>
          <path class="cls-5" d="M31.5,73.9c0,.5-.4,1-.9,1l-10.2,1c-.5,0-.9.5-.9,1.1l.3,3.3c0,.5-.3,1-.9,1.1l-2.9.3c-.5,0-1-.3-1.1-.9l-.2-1.8v-1.4c-.2-.5-.7-.9-1.2-.9l-3.5.4h0l-2.6.3-4.4.4c-.5,0-1-.3-1.1-.9l-.3-2.9-.3-2.5-.4-3.8c0-.5.3-1,.9-1.1l1.9-.2,8.7-.9c.5,0,.9-.5.9-1.1v-.8c-.1-.5-.6-.9-1.2-.9l-5.2.5-3.2.3c-.5,0-1-.3-1.1-.9l-.5-4.9h0s-.4-4.3-.4-4.3c0-.5.3-1,.9-1.1l8.4-.9c.5,0,.9-.5.9-1.1v-.6c-.1-.5.3-1,.8-1.1l2.9-.3c.5,0,1,.3,1.1.9v.6c.1.5.6.9,1.1.9l5-.5,3.6-.4c.5,0,1,.3,1.1.9l.3,2.5.7,6.7c0,.5-.3,1-.9,1.1l-2.3.2-5.4.6h-.9c-.5.2-.9.6-.9,1.2v.8c.1.5.6.9,1.2.9h0s7.2-.7,7.2-.7l2.9-.3c.5,0,1,.3,1.1.9l.3,3.2.6,6s0,0,0,0Z"/>
          <path class="cls-9" d="M27.9,53.2c-.4.2-.9.3-1.3.3-1.9,0-3.4-1.4-3.6-3.3l3.6-.4c.5,0,1,.3,1.1.9l.3,2.5Z"/>
          <circle class="cls-9" cx="42.5" cy="65.9" r="3.6"/>
          <path class="cls-7" d="M4.1,67.8c0,1.7-1.2,3.1-2.8,3.5l-.4-3.8c0-.5.3-1,.9-1.1l1.9-.2c.2.5.3,1,.3,1.5Z"/>
          <circle class="cls-7" cx="13" cy="56.8" r="3.6"/>
          <path class="cls-7" d="M31.5,73.9c-.6.5-1.4.8-2.3.8-2,0-3.6-1.6-3.6-3.6s1.6-3.6,3.6-3.6,1.1.1,1.6.4l.6,6s0,0,0,0Z"/>
          <path class="cls-3" d="M8.1,60.5c0,1-.4,1.9-1.1,2.6l-3.2.3c-.5,0-1-.3-1.1-.9l-.5-4.9h0c.6-.5,1.4-.7,2.2-.7,2,0,3.6,1.6,3.6,3.6Z"/>
          <path class="cls-3" d="M25.4,61.2l-5.4.6c.7-.9,1.7-1.5,3-1.5s1.8.4,2.5,1Z"/>
          <path class="cls-3" d="M26.6,64c0,2-1.7,3.6-3.6,3.6s-3.2-1.2-3.5-2.8l7.2-.7Z"/>
          <path class="cls-3" d="M7.5,76.7c0,.2,0,.3,0,.5l-4.4.4c-.5,0-1-.3-1.1-.9l-.3-2.9c.6-.5,1.4-.7,2.2-.7,2,0,3.6,1.6,3.6,3.6Z"/>
          <path class="cls-2" d="M56.6,68.6c0,.5-.4,1-.9,1l-4.3.3c-.3-.5-.5-1.2-.5-1.8,0-2,1.6-3.6,3.6-3.6s1.5.2,2,.6v3.6Z"/>
          <path class="cls-2" d="M17.1,75.6c0,1.5-.9,2.8-2.2,3.4v-1.4c-.2-.5-.7-.9-1.2-.9l-3.5.4h0c-.2-.4-.3-.9-.3-1.4,0-2,1.6-3.6,3.6-3.6s3.6,1.6,3.6,3.6Z"/>
          <path class="cls-4" d="M56.6,68.6c0,.5-.4,1-.9,1l-4.3.3-15.7.9c-.6,0-1-.4-1-1l-.3-8.5c0-.5.4-1,1-1l20.1-.6c.6,0,1,.4,1,1v4.3c0,0,.1,3.6.1,3.6Z"/>
          <path class="cls-4" d="M31.5,73.9c0,.5-.4,1-.9,1l-10.2,1c-.5,0-.9.5-.9,1.1l.3,3.3c0,.5-.3,1-.9,1.1l-2.9.3c-.5,0-1-.3-1.1-.9l-.2-1.8v-1.4c-.2-.5-.7-.9-1.2-.9l-3.5.4h0l-2.6.3-4.4.4c-.5,0-1-.3-1.1-.9l-.3-2.9-.3-2.5-.4-3.8c0-.5.3-1,.9-1.1l1.9-.2,8.7-.9c.5,0,.9-.5.9-1.1v-.8c-.1-.5-.6-.9-1.2-.9l-5.2.5-3.2.3c-.5,0-1-.3-1.1-.9l-.5-4.9h0s-.4-4.3-.4-4.3c0-.5.3-1,.9-1.1l8.4-.9c.5,0,.9-.5.9-1.1v-.6c-.1-.5.3-1,.8-1.1l2.9-.3c.5,0,1,.3,1.1.9v.6c.1.5.6.9,1.1.9l5-.5,3.6-.4c.5,0,1,.3,1.1.9l.3,2.5.7,6.7c0,.5-.3,1-.9,1.1l-2.3.2-5.4.6h-.9c-.5.2-.9.6-.9,1.2v.8c.1.5.6.9,1.2.9h0s7.2-.7,7.2-.7l2.9-.3c.5,0,1,.3,1.1.9l.3,3.2.6,6s0,0,0,0Z"/>
        </g>
      </g>
    </g>
  </g>
</svg>