<?xml version="1.0" encoding="UTF-8"?>
<svg id="favicon" xmlns="http://www.w3.org/2000/svg" version="1.1" viewBox="0 0 120 120">
  <defs>
    <style>
      .cls-1 {
        fill: #4d968d;
      }

      .cls-1, .cls-2, .cls-3, .cls-4, .cls-5 {
        stroke-width: 0px;
      }

      .cls-2 {
        fill: #0e352f;
      }

      .cls-3 {
        fill: #5ba0d3;
      }

      .cls-4 {
        fill: #b9d4ef;
      }

      .cls-5 {
        fill: #187f10;
      }
    </style>
  </defs>
  <circle class="cls-1" cx="58.5" cy="52.5" r="50.5"/>
  <circle class="cls-3" cx="99" cy="18" r="17"/>
  <circle class="cls-4" cx="101.5" cy="71.5" r="14.5"/>
  <circle class="cls-5" cx="13.5" cy="84.5" r="8.5"/>
  <circle class="cls-5" cx="19.5" cy="104.5" r="4.5"/>
  <path class="cls-2" d="M82.4,43.6c.9-1.5,2.2-2.1,3.5-2.1s1.8.3,2.6.8c1.5.8,2.6,2.3,2.6,3.9s-.2,1.5-.7,2.2l-25.9,38.8v27.9c0,2.6-2,4-4.6,4s-4.7-1.4-4.7-4v-27.9l-26.1-39c-.4-.7-.6-1.3-.6-2,0-1.7,1.3-3.1,2.8-4,.9-.4,1.8-.7,2.6-.7,1.3,0,2.5.6,3.5,2.1l22.3,34.9,22.3-34.9Z"/>
</svg>