<?xml version="1.0" encoding="UTF-8"?>
<svg xmlns="http://www.w3.org/2000/svg" version="1.1" viewBox="0 0 200 200">
  <defs>
    <style>
        #stroke1{
            width:22px;
        }
    .stroke{
            fill:#3d544c;
        }
        
      .cls-1 {
        fill: none;
      }
    </style>
  </defs>
  <!-- Generator: Adobe Illustrator 28.7.1, SVG Export Plug-In . SVG Version: 1.2.0 Build 142)  -->
  <g>
    <g id="stroke1" data-name="レイヤー_1">
      <g>
        <path class="stroke" d="M99.92,174.18c-25.94,0-51.88,0-77.82,0-11.94,0-21.06-9.16-21.06-21.09.01-18.6,0-37.2,0-55.8,0-16.93-.06-33.85.08-50.78.1-11.92,9.14-20.69,21.02-20.69,51.88,0,103.77,0,155.65,0,11.83,0,20.85,8.63,21.06,20.44.18,9.91.07,19.82.07,29.73,0,13.64-.02,27.29-.02,40.93,0,12.29.13,24.59,0,36.88-.12,11.39-9.34,20.35-20.77,20.36-26.07.03-52.14,0-78.21.01ZM15.98,34.87c.7.87.95,1.23,1.24,1.55,10.8,11.8,21.61,23.6,32.4,35.4,11.19,12.23,22.54,24.33,33.5,36.76,9.12,10.34,24.56,10.31,33.52.23,10.28-11.58,20.88-22.87,31.34-34.29,10.84-11.84,21.68-23.69,32.52-35.54,1.06-1.16,2.04-2.38,3.24-3.79-1.44-.35-2.54-.81-3.67-.85-4.62-.19-9.24-.34-13.87-.34-25.29-.01-50.57.03-75.86.04-21.88,0-43.75-.06-65.63-.01-2.76,0-5.52.53-8.74.86ZM16.37,165.05c2.28.37,4.15.93,6.02.94,14.41.07,28.82.04,43.24.04,25.41-.01,50.83-.04,76.24-.05,11.71,0,23.42.04,35.13-.04,2.08-.01,4.15-.52,6.72-.86-19.83-18.09-39.12-35.7-58.59-53.47-6.45,8.28-14.59,13.36-25.16,13.36-10.63,0-18.79-5.16-25.11-13.37-19.49,17.81-38.78,35.45-58.48,53.45ZM189.7,159.35c.38-2.58.94-4.64.95-6.71.09-16.34.09-32.68.1-49.01,0-18.85.02-37.69-.04-56.54,0-1.85-.57-3.7-.95-6.05-19.92,21.79-39.4,43.1-58.99,64.53,19.52,17.81,38.96,35.56,58.93,53.79ZM10.3,159.34c19.91-18.17,39.39-35.94,58.9-53.75C49.55,84.08,30.07,62.78,10.6,41.47c-.2.04-.41.07-.61.11-.25,2.47-.71,4.93-.72,7.4-.05,14.09.02,28.19.02,42.29,0,20.47-.06,40.93,0,61.4,0,2.06.61,4.11,1.02,6.68Z"/>
        <path class="cls-1" d="M15.98,34.87c3.22-.33,5.98-.86,8.74-.86,21.88-.05,43.75.01,65.63.01,25.29,0,50.57-.05,75.86-.04,4.62,0,9.25.15,13.87.34,1.12.05,2.23.5,3.67.85-1.2,1.41-2.18,2.63-3.24,3.79-10.83,11.85-21.67,23.7-32.52,35.54-10.46,11.42-21.06,22.72-31.34,34.29-8.96,10.09-24.4,10.11-33.52-.23-10.96-12.43-22.31-24.53-33.5-36.76-10.8-11.8-21.6-23.6-32.4-35.4-.29-.32-.55-.68-1.24-1.55Z"/>
        <path class="cls-1" d="M16.37,165.05c19.7-18,38.99-35.64,58.48-53.45,6.33,8.21,14.48,13.37,25.11,13.37,10.57,0,18.71-5.08,25.16-13.36,19.47,17.77,38.77,35.38,58.59,53.47-2.56.34-4.64.85-6.72.86-11.71.08-23.42.03-35.13.04-25.41.01-50.83.04-76.24.05-14.41,0-28.82.04-43.24-.04-1.87,0-3.74-.57-6.02-.94Z"/>
        <path class="cls-1" d="M189.7,159.35c-19.97-18.23-39.41-35.97-58.93-53.79,19.59-21.43,39.07-42.74,58.99-64.53.38,2.35.94,4.2.95,6.05.07,18.85.05,37.69.04,56.54,0,16.34,0,32.68-.1,49.01-.01,2.07-.57,4.14-.95,6.71Z"/>
        <path class="cls-1" d="M10.3,159.34c-.41-2.57-1.02-4.62-1.02-6.68-.05-20.47,0-40.93,0-61.4,0-14.1-.07-28.19-.02-42.29,0-2.47.47-4.93.72-7.4.2-.04.41-.07.61-.11,19.47,21.3,38.95,42.61,58.61,64.11-19.52,17.81-38.99,35.58-58.9,53.75Z"/>
      </g>
    </g>
  </g>
</svg>