<?xml version="1.0" encoding="UTF-8"?>
<svg xmlns="http://www.w3.org/2000/svg" version="1.1" viewBox="0 0 200 200">
  <!-- Generator: Adobe Illustrator 28.7.1, SVG Export Plug-In . SVG Version: 1.2.0 Build 142)  -->
    <style>
        #instagram{
            fill:#3d544c;
        }
    
    </style>
  <g>
    <g id="instagram" data-name="レイヤー_1">
      <path d="M70.34.55c19.77,0,39.55,0,59.32,0,1.15.11,2.3.21,3.45.32,7.45.67,15.03.68,22.32,2.15,19.3,3.88,32.75,15.09,39.54,33.81,3.28,9.05,4.04,18.52,4.07,28.04.07,22.74.17,45.49-.07,68.23-.08,7.2-.57,14.51-1.95,21.56-3.71,19-14.58,32.45-32.81,39.55-8.79,3.43-18.06,4.34-27.39,4.43-20.93.21-41.87.41-62.8.29-10.31-.06-20.68-.1-30.83-2.56-16.43-3.99-28.63-13.3-35.89-28.69-4.47-9.47-5.83-19.65-5.94-29.98-.23-21.45-.47-42.9-.29-64.35.07-9.02.62-18.11,1.93-27.02,2.05-13.89,8.74-25.42,20.1-33.94C32.85,5.09,44.12,2.18,56.05,1.34c4.76-.34,9.53-.53,14.29-.79ZM100.23,181.52c0-.1,0-.2,0-.31,5.23,0,10.47.16,15.7-.03,11.22-.4,22.52-.3,33.64-1.66,14.67-1.79,24.71-10.09,29.15-24.51,2.04-6.61,2.38-13.47,2.46-20.32.2-17.57.45-35.15.3-52.72-.09-10.45-.36-20.96-1.55-31.32-1.83-15.94-11.94-26.76-27.65-29.88-6.85-1.36-13.97-1.77-20.98-1.89-17.31-.29-34.63-.24-51.95-.18-9.94.03-19.91-.1-29.76,1.63-15.06,2.64-25.38,12.19-28.45,27.17-1.33,6.47-1.77,13.19-1.91,19.81-.34,15.95-.46,31.92-.29,47.88.12,11.16.45,22.36,1.49,33.46.97,10.31,5.69,18.99,14.45,25.02,6.76,4.65,14.5,6.43,22.53,6.74,14.26.54,28.54.76,42.81,1.11Z"/>
      <path d="M49.17,99.88c-.1-28.07,22.84-51.02,51-51.02,28.12,0,50.79,22.59,50.98,50.82.19,28.06-22.68,51.05-50.88,51.15-28.09.1-51.01-22.76-51.11-50.95ZM100.07,132.86c18.31.05,33.06-14.58,33.15-32.88.08-18.3-14.54-33.09-32.84-33.2-18.38-.11-33.2,14.6-33.24,32.98-.04,18.29,14.64,33.04,32.93,33.1Z"/>
      <path d="M153.45,34.96c6.66.13,11.76,5.51,11.59,12.22-.17,6.54-5.53,11.63-12.12,11.52-6.55-.11-11.77-5.61-11.62-12.26.14-6.49,5.57-11.62,12.16-11.49Z"/>
    </g>
  </g>
</svg>