<?xml version="1.0" encoding="UTF-8"?>
<svg id="title" xmlns="http://www.w3.org/2000/svg" version="1.1" viewBox="0 0 300 80">
  <defs>
    <style>
      .cls-1 {
        fill: none;
        stroke: #000;
        stroke-linecap: round;
        stroke-miterlimit: 10;
        stroke-width: 4.3px;
      }

      .cls-2 {
        fill: #000;
        stroke-width: 0px;
      }
    </style>
  </defs>
  <path class="cls-2" d="M52.4,14.1c.6-1.1,1.6-1.5,2.6-1.5s1.3.2,1.9.6c1.1.6,1.9,1.6,1.9,2.8s0,1.1-.5,1.6l-18.7,28.1v20.2c0,1.9-1.4,2.9-3.3,2.9s-3.4-1-3.4-2.9v-20.2L14,17.5c-.3-.5-.4-.9-.4-1.4,0-1.2.9-2.3,2.1-2.9.6-.3,1.3-.5,1.9-.5.9,0,1.8.4,2.6,1.5l16.2,25.2,16.2-25.2h-.2Z"/>
  <path class="cls-2" d="M66.1,31.4c0-1.9,1.3-2.8,3.3-2.8s3.3.9,3.3,2.8v22.7c0,6.1,2.5,9.5,7.7,9.5s6.8-1.8,9.2-5.1c1.7-2.4,2.4-4.6,2.4-7.4v-19.7c0-1.9,1.3-2.8,3.3-2.8s3.2.9,3.2,2.8v34.5c0,1.9-1.3,2.8-3.1,2.8s-3.3-.9-3.3-2.6v-2c0-.8.2-2.2.4-3.3-2.2,5-6.3,8.6-13.4,8.6s-13-5.2-13-13.9v-24h0Z"/>
  <path class="cls-2" d="M115.1,65.9c0,1.9-1.3,2.8-3.2,2.8s-3.2-.9-3.2-2.8V15.4c0-1.8,1.3-2.8,3.3-2.8s3.1.8,3.1,2.6v31.5l17.3-17.2c.6-.6,1.4-.9,2.1-.9s1.8.4,2.3,1.1c.6.7,1.1,1.6,1.1,2.3s-.3,1.3-.9,2l-12,11.2,14.1,18.8c.4.5.5,1,.5,1.6,0,1.1-.7,2.1-1.6,2.7-.6.4-1.2.5-1.9.5s-1.8-.4-2.4-1.1l-13.2-18.4-5.4,5.2v11.6-.2Z"/>
  <path class="cls-2" d="M146.6,31.4c0-1.8,1.2-2.8,3.2-2.8s3.3.9,3.3,2.8v34.5c0,1.9-1.3,2.8-3.3,2.8s-3.2-.9-3.2-2.8V31.4Z"/>
  <path class="cls-2" d="M169.7,60.9c0,1.9-1.3,2.8-3.2,2.8s-3.2-.9-3.2-2.8V10.4c0-1.8,1.3-2.8,3.3-2.8s3.1.8,3.1,2.6v31.5l17.3-17.2c.6-.6,1.4-.9,2.1-.9s1.8.4,2.3,1.1c.6.7,1.1,1.6,1.1,2.3s-.3,1.3-.9,2l-12,11.2,14.1,18.8c.4.5.5,1,.5,1.6,0,1.1-.7,2.1-1.6,2.7-.6.4-1.2.5-1.9.5s-1.8-.4-2.4-1.1l-13.2-18.4-5.4,5.2v11.6-.2Z"/>
  <path class="cls-2" d="M235.7,43.6c0,12.3-6.8,20.8-17.9,20.8s-18.5-8.2-18.5-20.8,6.9-20.6,18.4-20.6,18,8.2,18,20.6ZM205.9,43.8c0,9,4.3,15.2,11.6,15.2s11.8-6,11.8-15.5-4-15-11.3-15-12.1,5.9-12.1,15.3Z"/>
  <path class="cls-2" d="M252.4,22.3c-1.2,2.1-3.2,3.7-5,4.9-.3.2-.6.3-.9.3-.7,0-1.3-.4-1.7-.9-.1-.4-.3-.7-.3-1.1s.2-1.1.7-1.5c1.1-.7,2.3-1.6,3.2-2.6.6-.7,1.2-1.8,1.3-2.8h0c0-.4-.1-.5-.4-.5h-1c-2.3,0-4.4-1.8-4.4-4.6s1.7-4.7,4.8-4.7,5.5,2.1,5.5,6.5-.7,5.2-1.8,7h0Z"/>
  <path class="cls-2" d="M152.7,22.3c-1.2,2.1-3.2,3.7-5,4.9-.3.2-.6.3-.9.3-.7,0-1.3-.4-1.7-.9-.1-.4-.3-.7-.3-1.1s.2-1.1.7-1.5c1.1-.7,2.3-1.6,3.2-2.6.6-.7,1.2-1.8,1.3-2.8h0c0-.4-.1-.5-.4-.5h-1c-2.3,0-4.4-1.8-4.4-4.6s1.7-4.7,4.8-4.7,5.5,2.1,5.5,6.5-.7,5.2-1.8,7h0Z"/>
  <path class="cls-2" d="M264,50.3c-8.7-1.7-12.3-4.8-12.3-11.5s5.5-10.8,14.7-10.8,12.9,3.3,14.7,8.5c0,.3.1.6.1.9,0,1.3-1.2,2.3-2.5,2.6-.4,0-.8,0-1.1,0-1.3,0-2.6-.6-2.9-1.9-.9-3.2-4-4.8-8.1-4.8s-8.4,2.3-8.4,5.3,1.3,4.7,7.3,6l4.4.9c9.2,1.9,12.9,4.6,12.9,12.1s-5.8,11.8-15.7,11.8-14.4-3.6-16.2-9.9c0-.4-.1-.6-.1-.9,0-1.4,1.2-2.4,2.6-2.7.4,0,.7,0,1,0,1.3,0,2.6.6,3,1.9,1.3,4.1,4.2,6.2,9.8,6.2s9.4-2.5,9.4-6.1-1.8-5.4-8.3-6.7l-4-.8h-.3Z"/>
  <path class="cls-1" d="M163,68.4l1.7.7c23.3,9.2,49.2,8.9,72.3-.7h0"/>
</svg>