<?xml version="1.0" encoding="UTF-8"?>
<svg id="title" xmlns="http://www.w3.org/2000/svg" version="1.1" viewBox="0 0 300 80">
  <defs>
    <style>
      .cls-1 {
        fill: #000;
        stroke-width: 0px;
      }
    </style>
  </defs>
  <path class="cls-1" d="M15.4,64.9c0,2-1.4,3-3.3,3s-3.3-1-3.3-3V19.9c0-5.5,2.2-7.7,7.2-7.7h15.7c11.2,0,17.5,5.7,17.5,15.8s-6.5,16.8-17.8,16.8h-16v20.1ZM31.3,38.9c7.2,0,11-3.8,11-10.7s-3.9-9.9-11-9.9h-13.6c-1.6,0-2.3.9-2.3,2.5v18.1h15.9Z"/>
  <path class="cls-1" d="M91.7,47.7c0,12.3-6.8,20.8-17.9,20.8s-18.5-8.2-18.5-20.8,6.9-20.6,18.4-20.6,18,8.2,18,20.6ZM61.8,47.9c0,9,4.3,15.2,11.6,15.2s11.8-6,11.8-15.5-4-15-11.3-15-12.1,5.9-12.1,15.3Z"/>
  <path class="cls-1" d="M100.9,30.5c0-1.8,1.3-2.8,3.3-2.8s3.2.9,3.2,2.8v1.6c0,1-.3,2.2-.4,3.3,1.1-3.4,4.8-7.8,10.8-8h1.6c1.1,0,1.8.1,2.8.4,1.6.2,2.3,1.2,2.3,2.6s0,.8,0,1.2c-.3,1.5-1.3,2.8-2.8,2.8s-.4,0-.6,0c-1-.2-1.9-.4-3.4-.4-3,0-5.4,1.6-7.2,3.9-1.8,2.3-2.9,4.9-3,7.9v19.6c0,1.9-1.4,2.8-3.2,2.8s-3.3-.9-3.3-2.8c0,0,0-34.9,0-34.9Z"/>
  <path class="cls-1" d="M134.7,19.6c0-1.8,1.2-2.8,3.2-2.8s3.2,1,3.2,2.8v8.6h9.1c1.8,0,2.6,1.1,2.6,2.8s-.9,2.8-2.6,2.8h-9.1v23.7c0,3.5,1.5,5,4.1,5s3-.5,4.2-1.2c.4-.2.9-.4,1.3-.4,1.1,0,1.9.8,2.3,1.8.2.5.3,1.1.3,1.6,0,1-.4,2-1.5,2.6-2.1,1-4,1.6-7,1.6-5.8,0-10.1-2.9-10.1-10.3v-24.3h-5.5c-1.7,0-2.5-1.1-2.5-2.8s.8-2.8,2.6-2.8h5.5v-8.6h-.1Z"/>
  <path class="cls-1" d="M163.8,23.1c0-9.1,5.6-11.6,11-11.6s4.1.1,6.1.8c1.3.4,1.9,1.5,1.9,2.6s0,.9-.3,1.3c-.4,1.2-1.4,2.1-2.7,2.1s-.7,0-1.1-.2c-1.2-.5-2.4-.7-3.9-.7-2.6,0-4.6,1.4-4.6,6.5v4.3h8.5c1.8,0,2.6,1.2,2.6,2.9s-.9,2.7-2.6,2.7h-8.5v31.3c0,1.9-1.3,2.8-3.2,2.8s-3.2-.9-3.2-2.8v-31.3h-6c-1.7,0-2.6-1.1-2.6-2.7s.8-2.9,2.6-2.9h6s0-5.1,0-5.1Z"/>
  <path class="cls-1" d="M222,47.7c0,12.3-6.8,20.8-17.9,20.8s-18.5-8.2-18.5-20.8,6.9-20.6,18.4-20.6,18,8.2,18,20.6ZM192.1,47.9c0,9,4.3,15.2,11.6,15.2s11.8-6,11.8-15.5-4-15-11.3-15-12.1,5.9-12.1,15.3Z"/>
  <path class="cls-1" d="M230.1,14.6c0-1.9,1.3-2.8,3.3-2.8s3.2.9,3.2,2.8v50.4c0,1.9-1.3,2.8-3.2,2.8s-3.3-.9-3.3-2.8V14.6Z"/>
  <path class="cls-1" d="M257.4,16.1c0,4.1-3.2,7.2-7.1,7.2s-7.2-3.1-7.2-7.2,3.2-7.1,7.2-7.1,7.1,3.1,7.1,7.1Z"/>
  <path class="cls-1" d="M65,27.7c.2,4.1-2.9,7.4-6.9,7.6s-7.6-2.7-7.8-6.8,8,4.5,7-7.5,7.4,2.7,7.6,6.7h0Z"/>
  <path class="cls-1" d="M89.4,21c-.2,12,7.4,3,7.5,7s-3.2,7.2-7.3,7.3-7.3-3-7.4-7.1,0-1.2.3-2c1.4-5.4,7.1-15.7,6.9-5.2Z"/>
  <path class="cls-1" d="M246.7,30.5c0-1.8,1.2-2.8,3.2-2.8s3.3.9,3.3,2.8v34.5c0,1.9-1.3,2.8-3.3,2.8s-3.2-.9-3.2-2.8V30.5Z"/>
  <path class="cls-1" d="M297.8,47.7c0,12.3-6.8,20.8-17.9,20.8s-18.5-8.2-18.5-20.8,6.9-20.6,18.4-20.6,18,8.2,18,20.6ZM268,47.9c0,9,4.3,15.2,11.6,15.2s11.8-6,11.8-15.5-4-15-11.3-15-12.1,5.9-12.1,15.3Z"/>
</svg>