<!--Scalable Vector Graphic-->
<svg xmlns="http://www.w3.org/2000/svg" xmlns:xlink="http://www.w3.org/1999/xlink" viewBox="0 0 980 849">
  
<style>
        #area{
          position:relative;
          margin:50px auto;
        }
        
        image{
              position: absolute;/*同じ位置にかぶるように絶対値*/
              top: 0;
              left: 0;
              opacity:0;                /*最初は見えない→見えるようにする*/
                animation-name: show;
                animation-delay: 3s;                /* 開始されるまでの遅延時間を指定します。この場合、7秒後にアニメーションが開始されます*/
                animation-duration: 1.2s;             /* アニメーション継続時間を指定します。この場合、アニメーションは1秒間実行されます*/
                animation-fill-mode: forwards;      /* 終了後の状態を指定。"forwards"→アニメーションの最後の状態を保持*/
                animation-iteration-count: 1;       /* 繰り返し回数を指定します。この場合、1回だけ実行されます*/
                animation-timing-function: linear;  /* キーイング。"linear" は一定速度でアニメーションが実行されることを意味します*/
        }
  
      .stroke {
        fill: none;
        stroke: #3C3C3C;
        stroke-linecap: round;
        stroke-linejoin: round;
        stroke-width: 1.8px;
        
          animation-name: draw;
          animation-fill-mode: forwards;
          animation-iteration-count: 1;
          animation-timing-function: ease;
          fill:none;
        /*    stroke-miterlimit:10;*/
        
            stroke-dasharray: 9447;
            stroke-dashoffset: 9447;
            animation-duration: 2.9s;

      }
      
        @keyframes draw {
          to {stroke-dashoffset:0;}
        }

        @keyframes show {
          to {opacity:1;}
        }
  </style>
  
  <g id="area">
      <g id="stroke">
        <path class="stroke" d="M416.66,126.75c-6.29-4.03-12.04-8.89-17.07-14.41-2.29-2.51-4.46-5.23-5.62-8.42s-1.17-6.97.69-9.81c2.55-3.88,7.72-5.01,12.37-5.13,6.27-.17,12.57.89,18.45,3.09,2.45-6.76,4.97-13.49,7.57-20.19,1.03-2.66,2.11-5.38,4.03-7.5,2.48-2.74,6.07-4.17,9.61-5.24,25.34-7.62,53.93-.19,74.5,16.46,5.24,4.24,10.12,9.16,13.09,15.22.79,1.61,1.45,3.34,1.43,5.14-.02,1.68-.64,3.29-1.24,4.86-2.55,6.58-5.1,13.16-7.65,19.74-29.53-12.79-59.83-25.77-91.96-27.63-.86-.05-1.87-.03-2.39.66-.48.63-.32,1.51-.15,2.28.81,3.76,1.23,7.7.3,11.43s-3.39,7.24-6.97,8.64c-1.14.45-2.44.73-3.17,1.72-.56.76-.64,1.77-.69,2.71-.33,6-.66,12-.99,17.99-1.68-3.88-6.29-6.1-10.45-5.39s-7.65,4.07-8.91,8.11c-.68,2.17-.76,4.57.05,6.69,1.29,3.38,4.89,5.67,8.5,5.63s7.07-2.29,8.77-5.48c1.41-2.64,2.59-6.47,5.58-6.3-2.18,3.91-2.77,8.68-1.6,13.01,5.02.31,10.14-1.28,14.1-4.38-.66,6.07-4.12,11.77-9.19,15.16,1.55,5.44,3.76,11.52,9.26,12.84,4.91,1.18,10.87-2.16,14.74,1.08,1.23,1.03,1.94,2.56,2.4,4.11.8,2.69.95,5.58.44,8.34-.48,2.6-1.54,5.09-1.72,7.73s.84,5.64,3.27,6.67c.92-2.59,3.18-4.43,5.37-6.1,9.69-7.4,19.87-14.17,30.45-20.23-.5,0,.08,1.46.51,1.22s.41-.86.32-1.35c-1.65-9.74-3.31-19.49-4.96-29.23-.19-1.15-.58-2.52-1.71-2.81-.58-.15-1.18.05-1.75.25-2.32.82-4.65,1.63-6.97,2.45,5.71-3.65,9.93-9.57,11.52-16.15,1.06-4.4.04-10.35-4.37-11.37-4.66-1.07-8.07,4.21-9.91,8.62-.96-7.64,2.39-15.67,8.48-20.38.89-.68,1.87-1.32,2.99-1.44,1.26-.13,2.48.42,3.64.95,12.36,5.7,25.17,10.45,38.26,14.18.66-.78,1.32-1.55,1.98-2.33,7.23,4.52,13.06,11.25,16.5,19.06,1.19,2.7,2.11,5.7,1.45,8.57-.81,3.49-3.87,6.13-7.25,7.33s-7.06,1.19-10.64,1.02c-8.36-.39-16.68-1.57-24.82-3.51-1.19,4.55.27,9.71,3.68,12.95-4.06.91-8.58-.68-11.17-3.93.11,4.35,2.56,8.58,6.28,10.84,7.07-4.61,17.32-3.53,23.26,2.46.35.35.71.8.61,1.28s-.95.66-1.04.17c-7.02,4.22-12.55,10.17-18.82,15.45-3.22-2.31-6.45-4.63-9.67-6.94.39,4.3,1.81,8.5,4.11,12.15-17.65,13.91-37.53,24.99-58.65,32.69,4.51-7.06,8.56-14.41,12.13-21.99-3.59-.02-6.66-3.05-7.64-6.5s-.26-7.17.99-10.53c-5.32,3.18-10.87,5.98-16.58,8.39-.42,3.37-1.19,6.7-2.28,9.91,2.34-.2,4.75.57,6.54,2.09-3.64,1.65-7.28,3.3-10.92,4.95-.56,6.54,3.4,13.22,9.41,15.87-2.18,1.22-5.08.34-6.83-1.44s-2.59-4.26-3.18-6.69c-1.12-4.61-1.55-9.39-1.26-14.13-5.42,7.12-11.37,13.83-17.8,20.05-1.81,1.75,1.45,4.38,2.56,6.64,1.42,2.89,1.48,6.23,1.43,9.44-.13,8.26-.86,16.52-2.17,24.68.53-5.55,1.06-11.15.34-16.67s-2.84-11.04-6.88-14.87c-1.28,7.11-3.61,14.17-7.96,19.93s-10.92,10.11-18.12,10.63c.73,2.3,1.17,4.69,1.31,7.11-3.88,2.1-7.72,4.7-11.6,6.8,6.79,4.6,10.42,13.45,8.82,21.49,1.17-3.89-.85-7.95-2.81-11.5-1.97-3.58-4.04-7.28-7.31-9.72-2.33-1.74-5.12-2.73-7.81-3.82-26.11-10.48-47.48-32.19-57.57-58.45-2.22-5.78,2.91-12.36,1.66-18.42-.42-2.04-1.55-3.86-2.66-5.63-3.96-6.33-7.92-12.66-11.87-18.98-.26-.42-.54-.85-.95-1.13-1.5-1.03-3.43.62-4.24,2.25-1.85,3.76-1.88,8.37-.06,12.15,1.42,2.97,3.94,5.57,4.13,8.86.22,3.7-2.98,7.09-6.64,7.66s-7.44-1.32-9.7-4.26c-2.97-3.84-3.49-9.43-1.27-13.75s7.06-7.15,11.92-6.98c-1.23-1.06-2.92-1.58-4.54-1.39-1.67-5.36-4.67-11.33-10.2-12.29-1.15-.2-2.62.03-3.01,1.13-.22.61-.02,1.29.19,1.91,1.78,5.42,3.57,10.85,5.35,16.27-.9-4.17-5.7-6.1-9.9-6.86-2.37-.43-5.44-.35-6.41,1.85-.92,2.09.93,4.4,2.96,5.42s4.43,1.41,6.15,2.9c3.21,2.77,2.79,8.09,5.64,11.24.98,1.09,2.28,1.83,3.35,2.82,1.86,1.73,2.98,4.24,3.02,6.78-4.8-5.3-10.91-9.41-17.63-11.86-2.2-.8-5.39-.99-6.14,1.23-.59,1.74,1,3.46,2.63,4.32s3.55,1.47,4.5,3.04c-3.05,1.38-1.98,6.31.76,8.24s6.32,2.28,9.14,4.08c4.77,3.04,6.16,9.23,9.08,14.07,3.24,5.39,8.77,9.35,14.91,10.69,6.81,10.74,14.08,21.4,20.89,32.13,4.83,7.61,9.68,15.26,15.64,22.02,11.02,12.49,25.77,21.65,41.86,25.98,1.28.34,2.6.66,3.91.52,1.83-.2,3.43-1.26,4.96-2.28,9.3-6.27,18.59-12.53,27.89-18.8-1.68-13.64-10.45-26.59-22.93-32.35,3.14-.99,6.52.22,9.5,1.64,9.73,4.62,18.85,12.41,21.16,22.93,1.76,8.02-6.09,15.74-6.62,23.93-.25,3.77.69,7.58.12,11.32-.83,5.43-4.69,9.87-8.68,13.65,5.26,1.04,10.77-.44,15.47-3.02s8.72-6.21,12.7-9.8c1.54-1.39,3.1-2.81,4.12-4.61,1.41-2.5,1.64-5.63.59-8.3-2.96,1.04-5.92-1.83-6.98-4.78-1.11-3.07-1.07-6.69.72-9.43s5.53-4.24,8.53-2.94c.15-4,.29-7.99.44-11.99-4.21-.55-7.57-4.71-7.2-8.94s4.42-7.78,8.66-7.6c-.08-3.26-.16-6.52-.24-9.79-5.44-2.94-6.2-11.79-1.34-15.61s13.29-.98,14.85,5.01-4.4,12.57-10.51,11.62c1.12,3.26,1.61,6.74,1.44,10.18,4.35-.56,7.92,4.52,6.96,8.8s-5.12,7.23-9.41,8.15c.73,3.42.94,6.96.62,10.44,4.47.63,7.33,5.94,6.11,10.28s-5.66,7.3-10.17,7.62c.19,2.18.06,4.42.24,6.59,3.94,3.47,7.87,6.94,11.81,10.41,1.08.95,2.2,1.93,3.57,2.38,2.21.73,4.61-.02,6.82-.79,20.74-7.25,42.71-16.05,64.01-10.66-1.38-18.38.08-36.98,4.33-54.91,1-4.2,2.17-8.43,4.36-12.15,4.59-7.81,12.99-12.43,21-16.68-3.47-3.9-3.25-10.04-3.27-15.26-.04-8.92-.07-17.83-.11-26.75,0-1.28-.01-2.56-.02-3.84-.02-5.28-.04-10.57-.06-15.85-5.86,2.88-13.94-1.23-15.07-7.66,3.06,3.28,7.43,5.31,11.91,5.51-1.57-4.12-3.16-8.34-3.25-12.74s1.61-9.11,5.33-11.46c.82-.52,1.89-.91,2.74-.44.82.45,1.08,1.48,1.27,2.4,2.61,12.53,7.77,24.52,15.06,35.04.37-12.76,5.17-25.35,13.39-35.12,1.73-2.05,4.22-4.17,6.78-3.38,1.87.58,2.98,2.6,3.12,4.55s-.51,3.86-1.15,5.71c-3.86,11.18-7.73,22.36-11.59,33.54-.38,1.09-.76,2.19-1.47,3.1-1.69,2.17-4.7,2.66-7.3,3.56s-5.37,3.07-4.89,5.78c2.45-2.1,5.08-4.28,8.27-4.78s6.99,1.5,7.19,4.72c.27,4.42-5.32,6.28-9.38,8.05-4.92,2.14-9.32,6.99-8.5,12.29,1.7-2.91,4.79-4.95,8.13-5.39-1.76,3.25,2.85,6.97,6.37,5.84s5.47-4.83,6.75-8.3c2.43-6.57,3.8-13.53,4.04-20.53.07-2.18-.16-4.75-2.01-5.91,2.29-1.51,5.82,1.36,4.83,3.91,3.02-1.2,6.63-.05,8.94,2.24s3.46,5.53,3.89,8.75c.65,4.82-.34,10.12-3.78,13.56s-9.63,4.23-13.14.85c-.32.82-.63,1.64-.95,2.46,5.01,1.91,11,.96,15.17-2.4,4.4,3.75,4.82,10.9,1.8,15.84s-8.74,7.75-14.48,8.46-11.55-.42-17.14-1.89c-.65,3.61,1.57,7.34,4.74,9.2s7.07,2.09,10.69,1.47c5.72-.97,11.09-4.03,14.69-8.57-1.07-1.03-1.56-2.64-1.22-4.1,1.61,1.27,2.87,2.98,3.6,4.9,3.61,9.51,13.38,15.83,16.82,25.4,3.44,9.57,3.87,20.47-.21,29.78-1.35,3.09-3.37,6.14-6.48,7.41-1.31.54-2.75.72-4.17.78-11.49.47-22.21-7.39-27.57-17.56s-6.1-22.21-4.78-33.63c-2.92,8.69-2.87,18.35.15,27-11.31-2.95-19.09-15.63-16.6-27.05.92-4.22,3-8.08,5.06-11.87-7.4,2.46-14.98,5.01-20.99,9.97s-10.21,12.91-8.5,20.51c1.42,6.28,7.01,11.4,13.4,12.25s13.13-2.62,16.14-8.32c.42.68.84,1.36,1.26,2.04-2.81,6.94-11.05,11.18-18.33,9.43.33,12.21,2.79,24.35,7.24,35.73-3.81.74-7.44-.46-10.86-2.31s-6.49-4.27-9.89-6.16c-1.15-.64-2.44-1.23-3.74-1.02s-2.49,1.55-2.04,2.79c.29.79.26,2.22.55,3.01,8.85-.62,16.35,10.6,25.06,8.93,5.61,23.62,9.9,47.55,12.85,71.64,1.08,8.82,1.98,17.78.72,26.58,4.27-.61,6.19-.35,10.46-.96.56-1.2-.26-12.15-1.79-21.49-1.2.67-2.79,0-3.6-1.12s-1.04-2.53-1.24-3.89c-.34-2.26-.67-4.51-1.01-6.77-.1-.7-.19-1.49.25-2.04.38-.49,1.05-.64,1.66-.75,2.53-.47,5.05-.95,7.58-1.42,1.98-.37,5.06.48,4.29,2.34,12.84-3.19,26.09-4.71,39.31-4.5,1.35.02,2.73.07,3.98.56,4.53,1.79,5,7.92,4.71,12.78-2.03,1.05-4.34,1.54-6.62,1.41-.42,9.93,1.63,19.71.32,22.22,0,0-4.15.66-8.52-.22-.61-7.48.29-14.08-.32-21.56-16.58-8.28-25.97-.83-32.08,1.45.75,8.22,1.49,16.44,2.24,24.66,19.85-1.94,39.87-2.24,59.77-.92l-.04-3.37c1.32-22.51,2.08-45.65,2.57-68.19-.2,3.09-2.41,5.79-5.15,7.23s-5.93,1.77-9.02,1.67c-6.73-.22-13.62-2.57-18.19-7.52,1.18-.35,2.27-1.01,3.12-1.9-7.21-1.47-13.69-6.2-17.3-12.62,4.78-2.82,10.05-4.78,15.51-5.77-.64-1.69-1.66-3.24-2.96-4.5,8.25-2.82,17.91-1.02,24.59,4.58,0-.58,0-1.17,0-1.75,5.11,1.44,9.16,6.11,9.85,11.38.09-10.48-.53-3.97-.3-26.97l-1.19-21.06c-2.31,14.26-3.32,15.83-4.5,17.25-4.27,5.12-10.8,8.29-17.46,8.48-2.13-9.98,8.95-24.97,15.01-33.18-5.45,3.27-11.38,8.63-17.27,11.5-.41.2-6.72,2.93-7.19,2.82,4.17-5.8,6.83-12.69,7.21-19.82,5.44-.54,11.38-2.7,15.47-4.06-4.29-.05-9.46.87-14.62,2.57l-.78.23c.35-5.4-.36-10.8-2.29-15.85,5.05,3.4,10.03,2.7,14.56,5.07,1.88.98,2.56,3.41,3.48,5.32,3.87,7.99,13.51,12.72,22.2,10.87,2.95-.63,5.83-1.98,7.8-4.27,2.05-2.37,2.95-5.54,3.27-8.66.53-5.25-.5-10.74-3.38-15.17s-7.7-7.67-12.96-8.16c-6.24-.59-12.44,2.74-16.36,7.63-2.35,2.93-4.16,6.69-4.05,10.44-3.22-3.72-9.23-5.46-15.34-6.03-3.09-7.34-10.37-12.02-14.62-18.76-1.82-2.88-3.05-6.09-4.26-9.28.57-.95,1.21-2.13,1.79-3.09,5.81,1.37,11.98,4.02,15.13,6.34,5.58,4.11,13.36,11.65,16,18.06-6.41-8.81-17.05-33.39-15.41-44.16,12.96,3.71,23.81,24.41,26.34,37.65-7.04-13.79-4.54-31.86,5.98-43.22,5.66,12.78,7.08,27.4,3.96,41.03.31-12.39,14.72-30.76,26.83-33.43,1.67,11.66-7.98,30.84-17.05,38.35,7.45-8.72,21-17.68,32.46-17.4-2.9,9.14-13.57,18.92-21.62,24.14,9.45-4.41,24.05-10.96,33.77-7.16-6.04,6.49-18.05,12.99-26.79,14.47,8.76-1.96,18.47-.12,25.32,5.68-6.16,2.9-25.26,2.64-32.02,1.85,10.34.47,32.27,8.67,36.32,18.2-11.53,6.19-26.66,4.9-36.98-3.14,4.8,1.61,8.36,5.88,10.21,10.59s2.19,9.87,2.26,14.94c-8.13-5.12-15.23-11.85-20.78-19.69,1.86,6.45,3.74,12.97,4.02,19.67s-1.19,13.71-5.39,18.95c-5.33-5.19-9.61-11.43-12.62-18.23l.29,3.36c.47,13.23.67,24.17.23,39.13.29-3.69,1.8-6.92,3.47-10.22s5.04-6.02,8.73-5.78c-1.23.95-2.22,2.22-2.86,3.64,10.24-2.2,21.61,2.57,27.22,11.42-4.99,5.67-12.54,9-20.09,8.85.49.58.98,1.15,1.47,1.73-5.58,1.5-13.48-1.53-17.95-5.19,0,15.56-.95,25-.74,36.72-.92-5.85-1.63-13.02,3.32-17.08l.82,3.93c2.91-6.15,8.83-10.79,15.5-12.16-1.4,1.11-2.38,2.73-2.72,4.48,2.11-1.44,4.91-1.15,7.44-.8,4.29.59,8.91,1.34,11.98,4.39,4.7,4.66,3.55,13.06-.89,17.97-4.44,4.91-11.15,7.05-17.65,8.34.88,1.55,2.54,2.62,4.32,2.79-4.18,1.08-8.51,2.02-12.79,1.46s-8.36-2.39-10.12-6.33l.47,15.41-.47,3.87c5.6.47,11.2,1.06,16.77,1.79.75,22.76,1.89,45.35,2.39,68.12l-.74,174.52.15-.15c1.8,1.76,4.61,1.55,7.11,1.37,5.68-.42,11.35-.84,17.03-1.25-6.03-2.58-12.54-4.05-19.09-4.31-.01,15.29-.03,30.59-.04,45.88,7.13.36,14.3.08,21.38-.84.12-12.85.24-25.7.35-38.55-9.09.53-18.17,1.06-27.26,1.59,1.12,18.23,1.21,36.53.26,54.77-3.88.58-7.82,1.6-11.74,1.79l.28,2.01c4.89-2.28,11.2,1.52,12.39,6.79s-2.01,10.88-6.71,13.55-10.51,2.76-15.74,1.43c-3.03-.77-6.01-2.05-8.25-4.22s-3.66-5.36-3.16-8.44c.49-3,2.71-5.51,5.39-6.95s5.76-1.92,8.8-2.06c-.04-.74-.08-1.48-.12-2.23-3.59,1.29-11.11,1.04-14.92,1.18-7.02.26-12.33.1-17,.24-1.9,2.66.39,5.69,1.36,8.81,1.82,5.84-3.14,12.35-9.18,13.34-5.71.94-12.08-2.86-13.13-8.55s4.45-11.84,10.12-10.69c.01-.73.03-1.45.04-2.18-1.11-.21-2.22-.43-3.33-.64,4.58-3.36,9-6.95,13.22-10.76.74-.67,1.53-1.46,1.55-2.46.01-.86-.56-1.61-1.11-2.28-8.77-10.67-17.55-21.34-26.32-32.01l.17-.99s-30-26.25-18.85-55.58c-1.02,2.77-2.17,5.4-3.2,8.18-.63,1.71-1.28,3.45-2.43,4.87-1.2,1.48-2.87,2.49-4.38,3.65-2.34,1.8-4.36,4.02-5.92,6.53-1.14-2.54.47-5.52,2.55-7.37s4.69-3.12,6.45-5.28c3.1-3.79,2.91-9.4,5.62-13.47,1-1.49,2.44-3.03,2.09-4.79,0,0,6.37-28.87,6.37-50.79s.71-134.87.71-134.87h-1.3s-.75,9.07-8.19,5.1-5,.3-5,.3c0,0,4.93,26,3.11,79.85-3.68,108.89-26.86,163.29-21.28,178.89,8.39-18.04,5.29-38.6,18.45-53.52,1.31,14.71,9.07,28.73,20.84,37.66-4.76,2.56-9.41,5.3-13.95,8.23-4.96,3.2-9.87,6.69-13.51,11.34s-5.92,10.66-4.96,16.49c3.19,1.5,6.46,3.02,9.97,3.37s7.37-.71,9.48-3.54c1.11-1.48,1.65-3.3,2-5.12,1.31-6.78.17-14-3.17-20.04,1.08-2.09,3.71-3,6.05-2.75s4.47,1.41,6.53,2.55c8.45,4.68,17.12,9.54,23.15,17.08,1.02,1.27,2,2.79,1.75,4.39-.19,1.23-1.06,2.22-1.92,3.12-9.48,9.98-21.74,18.16-26.87,30.93-3.38,8.41-3.34,18.17-8.26,25.78-4.28,6.61-11.79,10.58-19.48,12.25s-15.66,1.32-23.52.95c-.4-9.09-1.72-18.13-3.92-26.96,9.79-3.88,15.52-14.35,17.52-24.69s1.06-21.01,1.82-31.51c-3.57,12.69-7.13,25.37-10.7,38.06-.35,1.26-.72,2.55-1.49,3.61-2.96,4.1-9.29,2.5-14,.67-12.27-4.78-26.43-8.26-38.28-2.5-.45,2.86,2.75,5.16,5.65,5.15s5.56-1.48,8.29-2.44c8.72-3.08,19.14-.63,25.57,6.02.88.91,1.72,1.94,2,3.18.3,1.32-.07,2.7-.32,4.03-2.1,11.25,4.55,22.38,4.43,33.82,0,.69-.2,1.57-.88,1.66s-.45-1.4.01-.89c-8.44,6.6-20,8.05-30.64,6.77-3.9-.47-7.86-1.04-11.74-.42-8.28,1.31-14.8,7.68-22.64,10.63-10.49,3.93-22.18,1.4-33.07-1.23-6.51-1.57-13.43-3.4-17.92-8.37-3.6-3.98-5.09-9.4-6.16-14.66-.66-3.26-1.2-6.69-.21-9.87,1.3-4.18,5.11-7.21,9.22-8.7s8.58-1.69,12.95-1.89c9.71-.43,19.51-.93,28.89-3.49s18.42-7.38,24.38-15.06c-4.15-3.12-9.77-3.62-14.9-2.83s-10.01,2.72-15.03,4.05c-17.65,4.66-38.61.57-49.77-13.88,11.7-8.51,19.28-21.73,23.64-35.52s5.82-28.31,7.42-42.69c2.07-18.55,4.43-37.07,7.08-55.55,5.23-36.52,10.34-74.29,11.38-111.17.1-3.55.11-7.21-1.26-10.49-1.47-3.51-4.35-6.19-6.99-8.93-5.85-6.09-10.81-13.04-14.68-20.55,4.25,7.81,9.49,16.21,18.05,18.62-.81-9.25-1.61-18.51-2.42-27.76-.23-2.68-.48-5.42-1.51-7.91-2.15-5.21-7.25-8.44-11.3-12.36-5.15-5-8.8-11.52-10.37-18.52,4.54,7.23,10.99,13.25,18.53,17.27,2.56-12.57,8.02-25.28,16.38-35.01,4.89-5.7,11.08-10.87,18.51-11.93-9.14-.56-16.94,6.36-22.74,13.46-6.41,7.84-11.83,16.49-16.09,25.67-4.71-25.07-16.86-48.84-17.22-74.35-.02-1.65-.51-3.86-2.16-3.87-.73,0-1.35.48-1.93.92-3.21,2.39-7.13,3.82-11.12,4.07-1.29,5.68-3.08,11.25-5.32,16.62-19.55,46.85-16.64,101.82-8.93,152,7.71,50.18,21.17,99.5,25.64,150.07.84,9.53,1.39,19.2,4.29,28.32.32,1.01.9,2.19,1.96,2.22s1.06-2.15.1-1.71c1.83-.26,2.03,4.03,2.27,5.86s-.51,3.63-1.27,5.31c-6.8,15.01-16.35,28.76-28.04,40.37,9.55,15.53,30.11,23.31,47.55,17.99.72,1.05.19,2.57-.81,3.36s-2.3,1.03-3.55,1.23c-6.95,1.13-13.94,2-20.95,2.59-2.7.23-5.48.44-7.94,1.57-4.29,1.98-6.93,6.46-8.2,11.01-1.64,5.89-1.41,12.28.67,18.03.77,2.14,1.6,4.98-.24,6.32-.67.48-1.52.59-2.34.68-5.43.59-10.9.81-16.35.67-7.23.94-15.38,1.77-22.67,1.77H38.25"/>
      </g>
    
    <image href="img/keychan.jpg" width="100%" height="100%" alt=""></image><!--htmlではimg-->
  </g>
  
</svg>
