<!--Scalable Vector Graphic-->
<svg id="svgLady" xmlns="http://www.w3.org/2000/svg" 
     xmlns:xlink="http://www.w3.org/1999/xlink"  
     viewBox="0 0 600 800">
  
    <style>
      
      .cls-1 {
        fill: #594d4d;
      }

      .cls-2 {
        fill: #FFE4CF;
      }

      .cls-3 {
        fill: #fae7d8;
      }

      .cls-4 {
        fill: #ba8e6c;
      }

      .cls-6 {
        fill: #b0a4a4;
      }

      .cls-7 {
        fill: #4f4334;
      }

      .cls-8 {
        fill: #d4b196;
      }

      .cls-9 {
        fill: #1a385e;
      }

      .cls-10 {
        fill: #635245;
      }

      .cls-11 {
        fill: #426899;
      }

      .cls-12 {
        fill: #b38756;
      }

      .cls-13 {
        fill: #bd7737;
      }

      .cls-14 {
        fill: #e6e6e6;
      }
      
      /*アニメーション*/
      
      .cls-1 {
        fill: #594d4d;
      }

      .cls-2 {
        fill: #FFE4CF;
      }

      .cls-3 {
        fill: #fae7d8;
      }

      .cls-4 {
        fill: #ba8e6c;
      }

      .cls-6 {
        fill: #b0a4a4;
      }

      .cls-7 {
        fill: #4f4334;
      }

      .cls-8 {
        fill: #d4b196;
      }

      .cls-9 {
        fill: #1a385e;
      }

      .cls-10 {
        fill: #635245;
      }

      .cls-11 {
        fill: #426899;
      }

      .cls-12 {
        fill: #b38756;
      }

      .cls-13 {
        fill: #bd7737;
      }

      .cls-14 {
        fill: #e6e6e6;
      }
      
      /*アニメーション*/
      
      
      #Sonora {
        stroke-dasharray: 300;/*長さ300の線を破線*/
        stroke-dashoffset: 300;/*破線の開始位置*/
        animation-duration: 4s;
      }      

      #Kami_ude {
        stroke-dasharray: 3337.5;
        stroke-dashoffset: 3337.5;
        animation-duration: 4s;
      }      

      #Maeasi {
        stroke-dasharray: 2730;
        stroke-dashoffset: 2730;
        animation-duration: 4s;
      }      

      #Maeasi_2 {
        stroke-dasharray: 590;
        stroke-dashoffset: 590;
        animation-duration: 4s;
      }      

      #Ushiro {
        stroke-dasharray: 3970;
        stroke-dashoffset: 3970;
        animation-duration: 4s;
      }
      
      .cls-5{
        animation-name: draw;
        fill: none;
        stroke: #2E2E2E;
        stroke-width: 1.45px;
        stroke-miterlimit: 10;
        animation-duration: 8s;/* アニメーションの継続時間 */
        animation-fill-mode:forwards;
        animation-timing-function:easeInOutBounce;/* アニメーションのイージング */
        animation-iteration-count: infinite;    /*infinite アニメーションのループ処理 */
        animation-delay: 4s; /* 繰り返し前の待機時間を設定 */
      }


      @keyframes draw{
    to{stroke-dashoffset:0;}
  }
      
      
      #fill{
          animation-name: iro;        
          animation-duration: 8s;/* アニメーションの継続時間 */
          animation-timing-function: ease;/* アニメーションの速度 */
          animation-fill-mode:forwards; /* アニメーション終了後の状態を保持 */
          animation-iteration-count: infinite;    /*アニメーションのループ処理 */
          animation-delay: 4s; /* 繰り返し前の待機時間を設定 */
      }
      

      @keyframes iro{
            0%{opacity: 0;}
            50%{opacity: 0;}
            60%{opacity: 0;}
            99.999%{opacity: 0.98;}
            100%{opacity: 1;}
        }


    </style>

      <g>
        <g id="fill"><!--いろ-->
          <g id="kutu">
            <g id="kurusita">
              <path class="cls-14" d="M492.26,719.76c-.62-2.03.18-2.78-.83-4.73-8.02-15.44-14.86-31.78-19.05-46.12-6.3,1.13-20.15,7.95-31.18,13.54,2.97,5.94,5.63,7.74,14.2,29.11,4.94,19.25.05,13.98,19.19,23.27,11.76,14.66,18.85-3.21,17.67-15.07Z"/>
              <path class="cls-9" d="M448,690.49c12.52-2.58,26.07-14.6,26.07-14.6l2.07,9.48c-10.67,10.52-23.19,14.96-23.19,14.96-.96-2.44-4.96-9.48-4.96-9.48M457.63,710.26s2.89,8.89,2.81,12.67c0,0,7.11-1.26,24.15-16.59,0,0-.22-3.41-4.15-11.78,0,0-10.29,10-22.81,15.7ZM483.97,738.83c10.26-.67,7.46-23.8,7.46-23.8l-2.31.49c-5.33,8.07-17.93,15.26-17.93,15.26,7.63,6.3,8,8.37,12.78,8.06Z"/>
              <path class="cls-14" d="M82.34,692.57s24.63-15.42,30.92-28.83,8.22-7.63,8.22-7.63c0,0,30.22,16.94,20.33,23.45s-4.15-2.42-16.46,16.58c-2.31,13-7.57,14.63-7.57,14.63,0,0-31.1,17.44-35.44-18.2Z"/>
              <path class="cls-9" d="M113.91,706.52s-4.03,6.73-15.91,7.15c-14.43.51-15.67-21.09-15.67-21.09l12.62-7.61c6.74,20.63,18.96,21.56,18.96,21.56ZM124.22,696.11c3.56-8.89,7.14-10,7.14-10-8.63-8-18.11-22.37-18.11-22.37-1.89,3.7-8.59,13.26-8.59,13.26,10.22,17.56,19.56,19.11,19.56,19.11Z"/>
            </g>
            <g id="kutu-2" data-name="kutu">
              <g>
                <path class="cls-6" d="M455.96,749.7c-.45,5.65-.24,11.35.64,16.95.3,1.92.72,3.92,1.97,5.42,1.71,2.04,4.55,2.66,7.16,3.16,7.95,1.51,16.7,2.9,23.71-1.14,2.77-1.6,5.04-3.94,7.63-5.8,5.66-4.07,12.95-5.79,19.83-4.67,3.18.52,6.27,1.61,9.49,1.75,3.15.13,6.25-.65,9.28-1.54,11.56-3.39,22.67-8.34,32.93-14.66,1.2-.74,2.44-1.54,3.18-2.75,1.05-1.72.9-3.89.62-5.88-.5-3.51-1.32-6.98-2.43-10.36-.22-.66-.47-1.36-1.01-1.8-.66-.55-1.59-.6-2.45-.55-4.54.28-8.6,2.75-12.66,4.81-9.31,4.72-19.44,7.54-29.53,10.2-20.27,5.34-41.93,10.11-61.89,3.72l-6.17,2.88"/>
                <path class="cls-1" d="M566.07,727.96c-5.87-8.21-17.48-8.74-23.85-6.67-10.21,3.32-19.52,14.31-27.48.74-.57-.89.42-2-.57-2.7,1.29-4.14-3.02-6.11-7.14-6.04.02-1.33,2.14-3.81,2.58-5.7.5-2.12-.74-3.57-2.12-3.35-2.12.34-3.14.41-4.71,3.78l-2.83,9.01c-1.59-4.31-1.83-7.07-5.38-11.03-.69.78-6.11-.64-6.42.32.07.14.14.27.21.41l-.72.58,3.79,7.72s2.24,23.21-7.46,23.8c-.04-.07-1.62.54-3.15-.35-3.35-1.94-8.42-6.38-10.42-7.93-4.41-1.94-8.83-4.96-13.58-6.37-.14.54-2.48,8.02-2.3,15.55.17,6.95,2.78,13.97,4.23,14.75,7.24,3.92,16.29,4.37,23.98,2.22,40.02-11.18,45.21-2.22,80.02-22.22,2.59-1.49,6.67-2.81,3.33-6.52Z"/>
              </g>
              <g>
                <path class="cls-6" d="M159.2,760.36c-.14-1.86-.2-3.72-.33-5.57-.22.02-.45,0-.67-.08-.36-.15-.73-.48-.79-.89-.03-.18-.05-.37-.07-.55,0,0,0-.01,0-.02,0,0,0,0,0,0,0,.02,0,.04,0,.06,0-.04-.02-.07-.03-.1-.15-.3-.33-.6-.46-.91-.18-.41-.34-.83-.51-1.25-.06-.14-.12-.28-.19-.42-.1-.2-.16-.39-.19-.59-8.85.06-25.37,16.01-44.46-7.32-19.13-23.38-30.93-28.22-30.93-28.22l-10.95-9.05s-.58-1.33-1.54-1.3c-.07.11-.13.22-.2.32-.39.53-.92,1.17-1.01,1.85-.06.47-.76.5-.75,0,0-.14.01-.25.03-.37-.12.21-.13.53-.36.69-5.8,4.22-5.21,8.23-6.04,13.84.19.75.46,1.46.79,2.14.26.55.52,1.03.9,1.54.18.24.4.47.56.72.05.09.23.41.25.48.81.59,1.4,1.67,2,2.39.48.58,1.12,1.08,1.56,1.68.02.02.02.03.03.05,0-.02.06,0,.29.19.25.21.44.45.64.69.21.12.32.19,0-.02.34.23.63.39.93.67.67.61,1.36,1.1,2.12,1.6,1.09.73,2.68,1.24,3.41,2.37.64.46,1.19.82,1.87,1.15.5.25.9.62,1.38.9.29.18.59.19.92.37.43.24.82.8.96.9.06.05.15.11.23.16.22.13.42.21.63.37.47.37.92.87,1.21,1.38.34.6-.41-.84.15.2,0,.02.01.04.02.05.45.35.89.69,1.34,1.07.55.47,1.18.74,1.78,1.15.57.39.97.91,1.36,1.46.16.23.34.46.49.69.01.02.05.08.09.15.27.19.46.44.56.75,0,0,.02.03.04.1.03.04.07.08.14.13.14.1.26.26.38.38.44.45.75.96,1.09,1.5.33.53.57,1.11.91,1.64.31.47.72.89.97,1.39.13.26.22.55.32.82.04.05.17.31.25.42.32.44.63.88.91,1.34.15.24.32.46.46.7.05.08.63,1.19.17.4.1.18.21.37.32.55,0-.02.07.08.16.2.54.48.66,1.13,1.06,1.89-.02-.04.31.43.36.55.11.1.25.24.27.26.19.23.29.51.43.76.7.58,1.1,1.4,1.74,2.1-.08-.09.62.48,1.01.87.16.07.31.17.44.29.18.16.33.39.47.6.35.3.66.65,1.03.97.23.2.43.4.62.6.61.2,1.15.51,1.73.86.94.57,2,.87,2.93,1.46.84.54,1.82,1.02,2.77,1.33.57.19,1.37.55,2.06.56.51,0,.92.29,1.15.72.04.02.09.03.13.06.27.19.62.12.91.29.15.08.25.21.38.32.06.01.13.03.23.05.19.04.39.1.58.16.23.08.55.18.77.3.1.05.45.18.44.2.57.1,1.24-.02,1.82.02,1.11.07,2.01.46,3.05.78,1.07.33,2.41.08,3.51.07,1.48-.02,2.96-.01,4.44,0,1.38.01,2.55.4,3.9.59,1.4.2,2.92.06,4.33.06,1.12,0,2.25,0,3.37.01.38-.24.86-.3,1.47-.3.6,0,1.17.04,1.74-.11.6-.16,1.09-.18,1.72-.18,2.82.01,5.64,0,8.46.01.57,0,1.14.02,1.7,0,.02-.03.07-.07.19-.13.25-.13.49-.1.75-.18.62-.18,1.28-.86,1.96-1.34.07-.05.11-.08.15-.11-.23.1.31-.23,0,0,.04-.02.11-.05.23-.11.18-.09.37-.15.55-.23.46-.19.7-.34,1.09-.63.44-.33.79-.63,1.1-.95.08-.3.15-.6.22-.91-.24-2.16-.24-4.35-.4-6.52Z"/>
                <path class="cls-1" d="M155.61,748.94c-2.83-3.56-7-7.03-12.72-7.78,0,0-1.57-3.7-3.23-7.65-2.34-4.04-5.23-7.27-9.02-9.39,0,0,0,0,0,0-3.41-1.38-4.66-5.51-4.53-5.24.2-.61,1.95-.07,2.7.31.86.44,1.68.95,2.5,1.47h0c.34.21.67.43,1.01.64.56.35,1.14.69,1.72,1.02.17-.03.35-.02.51.05,1.26.53,2.5,1.11,3.7,1.77,1.18.65,2.41,1.31,3.48,2.11.57.43,1.09.92,1.65,1.35-.13-.1.1.06.14.08.1.07.2.15.3.22.33.25,1.05,1.02,1.09,1.13.03.38.05.48.05.29-.07-.17.07.11.08.16.02.1.03.2.04.3.22.12.69.67,1.13.99.17.06.83,1.54.94,1.45.4.45,1.01-.34,1.41.11.18-.17.38-.31.62-.37-.02-.03-.04-.06-.06-.09-.07-.12-.21-.21-.34-.22-.29-.33-1.14-1.98-1.82-2.75,0,0,0,0,0,0-.11-.13-.22-.23-.32-.3-.15-.22-.3-.43-.44-.64-.1-.26-.25-.51-.42-.75,0,0,0,0,0-.01-.01-.01-.03-.02-.04-.04-.24-.33-1.1-1.24-1.17-1.32-.05-.11-.12-.22-.18-.32-.25-.14-.5-.33-.76-.55-.39-.34-.79-.68-1.2-1-.79-.63-1.74-1.11-2.64-1.57-.46-.23-4.51-2.04-4.52-2.03-.22.14-3.81-1.77-3.82-1.77-1.28-.19-2.55-.49-3.81-.8-.03,0-.05-.01-.08-.02-.27-.07-.49-.26-.63-.49-.04.1-.05.21-.08.31-.75-.19-1.51-.39-2.26-.63,0,0,.01,0,.02,0-.33-.22-.56-.42-.71-.6,2.49.26,5.7.71,8.9,1.52.68.17,1.34.25,1.99.25,3.61,0,6.61-2.47,8.05-5.13,1.74-3.21,1.38-6.53-.94-8.67-4.64-4.28-15.23,4.54-18.72,7.68-1.48-.69,2.51-3.27,4.13-4.12,3.43-7.19-4.24-8.98-9.78-6.17-4.2,1.12-2.86,5.34-5.71,6.83-2.25,1.07-5.66,3.23-8.66,4.12-2.68,1.28-6.55,1.45-9.24-.17.08-.01.16-.02.24-.03-7.05-2.89-8.85-10.52-10.66-15.4-.16-1.05-.3-2.06-.44-2.98-.24-1.56-1.45-1.77-2.63-1.28-1.92-.44-4.88,1.77-10.32,8.68-3.24,3.93-3.72,7.56-2.55,11.01-.79.86-1.48,2.19-.85,3.22.68,1.1,1.36,2.25,2.33,3.11.52.46,1.19.54,1.84.39-.57.98-.69,2.12.14,2.91,6.92,6.54,14.49,12.59,21.1,19.38,1.36,1.39,2.67,2.86,3.96,4.34,1.17,1.71,2.54,3.28,4.06,4.72.74.87,1.47,1.73,2.21,2.59,2.52,2.9,5.62,6.35,9.23,7.78,7.12,2.81,16.19,2.57,23.61,1.54,6.7-.93,16.19-1.77,21.2-6.98.99-1.03-.47-5.77-.81-6.55ZM140.58,705.8c1.92,1.77,1.54,4.39.53,6.25-1.34,2.48-4.35,4.76-7.79,3.9-2.92-.74-5.8-1.19-8.18-1.46-.33-.29-.56-.62-.62-.95,5.12-4.64,13.28-10.28,16.06-7.73Z"/>
              </g>
            </g>
          </g><!--kutu-->
          <g id="coat">
            <path id="coat_x5F_ura" class="cls-9" d="M474.03,619.65c-1.51-1.12-3.57-1-5.45-1.12-11.63-.73-19.51-11.74-25.64-21.64-17.45-28.19-34.91-56.38-52.36-84.57-6.69-10.8-13.53-21.78-23.17-30.06-9.64-8.27-22.7-13.55-35.12-10.87-6.17,1.33-11.8,4.53-16.87,8.3-18.37,13.65-29.78,34.5-45.09,51.5-19.08,21.19-44.64,36.9-59,61.54-1.09,1.86-2.13,3.86-2.15,6.02-.04,3.85,3.11,6.92,6.15,9.28,12.89,9.99,28.22,16.33,43.68,21.51,64.15,21.5,112.04,23.95,156.62,5.99,21.07-8.49,51.35-5.44,58.43-3.54-.04-.2.04-.41.23-.53.22-.14.57-.05.68.18.07.15.16.29.24.43.13.03.25.12.31.23.04.07.07.15.11.23,1.1.46,2.24,1.1,3.46,1.94,4.6,1.69-1.8-12.39-5.07-14.82Z"/>
            <path id="bottom" class="cls-12" d="M478.66,661c-35.97-112.79-112.17-216.4-115.71-338.6-70.36-7.68-81.21,90.27-112.13,134.99-53.13,52.95-70.15,128.87-117.27,180.72-10.08,11.09-11.85,11.85-12.98,14.2.18,5.99,3.95,13.99,18.62,24.08,6.81,6.72,13.35,13.9,19.55,19.79,11.55,10.98,22.81,14.21,27.41,8.44,26.11-23.06,47.32-52.35,68.07-80.28,24.61-34.31,48.52-69.12,69.24-105.33,5.42,9.58,11.95,17.08,15.72,26.18,17.24,19.86,33.68,40.77,41.43,66.32,9.67,25.74,15.76,57.55,33.71,78.21,16.86-3.73,67.97-19.69,64.34-28.73Z"/>
            <path id="coat-2" data-name="coat" class="cls-11" d="M481.81,629.04c-8.36-38.81-15.42-36.97-31.21-89.55,0,0,0,.03,0,.06-8.61-22.56-16.6-43.4-30.97-60.76-5.01,4.84-4.75,16.04-5.47,23.47-3.57-6.49,1.39-23.09,6.06-30.63-.4-.84-5.13-7.63-1.36-4.77,11.44,9.99-17.84-32.64-17.59-40.07-4.95-11.34-10.61-28.02-15.29-44.41-3.88-13.58-11.68-19.71-13.13-24.59-.41-18.99.87-27.49,2.92-30.87-.28,2.53.16,5.22,1.57,8,5.35,2.05,5.86.15,11.53-1.68,5.19-1.51,10.5-6.51,14.74-8.75,1.46-2.07,2.54-3.92,3.3-5.57,10.8-9.44,17.24-27.04,19.25-41.27-2.46-14.95-19.84-28.24-25.41-33.76-7.54-3.94-17.29-6.71-21.74-15.71-14.51-15.43,22.36-43.14-24.93-45.98-12.36,1.76-24.83-2.04-37.01.39-10.4,13.53-21.83,26.76-30.53,43.02-5.06,3.33-8.13,11.6-10.64,16.93-13.96,18.37-37.02,34.24-39.74,59.32-1.47,7.36,2.92,17.53,2.15,23.1-5.31,5.29-5.04,11.53-4.19,18.9-1.22,7.66-6.73,17.11-6.83,24.56,10.77,10.31,27.85,8.2,26.49,33.31-3.23,28.42-7.29,27.37-8.82,38.99-.23,3.04-7.9,11.6-15.82,15.6-15.75,8.23-27.03,6.16-30.04,6.03-1.21,2.75-3.27,7.34-6.29,15.96.02-.04.05-.09.07-.13-.04.07-.19.38-.15.3-10.92,22.83-19,46.2-21.13,71.19-.9,2.83-1.21,9.29,3.49,8.24-4.34,10.91-6.37,18.04-8.48,24.39-11.94,36.02-19.19,27.33-17.03,44.66,3.86,17.64,18.73,23.24,34.17,27.97,24.81,13.97,51.53,13.6,79.73,11.88,15.29-.91,30.34-2.58,38.4-.13,15.24,4.63,20.74,2.13,19.53-5.02.64-2.72,5.56,1.62,3.86-.29-1.9-2.12-3.56-9.11-2.01-17.35,1.33-7.05-2.87-30.86-4.96-49.33-3.41-16.15-3.85-22.81-12.46-51.77,5.49-11.34,10.31-20.61,17.7-34.21,1.48-2.72,3-5.58,4.55-8.62.64-1.73,1.27-3.46,1.9-5.21.47-1.3.94-2.61,1.4-3.93,11.26-31.75,21.26-66.43,27.53-100.48-1.17,12.48,1.34,34.48,18.66,72.41,13.75,30.12-1.36,38.56,42.74,102.78,10.98,17.28,44.61,48.95,56.25,70.98,4.28,11.56,5.4-.34,5.24-7.6ZM359.31,385.74c.36-5.11.56-10.25,1.4-15.27-.51,5.3-1,10.52-1.4,15.27ZM377.69,254.42c-7.24-15.36-19.17-.93-25.91-20.52,1.96-4.12,1.1-8.9.06-13.74-.67-11.69,11.43-7.97,17.57-2.49,9.71,10.02,12.5,17.38,14.63,25.54.19.72,6.51,10.12,6.72,10.56-1.12,17.9-15.55,11.82-20.21-.3-5.57-13.5,6.13,3.45,7.14.96Z"/>
          </g>
          <g id="bag">
            <g id="_x32_">
              <path class="cls-4" d="M347.79,201.61c-12.59-16.7-31.02-20.56-41.25-6.67-16.02,12.2-29.09,37.29-37.77,54.45,0,0-5.64,4.68-8.22,7.94-2.84,3.6-2.62,5.79-2.06,5.22,9.06-8.57,14.01-14.19,16.8-17.67-.26-4.59,3.93-8.73,7.96-15.7,1.46-2.27,4.43-5.15,6.3-8,12.74-19.44,33.18-47.22,55.55-14.54,24.53,30.63.04,45.45-13.43,70.19-5.6,9.38.17,0,.17,0,0,0-6.75,20.96-5.04,17.63,12.88-24.76,53.61-63.55,20.99-92.86Z"/>
              <path class="cls-4" d="M232.62,310.43c.01.13.02.21.02.21,0,0,.04-.17-.02-.21Z"/>
              <path class="cls-4" d="M220.51,364.94c-5.48-1.75-13.44-8.75-13.44-8.75,0,0,10.13-20.42,18.2-34.35,6.04-10.43,7.17-11.52,7.35-11.42-.09-1.02-.45-5.69.03-7.92.54-2.51-2.07,3.53-2.07,3.53,0,0-9.47,14.45-30.91,46.89,0,0-15.48,21.28-29.48,37.31-8.44,9.66-15.13,35.5-2.02,51.79,4.59,5.7,10.35,10.97,17.41,14.57,11.88,6.07,23.46,9.45,38.34,2.1,15.15-7.48,18.24-12.47,21.91-19.29,3.67-6.82,5.63-19.46,5.63-19.46,0,0,5.57-17.99.18-31.03-5.63-13.63-18.22-19.85-31.12-23.99Z"/>
            </g>
            <path id="_x31_" class="cls-8" d="M206.38,359.7s-25.1,22.41-25.99,40.3c-.76,15.2,7.37,32.16,17.74,39.09,7.47,4.99,14.73,9.8,35.44,3.4,4.36-1.35,6.41-7.06,10.23-11.3,0,0,5.04-7.8,6.94-10.16,2.77-3.43,2.61-11.97,2.87-14.32,2.69-24.26-8.6-28.39-8.6-28.39,0,0-25.53-15.22-35.85-16.48-4.98-.61-2.79-2.14-2.79-2.14Z"/>
          </g><!--bag-->
          <g id="skin">
            <g id="hand">
              <path class="cls-2" d="M350.94,223.97c-2.04-5.39-2.17-7.73,2.54-11.49,9.56-7.63,22.18,10.68,26.08,19.16,5.99,13.02,2.72,11.75,10.77,22.86.32.44-1.15,8.78-5.45,11.38-1.42.86-6.75.13-9.16-2.44-1.07-1.14-7.5-9.83-7.61-14.83,5.06-.06,5.5,8.44,9.61,5.83-1.64-1.92-4.3-3.59-4.07-4.61-1.71-3.85-9.05-.92-14.32-3.67-1.72-.9-3.98-4.18-5.75-6.71s-3.73-2.85-.21-7.07c-3.7-.17-3.25-7.3-.39-8.83-1.24,1.27-3.19-.66-1.92-1.91"/>
              <path class="cls-2" d="M294.58,426.9c-.42-.2-.91.63-1.37,2.03-.34,1.02,3.22-.29,2.94,1.18-.9,4.6-2,14.07-6,15.93,3.48-.65,9.86-5.15,13.5-7.3,3.52-2.07,7.91-6.68,8.05-9.96-2.81,1.37-5.26.89-7.36.98-1.7.07-1.96-1.13-3.67-1.22-1.61-.09-1.81.79-3.05-.38,0,0-1.28.13-3.05-1.25Z"/>
            </g>
            <path id="face" class="cls-3" d="M369.37,136.49c-6.02-4.07-11.73-10.26-12.3-18.83,7.89-5.11-17.81-31.17-22.9,8.35-16.17-7.99-24.68,10.42-16.01,23.72,4.93,4.76,11.58,13.97,17.1,19.54,3.57,3.61,7.18,6.16,9.54,14.05.46-.01.57-.22,1.05-.26,1.63-7.78,5.5-9.44,7.41-9.93,16.18-1.78,11.85-9.41,12.52-13.7,3.66-5.78,1.41-7.41,1.56-7.04.3.74.6-1.5,1.05-3.15.6-2.15-2.53-3.44-2.53-3.44,1.04-3.33,4.08-4.34,3.52-9.32Z"/>
          </g>
          <path id="glass" class="cls-10" d="M358.68,125.78s-.02,0-.03,0c-4.04,1.09-26.92,7.24-26.81,7.22,0,0-.03.98.32.96.32-.02,23.86-6.22,26.95-7.03-.15-.38-.29-.76-.43-1.14Z"/>
          <path id="hair" class="cls-7" d="M301.96,142.11c-.23.12-.46.26-.68.44-3.44,3.18-5.94,5.92-7.3,8.68-.45.61-.62,1.32-.61,2.02-1.59,2.29-2.72,4.14-3.24,5.33-1.29,14.51-28.16,16.85-27.83,32.69,1.19,8.13.54,15.57-3.19,19.11-5.28,4.56-16.22,3.28-20.57,7.56-12.94,14.36,7.07,20.32-1.92,28.74-2.93,2.68-9.22.8-8.92-2.54-.49,5.47,3.67,8.93,8.41,7.26-6,5.59-9.32,6.61-19.06,4.7,6.58,3.26,13.93,3.61,13.23,5.16-2.15,1.77-6.77,6.32-7,11.85-.43,10.36,7.2,12.95,7.8,11.7.82-1.73-1.26-.33-2.96-5.71-1.59-5,2.22-11.78,10.86-11.77,6.71,0,11.59,4.55,18.2-6.17,1.56-2.52,7.6-7.78,11.74-11.99-.35-2.18-.29-6.29-.13-7.4.14-.94,1.28-6.94,8.06-10.5-6.89,9.83-4.08,13.11-4.08,13.11,7.64-18.89,14.74-28.3,22.12-36.95,1.39-1.63,2.48-4.01,4.13-5.22,11.56-8.43,16.1-16.71,17.34-18.14,1.72-1.99,4.97-1.4,7.55-1.27,8.88.44,17.89,1.22,20.91.52,0,0,.46-5.74-7.1-11.96-14.3-11.78-13.33-18.15-12.37-19.85-5.06-1.59-9.56-6.79-9.82-12-.23-4.49,3.14-9.2,6.63-9.21,1.31,0,3.04,1.28,3.64,3.28l2.89-1.78c-.81,6.37,9.28,20.62,12.66,27.84,1.12,2.4.89,7.2-.13,8.76-.32.49,1.48-.73,2.83-1.79,7.21-5.74-4.57-18.47-5.2-25.42-.54-5.97,1.72-21.91,1.72-21.91,7.59,7.89,10.33-2.33,15.59-1.87,2.11.81,4.84-1.75,5.7-4.96-1.59-31.4-39.77,5.36-59.89,29.65ZM344.21,118.78s-.03-.11.03-.12c0,.04-.02.08-.03.12Z"/>
          <path id="hat" class="cls-13" d="M337.76,87.11c-4.83-2.48-9.44-6.57-13.29-9.26-19.23-1.04-54.1,25.37-55.9,43.32-.68,6.77,1.81,14.03,7.42,21.43-1.22,2.72-1.06,9.83,2.48,16.71,2.35,3.62,4.63,4.62,5.77,5.22,2.64-1.65,4.19-5.9,8.05-9.78,26.58-26.78,39.36-43.41,63.06-54.73,5.04-7.44-9.77-21.07-17.6-12.92Z"/>
        </g><!--fillいろ-->
        
        <g id="Stroke"><!--せん-->
          <path id="Sonora" class="cls-5" d="M354.16,224.78c1.39-1.27,2.65-2.68,3.75-4.2,2.1.21,4.27.57,6.43.51l-1.37.68c-2.85-.51-5.76.75-8.03,2.54-1.46,1.15-2.79,2.62-3.21,4.43-.28,1.2-.35,1.75.35,2.84-.81.17-1.26,1.5-1.67,2.22s-.54,1.57-.5,2.4c.09,2,1.23,3.93,2.94,4.97l.03.16c-12.07,19.75-24.33,39.93-30.03,62.93-3.09,6.86-3.95,14.48-4.76,21.96-.73,6.74-.23,6.47-1.47,13.39.57,1.25.85,2.63.83,4,1.82-9.99,3.21-20.06,4.17-30.17l.19.63c8.54-24.39,20.5-47.58,35.44-68.66"/>
          <path id="Kami_ude" class="cls-5" d="M337.8,130.2c6.81-1.47,13.57-3.16,20.26-5.08l.03-.03s.51-.02,1.29-.34c.27-.11.6.08.85-.05-.03-.4-.09-.8-.21-1.18-.25-.41-.77-.55-1.27-.52.06,1.37.18,2.73.37,4.08.02.17.05.35.15.5.31.44.99.26,1.47.03l-.13-.12c.02,2.73.27,5.46.76,8.14l1.15.24c-.87-6.45-1.53-12.63-1.64-19.26l2.13-.14c.2-.01.41-.02.58.08.24.15.3.45.35.73.39,2.41.78,4.81,1.16,7.22.55,3.38,1.09,6.8.8,10.21l.63-.1,3.35,1.62c-.44,3.42-1.98,6.7-4.32,9.27.6.8,1.58,1.24,2.21,2.02,1.03,1.3.69,3.45-.68,4.68,1.15.89.98,2.69.35,4s-1.61,2.5-1.8,3.94c-.15,1.22.3,2.43.4,3.65.2,2.35-.94,4.69-2.71,6.25s-4.09,2.38-6.44,2.63c-1.39.15-2.82.12-4.16.53-3.84,1.19-6.92,6.41-6.92,9.3l-1.03.8c-.31-1.68-.86-3.32-1.63-4.85-2.45-4.84-6.93-8.26-10.84-12.03s-7.53-8.55-7.38-13.97l.32-.33c.19-.7-1.39-14.5-1.85-15.06s-1.34-.78-1.95-.39c-.77.51-.76,1.63-.62,2.54.29,1.87.79,3.81,2.07,5.21s3.55,2.05,5.13,1c.42.9,1.89,6.04,1.88,7.03l.47.14c-4.56-.44-9.14-2.3-12.06-5.84s-3.82-8.87-1.49-12.82c.95-1.61,2.49-2.98,4.34-3.29s3.96.68,4.53,2.47l3.19-1.85c-1.79,12.61,16.78,24.84,12.28,37.11l-.6.33c16.1-6.48-4.53-22.52-2.05-33.47.36-3.4,1.54-12.6,2.01-15.98,2.96,4.9,9.77,3.04,11.87-1.72,11.71,2.03,11.96-12.94,3.08-17-3.24-1.21-6.34-.25-9.47,1.23-10.57,4.99-19.32,10.85-27.76,18.94-10.26,9.84-20.53,22.12-26.46,35.03,11.18-12.42,20.12-20.64,31.81-32.6,4.61-4.72,9.25-9.47,14.58-13.36,4.65-3.39,9.76-6.1,14.87-8.73,1.9-.98,4.09-2.43,3.94-4.56-.06-.92-.59-1.74-1.12-2.5-2.33-3.34-5.15-6.33-8.34-8.87-.52-.41-1.07-.82-1.72-.96-.79-.17-1.61.11-2.36.42-1.96.82-3.78,1.94-5.39,3.32-5.61-3.75-10.2-7.46-14.9-11.04-15.43,3.06-29.66,10.66-40.67,21.55-6.88,6.8-12.67,15.25-13.97,23.68-.21,8.65,3.66,17.31,10.31,23.27,5.89-9.81,9.83-14.97,17.97-21.99,3.81-3.29,7.12-6.58,10.93-9.87,2.96-2.55,8.93-7.62,12.26-9.65l-1.22.92c-15.54,10.36-31.99,21.57-42.31,37.13-2.89,3-.9,9.88.25,13.76s4.18,7.02,7.73,8.96c1.52-1.73,3.42-4.53,4.95-6.24-1,7.08-7.45,11.92-13.4,15.89s-12.47,8.63-13.74,15.67c-.34,1.86,0,4.59.44,6.94.76,4.07.05,8.33-2.24,11.78-.65.98-1.35,1.81-2.1,2.29-2.96,1.93-6.54,2.6-10.01,3.3s-7.05,1.51-9.87,3.64c-4.47,3.39-6.08,10.06-3.64,15.11,1.41,2.92,4.01,5.39,4.33,8.62.3,3.08-1.92,6.2-4.92,6.94-2.98.73-6.71-1.65-6.43-4.38-.12,1.25-.18,2.54.12,3.76s1,2.4,2.1,3.02c.81.45,1.75.58,2.67.69,1.35.17,2.9.28,3.89-.66-1.94,1.4-2.53,2.87-4.65,3.97-6.72,3.5-14.93,1.3-14.93,1.3,6.39,2.39,11.43,4.75,18.86-.07,3.82-2.48,6.64-6.84,6.14-11.36-.23-2.11-1.11-4.09-1.59-6.15-1.5-6.45,1.66-13.99,7.78-16.51,8.42-3.46,19.68,2.57,26.44-3.51,4.32-3.88,4.13-10.57,3.77-16.36s-.08-12.61,4.61-15.61c-2.81,4.12-4.17,9.21-3.78,14.18.25,3.28,1.24,6.48,1.48,9.77s-.41,6.89-2.84,9.11c5.22-4.53,8.47-11.26,8.77-18.16l-.12.1c2.98,8.98-2.66,19.86-11.71,22.6-4.24,1.29-9.12,1.06-12.65,3.75-3.64,2.78-4.65,7.83-4.65,12.41s.75,9.26-.46,13.68-5.23,8.58-9.64,7.67c2.53-1.15,4.07-3.87,4.52-6.61s-.01-5.55-.48-8.29-.95-5.54-.53-8.29c.77-5.07,8-12.07,8-12.07-6.59,3.22-10.68,10.92-9.67,18.18.53,3.79,2.28,7.61,1.22,11.28-.83,2.87-3.32,5.04-6.11,6.12s-5.85,1.19-8.83,1.03c-2.02-.11-4.12-.32-6.02.38-3.35,1.25-5.08,4.98-5.68,8.49-.87,5.02.67,11.31,5.54,12.83.55.17,1.2.25,1.65-.1s.36-1.28-.22-1.32l-.48-.24c-2.79-2.85-3.22-7.62-1.23-11.08s6.15-5.44,10.12-5.13c3.32.26,6.58,1.95,9.83,1.24,3.58-.79,5.87-4.17,8.06-7.11,3.35-4.5,7.31-8.54,11.74-11.99-.06-.88-.13-1.75-.19-2.63l.34-.15c-1.24-5.98,2.32-12.59,8.09-14.99-1.68.98-2.6,2.85-3.43,4.6-.64,1.34-1.28,2.71-1.57,4.16s.59,4.32.59,4.32v-.11s6.32-15.98,10.96-22.49,9.9-12.56,14.63-19.02c3.57-4.88,6.85-10,10.91-14.48,6.53-3.32,14.06-2.5,20.54-.1,10.71,3.97,19.81,12.08,24.78,22.16,2.65-2.17,6.66-1.92,9.68-.3s5.26,4.35,7.38,7.04c.74.94,1.67,1.97,2.86,1.91l-.39-.11c-.06.57.9.12,1.06-.43,2.19-7.58,3.35-15.45,3.44-23.34.02-1.98-.07-4.11-1.28-5.68-.69-.89-1.67-1.51-2.66-2.05-5.04-2.81-10.74-4.43-16.51-4.7-5.6-.26-11.19.73-16.8.72-6.18-.01-12.34-1.46-18.49-.93-14.83,1.28-20.33,9.46-20.33,9.46l-.12-.02s14.16-28.32,10.15-41.79c-1.56,5.28-2.65,10.7-3.27,16.18l.19-.19c.1,2.57.14,5.36-1.36,7.44-1.26,1.75-3.35,2.65-5.3,3.55-2.22,1.03-4.41,2.2-6.19,3.87s-3.14,3.91-3.32,6.35c-.28,3.83,2.31,7.34,2.42,10.61.2,1.84-1.56,3.63-3.4,3.47s-3.26-2.23-2.75-4c-1.25,2.11.55,4.99,2.91,5.68s5.2.37,7.1-1.18c24.69-20.09,15.03-21.65,23.27-37.89-1.35,4.46-2.71,9.02-2.64,13.68.02,1.61.21,3.23-.09,4.78,4.05,3.31,10.57,2.57,14.12,6.4-1.94-.8-4.11.22-5.96,1.22-1.86,1-3.72,2.01-5.58,3.01-.88.47-1.86,1.09-1.99,2.08,2.26.72,4.54,1.45,6.59,2.64s3.88,2.91,4.76,5.12c-4.44-3.17-10.45-4.01-15.59-2.17-.26.09-.54.2-.71.42-.59.76.51,1.68,1.4,2.05,2.59,1.08,5.03,2.54,7.21,4.32-2.18-.83-4.62-.97-6.89-.39l.06-.08c-3.14,1.72-6.9,1.68-10.39,2.44-6.64,1.45-12.53,6.04-15.54,12.14-.93,1.88-1.6,3.9-2.68,5.7-.74,1.22-1.65,2.33-2.56,3.43-2.89,3.49-5.78,6.98-8.66,10.47-.53.64-1.07,1.31-1.26,2.11l.73-.4s9.01-7.11,14.13-16.17c3.29-11.96,12.12-16.02,20.85-16.89,3.69-.37,7.03-2.74,10.43-1.26,7.65,3.32,11,12.25,12.71,20.41,1.94,9.27,2.8,18.76-1.65,29.62-6.02,23.75-16.17,46.44-29.86,66.76l.1-.64c.1.52.47.98.96,1.19,3.54-3.82,5.29-8.95,8.4-13.13l-.16.21c-2.55,9.49-6.69,18.55-12.21,26.69l-.05.16c1.65-.24,2.85-1.65,3.82-3.01,2.39-3.31,4.44-6.85,6.14-10.56h-.13c5.51,11.71,7.61,24.96,5.87,37.53-.79,5.72-2.37,11.29-4.79,16.52-6.6,7.63-17.32,11.45-27.26,9.72-3.07-.54-6.24-1.69-9.44-4.67-.29,5.46.71,10.99,2.9,16,.42,1.29,1.47,2.09,2.79,2.33l-.15-.88c14.7-.73,20.01,2.33,30.23-15.92l-.22-.03c-.74,6.18-6.33,12.82-10.98,16.14s-14.24,2.09-14.24,2.09c0,0,15.65,5,27.79-9.68,5.32-6.43,5.87-14.29,2.53-22.47,1.17-2.49,1.28-5.25,1.27-8.01l.13-.14c2.97,3.44,2.16,8.59,2.51,13.12.44,5.66,2.93,11.01,3.37,16.68.73,9.55-4.47,18.57-10.59,25.94-3.55,4.28-8.37,8.6-13.88,7.86-3.78-.5-6.8-3.29-9.55-5.93-6.07-5.85-12.14-11.7-18.21-17.54-1.03-.99-2.09-2.02-2.7-3.32-.43-.92-.62-1.94-.81-2.94l-2.43-13.33.08.11c.33.73,1.11,1.38,1.83,1.73,1.06.51,2.17,1.03,3.34.98-3.39-1.8-4.64-3.17-5.49-4.29-1.11-1.46-2.06-3.02-2.91-4.64-5.61-10.78-24.29-48.13-25.84-70.59-.34-4.87-.27-9.82,1.03-14.53,1.24-4.49,3.57-8.61,6.15-12.49,7.95-11.9,31.79-36.21,31.79-36.21l-.08.2c.55-.58.49-1.49.49-2.29,0-2,1.84-3.33,1.84-4.56l.07-.15s.3-2.61,9.98-14.2c3.58-4.28,5.74-9.57,8.9-14.17,5.21-7.58,11.26-15.09,20.13-18.5,2.6-1.31,5.67-1.44,8.53-.89s5.55,1.74,8.18,2.99c2.62,1.24,5.25,2.58,7.38,4.55,1.56,1.44,2.82,3.18,4.01,4.94,2.42,3.56,3.62,6,5.65,9.8h.13c-.94,2.34-1.78,4.86-1.32,7.33.25,1.68,1.48,3.48,3.33,3.46-2.01-3.09-1.83-7.54.55-10.37s6.74-3.77,10.08-2.17c1.74.83,3.13,2.22,4.48,3.59,1.58,1.59,3.17,3.19,4.65,4.88,5.98,6.83,10.21,15.18,12.24,24.16,1.26,2.8,2.88,5.44,4.82,7.81.66.81,1.38,1.65,1.52,2.68l-.54,2.23c.04,2.11-.56,4.23-1.72,6.01-.71,1.09-1.65,2.06-2.83,2.61s-2.62.6-3.65.47c.35.79.91,1.5,1.61,2.01l-.27-.22c.92.88,2.31,1.17,3.55.9s2.34-1.05,3.14-2.03,1.35-2.16,1.75-3.36l-.4.47c1.37-3.27,2.01-6.84,1.89-10.39,2.08,2.01,3.74,4.45,4.85,7.13.93,2.26,1.41,5.03-.02,7.01l.45-.73c-1.5,4.23-6.87,6.05-11.22,4.96s-7.82-4.33-10.8-7.68c-3.89-4.37-7.45-9.42-8.21-15.22l-.27-.07c1.73-.43,3.69.23,4.79,1.63.81,1.03,1.17,2.35,1.91,3.43.46.67,1.12,1.26,1.93,1.37s1.72-.47,1.75-1.28l-.19.09c-1.93-.65-3.53-2.23-4.21-4.15-.19-.53-.32-1.11-.71-1.52-.45-.47-1.15-.61-1.79-.72-3.51-.58-7.05-1.02-10.6-1.32-.53-.04-1.08-.09-1.55-.34-.35-.18-.63-.47-.9-.75-1.18-1.25-2.2-2.65-3.04-4.16-.09-.17-.19-.35-.19-.54,0-.47.48-.77.92-.96,5.12-2.24,11.06-2.56,16.39-.87l1.7-1.48.11.1c-3.52-.61-7.07-1.23-10.64-1.09s-7.21,1.09-10.01,3.31l-.14-.52c-.43-.63-.84-1.28-1.21-1.94-.24-.42-.46-.87-.52-1.35-.11-.88.35-1.73.94-2.39,1.38-1.55,3.42-2.32,5.42-2.82,3.36-.85,6.88-1.09,10.33-.73"/>
          <path id="Maeasi" class="cls-5" d="M382.19,234.31c8.55,5.46,15.17,13.87,18.47,23.47,5.02,14.63-1.45,12.82,10.71,44.85l-.22.3c-.22-3.76-1.42-7.37-2.41-11-1.65-6.04-2.72-12.24-3.21-18.48-.27-3.5-.36-7.02-1.03-10.47-1.57-8-6.17-15.03-10.69-21.82l.54.22c10.66,5.82,19.79,14.4,26.26,24.68,3.54,5.63,6.36,12.2,5.37,18.78-.58,3.83-2.4,7.35-4.19,10.79-1.83,3.5-3.66,7-5.49,10.5-2.27,4.35-4.57,8.73-7.56,12.62-4.73,6.15-11.18,10.96-18.42,13.73-5.05,1.94-6.87,5.45-12.03,2.98-.95-7.66-.64-15.48.93-23.04,1.13-5.43,2.85-8.37,3.44-16.26.38-5.05-.12-12.28-.9-16.2-.55-2.77-2.64-11.26-5.03-13.85,0,0,5.42,14.92,2.69,36.72-1.51,12.01-4.44,23.8-5.95,35.8-1.37,10.92-1.3,21.97-1.12,32.98.22,13.54.62,27.18,3.6,40.39,4.02,17.79,12.61,34.23,17.43,51.82,4.89,17.82,5.82,36.43,6.41,54.92.05,1.58.1,3.16-.1,4.91,5.09-10.72,3.33-23.29,1.45-35.02-1.2-7.51-2.4-15.01-3.6-22.52-.84-5.24-1.68-10.5-3.23-15.57-1.74-5.68-4.35-11.05-6.66-16.52-8.25-19.44-12.93-40.62-11.99-61.4.08-2.48.15-5.02-.55-7.4-.34-1.15-.85-2.25-1.12-3.42-.5-2.16-.13-4.41.29-6.58l-.26-.29c-1.07,9.31,6.94,16.84,11.01,25.28,2.11,4.39,3.19,9.19,4.38,13.91,6.97,27.49,18.76,53.76,34.68,77.23l-7.71-5.25c.57,2.15,1.71,4.14,3.28,5.71-6.8,11.79-8.79,26.27-5.23,39.52-1.59-10.97,0-22.38,4.51-32.51l.07.16c27.12,30.5,33.48,73.57,49.21,111.22,7.13,17.06,16.53,35.36,11.24,53.07-5.23-13.26-15.15-24.01-24.69-34.6-28.78-31.96-56.65-66.87-67.32-108.53-2.41-9.4-3.9-19.04-6.73-28.32-7.45-24.43-19.71-33.88-21.65-69.75h0c-1-.5-1.57-1.58-1.4-2.69,2.53-16.91,4.68-35.35,7.24-52.14.47-3.09.93-6.35-.16-9.28l-.1.53c-7.1,53.67-14.57,108.15-36.83,157.55.63.98,1.29,2.07,1.15,3.23-.07.57-.33,1.11-.58,1.63-2.23,4.51.47,1.02-1.76,5.52l-1.56,1.31.85-5.62.09-.28c-7.13,14.38-13.26,26.26-20.16,41.09,8.65,14.51,11.93,31.51,14.6,48.19,1.31,8.21,2.51,16.44,3.59,24.69,1.26,9.63,2.37,19.37,1.34,29.02,22.44,3.6,44.65,2.86,63.82-.92-5.08-14.77-8.57-27.29-13.87-40.68-6.03-15.25-9.55-21.7-24.67-37.89s-28.96-44.42-28.96-44.42l.42.24,1.58-2.24c16.22,27.73,19.51,33.19,33.48,49.33,4.36,5.04,8.95,9.95,12.34,15.68,3.51,5.93,5.64,12.57,7.75,19.13,9.08,28.22,18.51,56.5,32.43,82.67.85,1.59,1.84,3.29,3.53,3.93,1.7.64,3.58.02,5.29-.61,13.02-4.77,18.68-7.59,31.7-12.36,6.87-2.52,12.62-6.85,21.84-8.4,4.1,17.34,19.15,46.74,19.15,46.74.89,5.16.72,10.49-.48,15.59-.46,1.94-1.09,3.88-2.28,5.48s-3.03,2.81-5.03,2.83c-2.61.03-4.77-1.88-6.79-3.53-5.17-4.24-11.13-7.51-19.81-11.22-1.26,5.1-2.32,10.3-2.3,15.55s1.16,10.61,4.03,15.01l5.61,1.97c15.98,2.72,31.87-3.95,47.9-6.33,5.01-.75,10.07-1.07,15.08-1.85,14.72-2.28,28.8-8.5,40.39-17.85,1.63-.75,2.06.79,2.06.79l.11-.29c1.7,4.42,2.41,9.22,2.07,13.94-.09,1.31-.3,2.7-1.15,3.7-.75.87-1.87,1.31-2.94,1.72-8.04,3.04-16.07,6.08-24.11,9.12-6.52,2.47-13.22,4.97-20.19,4.95-5.77-.01-11.44-1.77-17.21-1.73s-12.21,2.56-14.1,8.01c-5.21,2.83-10.28,3.19-15.31,3.54-5.89.42-12.25.72-17.2-2.5-.45-.29-.9-.62-1.21-1.07-.49-.69-.61-1.58-.7-2.43-.42-3.59-.84-7.18-1.25-10.77"/>
          <path id="Maeasi_2" class="cls-5" d="M469.13,629.26c3.13,10.44,6.25,20.87,9.38,31.31.28.92.55,1.92.22,2.82-.27.74-.9,1.28-1.79,1.98-1.47,2.1-4.03,3.08-6.42,3.98-10.02,3.78-19.82,8.15-29.32,13.1,8.87,13.63,14.47,25.92,18.16,41.91,1.99.65,3.99,1.3,5.85,2.25.99.51,1.94,1.09,2.88,1.68,1.13.7,2.28,1.42,3.14,2.43l-.4-.62c-.22-.11-.37.32-.16.46s.48.05.7-.04c7.2-3.07,12.59-9.13,17.75-14.97l-4.43-9.43-.54.02c-14.78,14.78-23.59,16.94-23.7,17.06-.24-4.49-1.38-8.92-3.33-12.97,0,0,17.2-8.13,23.22-15.84-1.59-2.95-2.92-6.04-3.98-9.22v-.2c-6.41,6.78-14.43,12.02-23.21,15.16l-.04-.05c-1.55-3.28-3.35-6.45-5.4-9.54,6.19-1.04,11.84-4.09,17.24-7.28,3.05-1.8,6.14-3.73,8.44-6.73.09-.92,1.3-1.34,2.16-1,.18.07.3.24.34.43,1.86,7.32,9.42,23.8,13.11,30.69,2.22-.38,3.33-.27,5.55-.65,2.35,3.05,3.94,6.67,5.38,11.03,1.8-3.5,1.37-7.84,4.15-11.03.91-1.05,2.22-1.71,3.61-1.77.47-.02.98.04,1.36.33.3.23.49.59.61.95.23.68.19,1.42-.08,2.09-4.47,11.25-8.22,8.86-8.32,8.82.22-.39.51-.73.84-1.03,1.44-1.36,3.5-2.01,5.47-1.79,4.23.48,5.51,1.7,5.78,2.1,2.57,3.8-.6,5.41-2.01,6.27-1.87,1.13-4.33.84-6.26-.17s-3.05-1.35-4.53-2.96c1.82,4.67,3.76,9.29,5.84,13.85l.1.11,2.13-.3-4.31-9.3c4.18,2.63,8.35,5.26,12.53,7.89-.74-.51-1.48-1.03-2.23-1.54l1.67,1.43c.68.07,1.37,0,2.02-.19.2-.06.42-.14.52-.33.21-.39-.23-.8-.62-1.02-2.94-1.6-6.37-2.66-8.44-5.3.97.13,1.99.07,2.89-.31s1.68-1.13,1.97-2.07c.89.94,2.09,2.81,2.09,2.81,1.47,3.33,5.7,4.63,9.3,4.06s6.78-2.54,10.05-4.14c5.38-2.64,11.41-4.37,17.36-3.64s11.77,4.29,14.06,9.84"/>
          <path id="Ushiro" class="cls-5" d="M361.46,329.08c1.81-.84,3.52-1.87,5.11-3.08.87-.66,1.74-1.43,2.02-2.49s-.37-2.4-1.45-2.45c-.51-.03-1,.23-1.45.47-1.51.82-3.76,1.89-5.27,2.71l.16-5.43c-.01-3.1.19-5.4-1.7-7.86-2.11-2.75-1.2-2.34-3.39-3.95-3.09-2.28-3.77-2.19-5.62-3.08l-3.06,2.81-.06-.04c3.15.56,5.85,2.76,7.54,5.48s2.48,5.91,2.85,9.08c.2,1.74.29,3.49.25,5.24h0c.37-.55.79-1.05,1.26-1.49.86.12,1.64.77,1.89,1.61.12.41.13.84.13,1.26,0,.59-.02,1.19-.05,1.78-.01.26-.04.53-.2.73-.11.13-.27.21-.42.28-.45.22-.9.44-1.35.66-.23-.16-.38-.42-.41-.7l-.14.15c.09-1.67,0-2.36-2.13-3.06-8.62,4.61-6.11,7.85-4.54,8.05,2.47.32,5.15-.86,6.44-3.02v-.3c-1.34,17.79-11.34,33.6-21.05,48.57-4.37,6.74-8.74,13.48-13.11,20.22l.18-.11c-.49,4.66-2.1,8-3.39,10.21.31,2.24-.37,3.11-.52,5.36s-.79,4.54-2.21,6.3c-.75.94-1.7,1.7-2.67,2.4-2.91,2.1-6.42,3.78-10,3.03-1.5-.15-3-.31-4.41.1.1.38.24.75.42,1.1,2.87.26,5.77.13,8.6-.39.78-.14,1.59-.33,2.22-.81l-.15-.93-.12,4.23,1.55-2.14c-6.19,7.6-14.47,13.46-23.69,16.78l.19-.07c3.02-1.39,3.46-3.52,3.46-3.52,1.28-4.77,2.06-8.29,3.06-12.93-1.17-.53-2.39-.97-3.63-1.32v.12c-9.12,24.83-10.47,52.46-3.82,78.06,6.23,23.98,19.9,43.71,25.93,67.74,1.97,7.83,3.18,15.84,4.39,23.82,1.08,7.11,2.16,14.23,3.24,21.34,1.27,8.36,2.54,16.87.93,24.41-11.84,6.22-25.69,7.23-39.06,7.22-33.21-.02-66.4-5.65-97.95-16.17l.02,2.6c.08-.21.46-.17.49.05l.38-.39c33.26,11.29,68.49,16.75,103.6,16.04,10.91-.22,22.22-1.15,31.76-6.46-.17,4.94.79,9.92,2.76,14.45h-4.31c2.12,2.61-.44,6.78-3.7,7.62s-6.63-.41-9.88-1.25c-7.69-1.99-15.75-1.75-23.69-1.48-10.5.35-21,.69-31.49,1.04-6.78.22-20.43.52-27.17-.17-12.1,11.89-24.2,23.79-36.3,35.68-1.27,1.25-2.57,2.52-4.15,3.36-4.9,2.61-10.99.37-15.6-2.72-10.33-6.94-27.35-24.08-27.35-24.08-6.15,1.68-9.71,6.7-9.71,6.7-7.67-5.78-13.95-13.39-18.16-22.02-1.91,3.14-3.67,6.46-5.96,9.27-.76.92-2.37,2.26-3.23,3.08,4.95,8.04,10.42,16.53,19.19,20.28,1.31-3.18,2.69-6.47,5.21-8.81.29-.26.6-.52.98-.6s.84.1.95.47l-.12.09c-4.19,4.19-5.08,7.27-7.12,12.83l.21-.12c-.73,3.25-2.28,6.32-4.47,8.84-.27.32-.57.63-.94.82s-.84.25-1.2.04l.17-.03c-1.06-2.04-1.65-4.33-1.72-6.63,3.03-1.12,5.87-3.64,9.03-2.96,1.72.37,3.13,1.73,3.56,3.44.54,2.18-.5,4.51-5.76,6.47l-.11.63c.72.51,1.53.89,2.38,1.1.6-.63,1.3-1.17,2.06-1.58l.05.06c3.38-3.22,7.26-6.65,11.93-6.61.89,0,1.87.2,2.4.91.34.45.43,1.03.5,1.59.31,2.41.35,5.09-1.16,6.99-.71.9-1.71,1.53-2.74,2.02-3.54,1.66-7.8,1.72-11.37.15,0,0-2.08-.91-2.22-.77-.6-.86-1.43-1.55-2.39-1.98l.11-.03c-2.83-.55-5.73-.76-8.61-.63-1.21.06-2.47.19-3.49.84-1.52.97-2.16,2.93-2.05,4.73s.85,3.49,1.58,5.14c.55,1.24,1.3,2.64,2.63,2.86.75.13,1.51-.17,2.19-.51,3.85-1.91,7.11-4.95,8.39-9.05l.84.73c-2.45,8.26-4.72,15.83-3.33,24.33v-.09c.54.23,1.08.47,1.62.7-.32-1.67-.33-3.37-.29-5.07.19-6.92,1.36-13.84,3.76-20.33l.18.21c4.18,1.49,4.13,1.45,5.42,1.74,3.93,1.58,7.48,2.96,10.64,5.02s5.96,4.86,7.37,8.36c-.49-.23-1.69.22-1.69.22-.39-.28-2.83-6.36-11.65-9.72-3.01-1.15-4.47-2.11-9.22-3.92.39,2.82,3.51,4.42,5.7,6.24,5.08,4.22,8.85,10,10.66,16.36l.53-.2c3.58,1.26,7.28,2.6,10.03,5.22s4.3,6.9,2.63,10.32c-12.08,4.89-25.44,6.56-38.35,4.8-2.99-.41-6.01-1.02-8.61-2.55-3.12-1.84-5.22-4.95-7.59-7.69-7.9-9.12-11.95-13.44-17.87-19.37-1.87-1.87-11.1-10.08-12.52-12.31-.27.34,2.68,5.39,5.61,7.88,9.08,7.72,16.95,16.76,24.62,25.89,2.12,2.53,4.28,5.11,7.07,6.89,4.92,3.13,11.09,3.33,16.93,3.39,10.61.12,21.81-.05,30.94-5.45.36-.21.72-.44.97-.77.74-1,.22-2.56.99-3.54l.24.13c.71,3.45,1.02,6.98.94,10.51-.03,1.45-.16,2.97-.99,4.16-1.27,1.81-3.72,2.25-5.92,2.49-10.45,1.14-21.03,1.1-31.47-.1-8.7-1.01-17.86-3.12-23.97-9.38-4.4-4.5-6.7-10.64-10.64-15.53-6.85-8.51-18.1-12.66-24.28-21.81-1.05-1.55-1.74-3.34-1.86-5.2-.31-4.76,2.48-9.46,5.9-12.6-1.14,2.87.09,7,1.59,9.7.38.68.93,1.37,1.7,1.46l-.17-.46c-2.94-4.64-2.16-10.17.62-14.91s7.49-8.08,12.51-10.3c.82,4.61,1.67,9.3,3.82,13.46s5.84,7.79,10.44,8.68c6.68,1.3,18.29-7.26,18.19-7.29-1.05-.4-14.1-4.22-19.53-21.86-1.63,1.08-3.77,2.4-5.4,3.48-1.74,1.15-2.51,2.06-4.52,2.63-.62.18-1.43,1.23-1.75.67l-.07-.22c4.2-2.81,8.4-5.61,12.59-8.42,3.25-2.17,3.92-3.91,6.56-6.63,4-3.32,7.05-7.63,9.86-12,.72-1.12,1.71-5.61,2.75-2.78l-.06.78c1.8-2.9,1.5-4.68,4.62-5.87,1.65,4.32,3.64,8.56,6.51,12.18s6.69,6.62,11.13,7.9c.57.16,1.21.29,1.72,0l.11-.18c-5.56-4.12-9.76-5.47-13.68-11.17-2.63-3.82-3.8-8.42-4.93-12.91,9.38-10.9,18.76-21.81,28.15-32.74-.27,3.91-.27,7.88.61,11.7,2.55,11.02,12.24,19.25,22.81,23.27.44.17.93.37,1.14.79s-.15,1.09-.61.94l.49-.23c-5.95,6.96-12.58,13.33-19.76,19.01l-1.03-.06.38.13c-8.24-5.7-16.64-11.54-22.59-19.6-.86-1.16-1.69-2.43-1.86-3.86s.5-3.07,1.87-3.55l.32.05c.96,4.16,4.74,6.94,8.13,9.53,8.38,6.42,15.91,13.96,22.3,22.36-.35-.23.04-.83.45-.78s.69.44.92.78c5.33,7.83,23.83,11.06,23.27,10.66l1.58-1.4c6.21-4.68,12.24-9.61,18.08-14.76,4.4-3.88,9.01-8.05,14.77-9.14l-.62.12c-8.61-.88-17-3.22-25.33-5.55-8.86-2.48-5.22-3.44-14.08-5.92-7.96-2.23-16.35-4.71-21.94-10.79-4.88-5.31-6.91-12.62-7.98-19.75-.28-1.89-.51-3.83-.13-5.71.49-2.46,1.97-4.59,3.35-6.7,7.17-10.97,12.35-23.22,15.24-36,13.46-37.92,28.22-71.79,42.95-105.6,0,0-.29-.04-2.16-2.52-2.56,4.58-4.51,9.48-6.45,14.36-10.12,25.49-20.25,50.98-30.37,76.46-1.77-.95-.66-8.81-.52-10.82,2.2-31.78,14.72-54.31,27.15-84.66,16.72,1.42,31.65-3.56,46.15-19.61-2.1,6.55-4.78,15.73-6.51,22.39,1.62-3.57,6.27-4.58,10.16-4.16s7.76,1.82,11.64,1.23c7-15.8,5.25-34.05,9.08-51.04-5.08,11.9-4.73,25.32-7.06,38.04-.72,3.93-1.73,7.88-3.84,11.26.36-1.82-1.04-3.63-2.77-4.29s-3.67-.41-5.47.03c-3.17.79-6.2,2.18-8.87,4.07,1.92-6.28,3.55-12.65,4.69-18.93-.11-.54-.77-.82-1.32-.72s-.99.49-1.41.85c-.44.39-.89.77-1.33,1.16l.08-.11c-12.24,14.09-32.51,21.3-50.51,16.35s-32.12-22.75-31.18-41.39c.91-17.93,13.9-32.55,25.26-46.45,18.19-22.29,32.48-46.32,48.01-70.55v7.49s-5.57,3.55-26.82,48.2c5.14,4.9,11.73,8.02,18.33,11.04l.47-1.04c2.08-8.35,4.34-16.65,7.23-24.84-.73-4.31-.94-6.76,1.23-12.92.14-.38.58-1.24,1.3-1.82s1.98-1.24,2.67-.63v.43c-3.82,2.72-4.55,8.06-4.38,12.74.12,3.3.55,6.72,2.11,9.54-1.38-1.26-2.31-3-2.58-4.85-2.07,8.89-5.1,15.53-6.24,23.62-.04.32-.08.66.08.94s.59.43.81.19l.06.12c8.89,4.07,15.05,6.48,20.47,14.37,5.31,7.72,6,17.79,4.58,27.05l.21-.37c-.55,3.48-1.4,6.9-2.55,10.23.74-.41,1.14-1.23,1.5-2,3.04-6.54,6.08-13.09,9.11-19.63.55.25,3.98-2.58,3.98-2.58-4.33,4.7-13.51,26.78-18.7,41.95v.05c-.27.17-.66-.07-.77-.39s0-.66.09-.98c2.12-7.09,4.36-14.51,4.1-14.88-.39.61-9.95,16.51-15.7,19.79-10.69,6.09-24.69,5.21-35.07-1.4s-17.04-18.29-18.71-30.48c-1.28-9.31.27-19.19,5.41-27.05,5.57-8.52,14.83-14.12,20.28-22.71l.08.47c-1.24,6.51-4.75,12.56-9.78,16.87v-.16c-6.61,6.68-10.53,15.93-10.76,25.31s2.96,17.98,8.49,25.56c2.86,3.92,7.03,4.09,10.58,3.56,1.26-.19,2.51-.7,3.34-1.66,1.02-1.19,1.26-2.89,1.05-4.44-.62-4.6-4.96-8.25-9.59-8.62-1.27-.1.46,4.28-.6,4.99-1.2.81-4.92-1.98-4.99-.54s.35,2.87.92,4.19c1.14,2.6,5.3,7.27,7.27,9.41.74.81,1.54,1.59,2.5,2.12,3.04,1.67,6,2.42,10.22,3.48,5.99,1.5,12.5-.09,17.64-3.5s9.01-8.5,11.75-14.03"/>
        </g>
      </g>

</svg>
