<?xml version="1.0" encoding="utf-8"?>
<!-- Generator: Adobe Illustrator 24.1.1, SVG Export Plug-In . SVG Version: 6.00 Build 0)  -->
<svg version="1.1" id="_x31_0" xmlns="http://www.w3.org/2000/svg" xmlns:xlink="http://www.w3.org/1999/xlink" x="0px" y="0px"
	 viewBox="0 0 512 512" style="enable-background:new 0 0 512 512;" xml:space="preserve">
<style type="text/css">
	.st0{fill:#374149;}
</style>
<g>
	<path class="st0" d="M492,64.122H20.002c-5.598,0-10.718,2.398-14.238,6C2.244,73.641,0.002,78.68,0.002,84.2v343.6
		c-0.078,5.442,2.242,10.558,5.84,14.16c3.52,3.598,8.641,5.918,14.16,5.918H492c5.442,0,10.562-2.32,14.16-5.918
		c3.602-3.602,5.84-8.718,5.84-14.16V84.2c0-5.52-2.238-10.559-5.84-14.078C502.641,66.52,497.519,64.122,492,64.122z
		 M481.84,117.942v299.776H30.084V117.801L230.322,296.2h0.082c7.199,6.402,16.398,9.762,25.52,9.762c3.199,0,6.32-0.562,9.437-1.36
		h0.962l2.402-0.882c4.637-1.598,8.958-4.16,12.797-7.519c33.962-30.223,115.942-103.25,171.078-152.355L481.84,117.942z
		 M462.828,94.4c-49.183,43.816-160.3,142.792-201.307,179.319c-0.879,0.722-1.84,1.282-2.797,1.602
		c-0.883,0.32-1.84,0.481-2.801,0.481c-2,0-3.922-0.641-5.602-2.161L48.963,94.282h237.281L462.828,94.4z"/>
</g>
</svg>
