<?xml version="1.0" encoding="UTF-8"?>
<svg xmlns="http://www.w3.org/2000/svg" version="1.1" viewBox="0 0 85 85">
  <defs>
    <style>
      .cls-1 {
        fill: #151616;
      }

      .cls-2 {
        fill: #fff;
      }
    </style>
  </defs>
  <!-- Generator: Adobe Illustrator 28.6.0, SVG Export Plug-In . SVG Version: 1.2.0 Build 709)  -->
  <g>
    <g id="_レイヤー_1">
      <rect class="cls-1" y="0" width="85" height="85"/>
      <path class="cls-2" d="M72,38.1c-.2.3-.2.7-.3,1-.4,1.3-1.1,2.3-2.2,3-.3.2-.4.4-.5.8-.2,2.7-2.3,4.8-5,5-1.1,0-2.1-.2-3.1-.7-.4-.2-.5-.2-.8.2-.9,1.5-2.3,2.2-4.1,2.1-.2,0-.5,0-.5-.3,0-1.5-.1-3-.5-4.6.8.8,1.4,1.5,2.2,2,.2.1.4.3.6,0,.2-.3,0-.4-.2-.6-1.6-1.2-2.8-2.6-3.6-4.4-.6-1.4-1.3-2.7-2.3-3.9-.7-.9-1-1.9-1.2-3-.2-1.1-.2-2.2-.4-3.3.9.3,1.7.7,2.5,1,.2,0,.3.3.3.5.2,3.6,1.8,6.5,3.9,9.3.7.9,1.5,1.8,2.3,2.6.2.2.4.4.6.1.2-.3,0-.4-.2-.6-1.9-2-3.6-4.2-4.8-6.8-.7-1.6-1.2-3.6-1.2-4.6.9.4,1.7.9,2.5,1.5.4.2.3.6.4.9.7,3.6,2.7,6.4,5.2,8.9.2.2.4.3.6.1.3-.3,0-.5-.2-.6-1.6-1.6-3-3.5-4-5.6-.4-.9-.8-1.8-1-2.9.9.5,1.5,1.2,2.2,1.8,2.6,2.5,4.5,5.4,5.9,8.7,0,.1.1.2.1.3,0,.3.3.5.6.4.4-.1.3-.4.2-.6-.3-.7-.6-1.5-.9-2.2-1.7-3.4-4-6.3-7.1-8.8,1.1.1,2,.6,2.8,1,3,1.6,4.9,4.1,6.3,7.1.1.2.2.5.5.4.3-.1.2-.4,0-.7-1.5-3.1-3.5-5.7-6.5-7.4-1.3-.7-2.7-1.2-4.2-1.4-.6,0-.9-.5-1.4-.7-.4-.2-.8-.5-1.4-.8,1.6-.2,3,0,4.4.3,3.9,1,6.7,3.4,9.1,6.5,0,0,.1.1.2.2.1.2.3.4.6.2.3-.2.1-.4,0-.6-1.2-1.6-2.5-3-4.1-4.2-2.9-2.2-6.1-3.5-9.8-3.1-1.4.1-2.6-.4-3.9-1,1.8-.6,3.5-.8,5.3-.7,5,.2,8.9,2.6,12.2,6.1.2.2.4.4.6.6.2.2.4.4.6.2.2-.2,0-.4-.1-.6-1.6-1.8-3.4-3.5-5.5-4.7-4.4-2.5-9-3-13.8-1.4-.5.2-.9-.1-1.4-.2-.5,0-.9-.3-1.4-.4,1.7-1,3.5-1.7,5.4-2,5.4-.9,10.1.9,14.4,4,.4.3.7.6,1.1.8.2.1.3.2.5,0,.2-.2.1-.4,0-.5-.3-.2-.6-.5-.9-.7-2.9-2.2-6.1-3.8-9.8-4.3-3.9-.5-7.6.2-11,2.2-.3.2-.6.3-1,.2-.6-.2-1.2-.2-1.8-.3-.2,0-.6.3-.7-.3,0-.5,0-.8.4-1,3.6-1.9,7.3-3,11.3-3.4.1,0,.3,0,.4,0,0,0,0,0,.1,0,.7,0,1.5,0,2.2,0,0,0,0,0,.1,0,3.3.2,6.4.7,9.1,2.7,1.8,1.4,2.5,3.3,2.4,5.6,0,.2,0,.4.2.5,1.3,1,2,2.3,2.2,3.9,0,0,0,0,.1,0v1Z"/>
      <path class="cls-2" d="M40.8,60.4c.3.3.6.3.8-.1,0,0,0,0,0,0,0,0,0,0,0,0,0-4.9,0-9.7,0-14.6,0,0,0-.1.1-.2,1.1,1.2,1.5,2.6,1.8,4.1.4,2.2.6,4.4.3,6.6,0,.3,0,.6,0,.9,0,.2,0,.6.3.6.3,0,.3-.3.4-.5.3-3.6.3-7.2-1.2-10.6-.4-.9-1-1.6-1.7-2.3.1,0,.1-.2,0-.3,0-.8,0-1.6,0-2.4,0,0,0,0,.1-.1,1.7.7,2.7,2.1,3.5,3.7,1,2.1,1.4,4.3,1.5,6.6-.2.2-.2.4,0,.5,0,.9,0,1.9,0,2.8-.2.1-.2.3,0,.4.3.4.7.4.7-.1.1-4,0-8.1-2.2-11.7-.8-1.4-2-2.4-3.5-3.1,0-.1,0-.2-.1-.3,0-.7,0-1.5,0-2.2,0-.1.1-.2.2-.3,2.5,1,4.2,2.9,5.5,5.2,1.4,2.7,2.1,5.6,2.2,8.6,0,.7,0,1.5.1,2.2,0,.2,0,.4.3.5.3,0,.4-.3.4-.5,0-1.2,0-2.5-.2-3.7-.3-2.3-.8-4.6-1.9-6.8-1.4-2.8-3.4-5-6.4-6.3,0,0-.2,0-.2-.2,0,0,0,0,0,0,0,0,0,0,0,0,0-.7,0-1.4,0-2.1,0,0,0,0,0,0,0,0,0,0,0,0,.6-.2,1.2.2,1.7.4,3.8,1.6,6.1,4.7,7.5,8.5.8,2.3,1.1,4.7,1.2,7.1,0,.3,0,.6.3.6.3,0,.3-.3.3-.5-.2-4.1-1-8.1-3.5-11.6-1.8-2.5-4.2-4.3-7.2-5.2-.2,0-.4,0-.4-.3,0,0,0,0,0,0,0,0,0,0,0,0,0-.6,0-1.2,0-1.8.1,0,.1-.2,0-.3.5-.5,1-.5,1.6,0,4.1,2.6,7.6,5.8,9.8,10.2,1.3,2.7,2,5.5,1.7,8.5-.2,1.7-1.2,2.9-2.6,3.9-.5.3-.6.5-.6,1.2.4,3.1-2.1,5.3-5.1,4.8-.4,0-.6,0-.8.3-2.4,3.2-6.9,3.2-9.3,0-.2-.3-.4-.4-.8-.3-3,.6-5.6-2-5-5,0-.3,0-.5-.3-.7-2.5-1.5-3.3-3.7-3-6.6.6-5.5,3.4-9.7,7.5-13.2,1.2-1,2.4-1.9,3.7-2.7.7-.5,1.4-.8,2.2-.2,0,.7-.1,1.5.1,2.2-1,.4-2,.6-2.9,1.1-3.5,1.8-5.7,4.7-7.1,8.4-.9,2.4-1.2,4.9-1.4,7.5,0,.3,0,.6.3.6.4,0,.3-.4.3-.6.2-3.1.7-6.2,2.1-9,1.7-3.4,4.2-5.9,8-7,.2,0,.4,0,.5,0,0,.9,0,1.7,0,2.6-3.3,1.2-5.5,3.7-7,6.8-1.2,2.7-1.7,5.5-1.8,8.4,0,.5,0,1.1,0,1.6,0,.3,0,.6.4.5.3,0,.3-.3.3-.5,0-2.3.2-4.5.8-6.7,1-3.6,2.7-6.8,6.1-8.7.4-.2.8-.5,1.3-.6,0,.9-.1,1.9.1,2.8-.9.5-1.8.9-2.5,1.6-1.8,1.8-2.7,4.1-3.2,6.5-.4,2.1-.4,4.3-.4,6.5,0,.2,0,.5.2.6.2.1.4,0,.5-.2.2-.1.2-.3,0-.4,0-.9,0-1.9,0-2.8.2-.2.2-.4,0-.5.2-3,.7-5.8,2.6-8.3.7-.9,1.5-1.7,2.7-2.1.1,1-.1,1.9.1,2.9-1.7,1.6-2.4,3.8-2.7,6-.4,2.3-.3,4.6-.1,6.9,0,.3,0,.6.4.5.3,0,.3-.4.3-.6,0-.5-.2-1-.1-1.6.2-.9.2-1.8,0-2.8.1-2.5.5-4.9,1.9-7.1,0-.1.2-.2.3-.3,0,4.8,0,9.6,0,14.5,0,.2,0,.5.1.7Z"/>
      <path class="cls-2" d="M24.2,24.4c4.2-.2,8.1.6,11.9,2.3.8.3,1.6.8,2.4,1.2.6.3.2.7.2,1,0,.4-.3.2-.5.3-.1,0-.2,0-.3,0-1.6.6-2.9,0-4.3-.7-5.2-2.5-10.4-2-15.5.5-1.5.8-3,1.7-4.3,2.8-.1,0-.2.2-.4.3-.2.2-.3.4-.1.6.2.2.4,0,.5,0,1.1-.9,2.2-1.7,3.4-2.4,3.4-2,7.1-3,11.1-2.6,1.8.2,4.5,1.1,6.3,2.2-.8.2-1.5.4-2.3.7-.4.1-.8-.1-1.2-.3-4.2-1.2-8.2-.8-12.1,1.1-2.6,1.2-4.7,3.1-6.5,5.2-.2.2-.5.4-.2.7.3.3.5,0,.7-.3,2-2.2,4.2-4.1,7-5.3,3.6-1.6,7.3-1.8,11.1-.7-.8.4-1.5.6-2.2,1-.3.2-.6,0-.9,0-4.1-.4-7.8.8-10.9,3.4-1.4,1.1-2.6,2.5-3.6,3.9-.2.2-.4.4,0,.6.3.2.4,0,.6-.3,1.8-2.4,3.9-4.5,6.7-5.8,2.2-1,4.4-1.5,6.8-1.2-1.1.6-2.1,1.4-3.4,1.7-3.7.7-6.4,3-8.5,6.1-.5.8-1,1.6-1.4,2.4-.1.3-.3.6,0,.7.3.1.4-.2.5-.4,1.2-2.4,2.7-4.5,4.8-6.1,1.1-.8,2.3-1.5,3.7-1.9.1,0,.3,0,.5,0-.2.4-.5.6-.8.8-3.1,2.7-5.3,6-6.9,9.7,0,0,0,0,0,.1-.1.3-.4.7,0,.9.4.2.5-.3.6-.6,1.5-3.7,3.7-7,6.8-9.6.4-.3.8-.7,1.4-1.1-.1,1.1-.5,2-.9,2.9-.9,2-2.2,3.8-3.7,5.4-.1.1-.3.3-.4.4-.2.2-.3.3,0,.5.2.2.4,0,.5,0,.8-.8,1.5-1.6,2.2-2.5,1.5-2.1,2.7-4.3,3.1-6.9,0-.2,0-.3.2-.4.8-.6,1.6-1.1,2.6-1.5-.1,1.9-.7,3.7-1.6,5.3-1,2.1-2.5,4-4.1,5.7-.1.1-.3.3-.4.4-.1.2-.3.3-.1.5.2.2.4,0,.6,0,1.9-2,3.6-4.1,4.8-6.7.8-1.7,1.4-3.4,1.4-5.3,0-.2,0-.4.3-.5.8-.3,1.6-.7,2.5-1-.1,1.7-.2,3.4-.8,5-.2.6-.7,1.1-1.1,1.6-.9,1.4-1.7,2.8-2.4,4.3-.7,1.5-1.9,2.6-3.2,3.6-.2.2-.6.3-.3.7.2.3.5,0,.7-.2.7-.5,1.3-1.1,2-1.9-.1,1-.3,1.8-.3,2.7,0,.6-.1,1.1,0,1.7,0,.4-.1.6-.6.6-1.8,0-3.1-.7-4-2.2-.2-.4-.4-.4-.7-.2-3.2,1.7-6.8.4-7.8-3.1-.3-1.2-.8-2-1.7-2.8-.8-.7-1.3-1.7-1.1-2.8,0-.5,0-1.1,0-1.6-.2-1.4.5-2.4,1.4-3.2.4-.4.6-.7.6-1.4,0-2.4.9-4.4,3-5.6,2.6-1.5,5.5-2.1,8.5-2.2,0,0,0,0,.1,0Z"/>
      <path class="cls-2" d="M54,15.3c.6,0,1.3,0,1.9,0,.3,0,.6,0,.6-.3,0-.4-.3-.3-.6-.3-2.7-.1-5.2.3-7.5,1.7-2.8,1.7-4.3,4.3-5,7.4-.2,1-.4,2.1-.4,3.2,0,.1,0,.3-.1.4-.2,0-.2-.1-.3-.2,0,0-.1-.1-.2-.2-.9-.2-.9-.8-.9-1.6,0-3,0-5.9,0-8.9,0-.4.1-.7.4-1,1.3-1.5,3-2,4.9-1.5.5.1.7,0,1-.3,3.6-3.6,9.7-2.2,11.3,2.7.1.4.3.6.7.6,3.6.4,6.5,4.4,5.9,8,0,.4-.2.3-.4.2-1.6-.6-3.2-1-4.9-1.3-2.4-.4-4.8-.4-7.3,0-.1,0-.3,0-.4,0,0,0-.1,0-.3,0,1.3-1.2,2.7-2,4.4-2.2,2.2-.2,4.4.3,6.3,1.3.1,0,.2.1.4.2.2.1.4.1.5-.1.1-.2,0-.4-.2-.5-1.4-.7-2.8-1.3-4.3-1.5-3.2-.5-5.8.5-8,2.8-.3.3-.6.3-.9.4-.5.1-1,.3-1.6.4.6-1,1.2-1.8,2-2.5,1.9-1.8,4.1-2.7,6.7-2.7,1.7,0,3.2.5,4.7,1.2.1,0,.2.1.3.2.2,0,.4.1.5-.1.1-.3-.1-.4-.3-.5-1.1-.5-2.2-.9-3.4-1.2-5.3-1.1-9.3,2-11.3,5.5-.5.8-1.4.7-2.1,1,1.1-3.8,3.1-6.6,7-8,1.7-.6,3.5-.5,5.2,0,.3,0,.8.5,1,0,.2-.5-.4-.5-.8-.6-4.8-1.3-9.3.7-11.8,5.3-.6,1-1.1,2-1.2,3.2,0,.4-.2.7-.6.8-.4.1-.7.3-1.1.5-.2-1.9.8-5.4,2.3-7.4,1.7-2.3,4-3.5,6.8-4,.3,0,.7-.2,1-.1,0,0,0,0,.1,0Z"/>
      <path class="cls-2" d="M28.2,15.3c4.1.3,7.6,2.4,9.2,6.7.6,1.5.9,3.2,1,4.8-.5-.2-.9-.5-1.4-.7-.4-.1-.3-.4-.4-.7-.7-3-2.3-5.4-4.8-7.2-2.6-1.9-5.5-2.1-8.6-1.2-.2,0-.5.2-.4.5.1.3.4.2.7.1,6.3-2,10.9,2.5,12.4,7.2,0,.2,0,.4,0,.7-.9-.4-1.8-.5-2.4-1.5-1.5-2.5-3.6-4.3-6.5-5-2.8-.7-5.4,0-7.9,1.1-.2,0-.4.2-.3.5.2.3.4.2.7,0,1.3-.6,2.6-1,4-1.2,2.6-.3,4.8.4,6.8,1.9,1.1.8,2,1.8,2.8,3.2-1.2-.4-2.2-.5-3.1-1.4-2.2-2.2-5-2.9-8.1-2.2-1.3.3-2.5.7-3.6,1.4-.2.1-.5.2-.3.6.2.3.4.1.7,0,1.3-.7,2.7-1.2,4.2-1.4,2.5-.3,4.8.2,6.7,2.1-4.5-.6-8.8-.3-13,1.5-.4-1.9,0-3.6,1-5.2,1.2-1.8,2.9-2.9,5-3.2.4,0,.4-.3.5-.5.8-2.3,2.3-3.8,4.6-4.5,2.6-.8,4.9-.1,6.9,1.8.3.3.6.3.9.2,2-.5,3.6,0,5,1.5.2.3.3.5.3.9,0,3.2,0,6.5,0,9.7,0,.5-.3.6-.6.7-.3.1-.6.7-.9.5-.3-.2,0-.7-.1-1-.3-2.7-1-5.2-2.7-7.4-1.8-2.4-4.3-3.5-7.2-4-1-.2-2-.1-3.1-.1-.2,0-.6,0-.6.3,0,.4.3.3.6.3.6,0,1.3,0,1.9,0,0,0,0,0,.1,0Z"/>
      <path class="cls-2" d="M50,35.5c-.8-.9-1.6-1.6-2.5-2.3-.4-.4-.8-2.1-.6-2.6,0,0,.1-.1.2-.1,0,0,.2,0,.3,0,.7.2,1.6.2,2.1.7.5.4.2,1.3.3,2.1,0,.7.3,1.4.3,2.2Z"/>
      <path class="cls-2" d="M32.2,35.4c.1-1.4.2-2.6.3-3.9,0-.3.2-.3.4-.4.6-.2,1.2-.3,1.8-.5.4-.1.5,0,.5.4,0,1,0,2-1.1,2.7-.7.5-1.2,1.1-1.9,1.7Z"/>
      <path class="cls-2" d="M39.5,28.9c0-.9.6-1.6,1.5-1.6.9,0,1.6.6,1.6,1.6,0,.9-.6,1.6-1.5,1.6-.9,0-1.6-.6-1.6-1.6Z"/>
      <path class="cls-2" d="M35.9,31c-.2-.5.1-.8.8-.8.7,0,1.3-.2,2-.3.1,0,.2,0,.3.1,0,.1,0,.2-.1.3-.9.6-1.8,1.2-2.7,1.7-.2.1-.3,0-.3-.2,0-.2,0-.4,0-.8Z"/>
      <path class="cls-2" d="M46.2,31.1c0,.2,0,.4,0,.5,0,.1.1.3,0,.4-.2.1-.3,0-.4-.2-.8-.5-1.6-1-2.4-1.6-.1,0-.3-.1-.2-.3,0-.2.2-.1.4,0,.6,0,1.2.2,1.8.3.7,0,1.1.3.9,1Z"/>
      <path class="cls-2" d="M40.8,60.4c-.2-.2-.1-.5-.1-.7,0-4.8,0-9.6,0-14.5.3.1.1.4.1.5,0,4.9,0,9.8,0,14.6Z"/>
      <path class="cls-2" d="M38.4,52.6c.2.9.2,1.8,0,2.8,0-.9,0-1.8,0-2.8Z"/>
      <path class="cls-2" d="M40.8,40.4c-.3-.9,0-1.9-.1-2.8.3.5,0,1,.1,1.5,0,.4,0,.9,0,1.3Z"/>
      <path class="cls-2" d="M40.7,44.1c-.2-.9,0-1.9-.1-2.9,0,0,0,0,0,0,0,0,0,0,.1.1,0,.9,0,1.9,0,2.8Z"/>
      <path class="cls-2" d="M40.7,36.8c0-.9,0-1.7,0-2.6.2.8.2,1.7,0,2.6Z"/>
      <path class="cls-2" d="M40.8,33.4c-.3-.7,0-1.5-.1-2.2.3.7,0,1.5.1,2.2Z"/>
      <path class="cls-2" d="M46.8,52.2c-.2-.2-.2-.4,0-.5,0,.2,0,.4,0,.5Z"/>
      <path class="cls-2" d="M35.4,51.7c.2.2.2.4,0,.5,0-.2,0-.4,0-.5Z"/>
      <path class="cls-2" d="M46.8,55.4c-.2-.1-.2-.3,0-.4,0,.1,0,.3,0,.4Z"/>
      <path class="cls-2" d="M35.4,55c.2.1.2.3,0,.4,0-.1,0-.3,0-.4Z"/>
      <path class="cls-2" d="M41.8,45.3c0,0,0,.1-.1.2,0-.1,0-.3,0-.3,0,0,0,.1,0,.2Z"/>
      <path class="cls-2" d="M41.6,31.2c.1,0,.1.2,0,.3,0,0,0-.2,0-.3Z"/>
      <path class="cls-2" d="M41.8,37.7c0,.1-.1.2-.2.3,0,0,0-.2,0-.3,0,0,.1,0,.2,0h0Z"/>
      <path class="cls-2" d="M41.6,40.2c.1,0,.1.2.1.3-.2,0-.1-.2-.1-.3Z"/>
      <path class="cls-2" d="M41.6,43.9c.1,0,.1.2,0,.3,0,0,0-.2,0-.3Z"/>
      <path class="cls-2" d="M41.8,41.4s0,0-.1.1c0,0,0-.2.1-.1Z"/>
      <path class="cls-2" d="M40.8,41.4s0,0-.1-.1c.1,0,.2,0,.1.1Z"/>
      <path class="cls-2" d="M41.8,37.7c0,0-.1,0-.2,0,0,0,0,0,0-.1,0,0,0,0,.1,0Z"/>
      <path class="cls-2" d="M41.6,36.6s0,0,0,0c0,0,0,0,0,0,0,0,0,0,0-.1Z"/>
      <path class="cls-2" d="M41.6,34.4s0,0,0,0c0,0,0,0,0,0,0,0,0,0,0-.1Z"/>
      <path class="cls-2" d="M41.6,33.3s0,0,0,0c0,0,0,0,0,0,0,0,0,0,0-.1Z"/>
      <path class="cls-2" d="M58,24.4c0,0,0,0-.1,0,0,0,0,0,.1,0Z"/>
      <path class="cls-2" d="M55.7,24.4c0,0,0,0-.1,0,0,0,0,0,.1,0Z"/>
      <path class="cls-2" d="M24.2,24.4c0,0,0,0-.1,0,0,0,0,0,.1,0Z"/>
      <path class="cls-2" d="M54,15.3c0,0,0,0-.1,0,0,0,0,0,.1,0Z"/>
      <path class="cls-2" d="M28.2,15.3c0,0,0,0-.1,0,0,0,0,0,.1,0Z"/>
      <path class="cls-2" d="M41.6,60.1s0,0,0,0c0,0,0,0,0,0,0,0,0,0,0-.1Z"/>
      <path class="cls-2" d="M13.9,18c3.9-5.9,9.8-10.5,16.6-12.9,13.7-5.1,30.1,0,38.6,11.9,10.1,13.5,8.4,33.8-3.9,45.4-10.7,10.5-28.3,12.4-40.9,4.3-4.5-2.8-8.5-6.9-11-11.6l.3-.2c8.3,11,23,16.2,36.2,12,12.8-3.8,22.7-15.9,22.9-29.4C73.5,15.7,51.7-.4,30.9,6.3c-6.6,2.1-12.5,6.3-16.6,12l-.3-.2h0Z"/>
      <path class="cls-2" d="M55.7,83c-6.8,0-10.7-3.1-11.8-5.5-1.2-2.7-.7-4.9-.7-4.9,0,0,1.2,2.6,3.9,4.9,3.9,3.3,10.6,4.2,17.6.1,3.8-2.2,5.1-3.4,6.4-6.6,1.1-2.8.6-6.3-.7-8.6-.5-.8-.9-1-1.1-3.1,0-.7.3-1.7.7-2.3h0c.4-.8,1.4-.9,2.1-.4,1.1.8,1.9,1.9,2.6,3,3.7,6.4,0,15.7-8.5,20.5-3.4,2-7.1,2.9-10.5,2.9h0Z"/>
      <path class="cls-2" d="M67.6,64.6c.2-.4.5-1,.8-1s.9.2,1.1.7c.6,1.2,0,2.6-.9,4.5-1,2.1-2.7,4.1-4.8,5.4-2,1.3-4.8,2.2-7.5,2.4-2.5.2-3.7-.5-5.2-1.4-1.5-.9-1.6-1.6-1.6-1.6,0,0-.3,1.1.8,2.1,1.2,1,2.8,1.8,5.2,1.8s6.3-.9,8.8-2.6c2.2-1.4,4-3.6,5.1-5.8,1.1-2.3,1.2-4.3.3-5.7-.4-.5-.9-1.1-1.6-1-.7,0-1,.8-1.4,1.8-.6,1.4-1.4,3.2-3.4,3.2s-.8-.2-.8-.3c-.6-1.2,2.4-5.6,4.7-8.4l-.7-.6c-.4.5-1.6,1.9-2.7,3.5h0c-.3.5-.7,1-.9,1.5-.3.4-1.1,0-1.4.5-1,1.6-1.5,2.4-1.9,5.6-.3,2.5,3.4,2.3,5.1.5,2.7-2.7,2.5-4.2,2.5-4.2"/>
      <ellipse class="cls-2" cx="15.9" cy="53.5" rx="3.1" ry="3.4" transform="translate(-18.1 9.3) rotate(-21)"/>
      <ellipse class="cls-2" cx="21.8" cy="57" rx="2.5" ry="2.6" transform="translate(-19 11.6) rotate(-21)"/>
      <ellipse class="cls-2" cx="30.5" cy="63.4" rx="3.6" ry="3.8" transform="translate(-20.7 15.2) rotate(-21)"/>
      <ellipse class="cls-2" cx="9.1" cy="46" rx="2.5" ry="2.6" transform="translate(-15.9 6.3) rotate(-21)"/>
      <ellipse class="cls-2" cx="7.3" cy="36.7" rx="1.5" ry="1.5" transform="translate(-12.7 5) rotate(-21)"/>
      <ellipse class="cls-2" cx="8.4" cy="28.2" rx=".7" ry=".8" transform="translate(-9.6 4.9) rotate(-21)"/>
      <path class="cls-2" d="M19.6,56.3c-1.8,4.2,11.3,14.3,15.1,14.5s2.8-1.7,1.3-2.5-9.5.2-14.4-11c1.7-1.8,1.6-3,.5-2.7-.8.2-1.9.4-2.5,1.7Z"/>
    </g>
  </g>
</svg>